{"glyphs":{"0":{"ha":681,"x_min":24,"x_max":657,"o":"m 343 114 q 401 133 376 114 q 441 192 425 151 q 465 299 457 233 q 474 460 474 365 q 465 622 474 556 q 441 730 457 689 q 401 790 425 771 q 343 808 376 808 q 285 790 310 808 q 244 731 261 772 q 219 624 228 690 q 211 463 211 558 q 219 300 211 367 q 244 192 228 233 q 285 132 261 150 q 343 114 310 114 m 338 -32 q 204 -3 263 -32 q 106 87 146 26 q 44 241 65 147 q 24 465 24 335 q 44 687 24 594 q 106 838 65 779 q 204 925 146 897 q 338 953 263 953 q 472 925 413 953 q 572 839 531 897 q 635 689 613 781 q 657 468 657 597 q 572 90 657 211 q 338 -32 486 -32 z "},"1":{"ha":411,"x_min":6,"x_max":375,"o":"m 194 0 l 194 638 l 6 638 l 6 763 q 106 772 65 763 q 172 802 146 782 q 210 852 197 822 q 228 922 224 882 l 375 922 l 375 0 l 194 0 z "},"2":{"ha":646,"x_min":6,"x_max":633,"o":"m 6 0 q 16 119 6 64 q 56 229 26 175 q 140 339 86 283 q 283 458 194 394 q 366 521 333 493 q 418 574 399 549 q 446 624 438 599 q 454 678 454 649 q 444 736 454 713 q 417 774 435 760 q 376 793 400 788 q 326 799 353 799 q 228 763 264 799 q 192 635 192 728 l 18 635 q 97 869 18 785 q 318 953 175 953 q 445 936 388 953 q 544 886 503 919 q 608 802 585 853 q 631 683 631 751 q 617 588 631 631 q 572 503 603 544 q 489 418 540 461 q 364 322 438 375 q 275 238 311 283 q 236 157 239 193 l 633 157 l 633 0 l 6 0 z "},"3":{"ha":665,"x_min":18,"x_max":646,"o":"m 256 540 q 351 551 314 540 q 408 578 388 561 q 435 619 428 596 q 443 667 443 642 q 415 772 443 736 q 324 808 386 808 q 236 769 271 808 q 201 657 201 729 l 33 657 q 55 778 33 724 q 116 871 76 832 q 210 931 156 910 q 331 953 265 953 q 442 935 390 953 q 533 883 494 917 q 594 803 572 850 q 617 701 617 757 q 590 583 617 639 q 508 494 563 526 q 610 410 575 467 q 646 267 646 354 q 622 142 646 197 q 556 48 599 86 q 453 -11 513 10 q 321 -32 393 -32 q 97 49 176 -32 q 18 271 18 129 l 192 271 q 226 153 192 190 q 329 117 261 117 q 424 156 386 117 q 461 269 461 196 q 415 382 461 350 q 256 414 368 414 l 256 540 z "},"4":{"ha":661,"x_min":6,"x_max":649,"o":"m 368 667 l 179 342 l 368 342 l 368 667 m 364 0 l 364 201 l 6 201 l 6 358 l 342 922 l 544 922 l 544 342 l 649 342 l 649 201 l 544 201 l 544 0 l 364 0 z "},"5":{"ha":681,"x_min":36,"x_max":661,"o":"m 39 363 l 58 922 l 626 922 l 626 769 l 219 769 l 211 522 q 295 574 247 561 q 394 588 343 588 q 499 568 450 588 q 584 512 549 549 q 640 421 619 475 q 661 297 661 367 q 638 162 661 222 q 572 58 614 101 q 472 -8 531 15 q 343 -32 414 -32 q 226 -12 281 -32 q 129 44 171 8 q 63 128 88 79 q 36 238 39 178 l 217 238 q 256 147 222 179 q 343 115 289 115 q 449 163 418 115 q 481 289 481 210 q 449 401 481 361 q 354 442 418 442 q 275 422 306 442 q 225 363 244 401 l 39 363 z "},"6":{"ha":676,"x_min":21,"x_max":649,"o":"m 342 114 q 397 127 372 114 q 438 164 421 140 q 463 219 454 188 q 471 289 471 251 q 435 415 471 368 q 339 461 399 461 q 240 415 278 461 q 201 292 201 368 q 238 163 201 213 q 342 114 275 114 m 453 722 q 356 808 446 808 q 244 737 281 808 q 199 517 207 665 q 274 578 231 554 q 388 603 318 603 q 490 582 442 603 q 573 522 538 561 q 628 426 608 482 q 649 297 649 369 q 626 166 649 226 q 565 62 604 106 q 469 -7 525 18 q 344 -32 413 -32 q 101 85 181 -32 q 21 431 21 201 q 42 668 21 569 q 106 830 64 767 q 213 923 149 893 q 364 953 278 953 q 547 894 476 953 q 632 722 617 835 l 453 722 z "},"7":{"ha":664,"x_min":6,"x_max":651,"o":"m 132 0 q 164 200 140 100 q 228 397 188 300 q 326 587 269 494 q 456 763 382 679 l 6 763 l 6 922 l 651 922 l 651 783 q 413 409 496 610 q 318 0 329 208 l 132 0 z "},"8":{"ha":688,"x_min":21,"x_max":660,"o":"m 340 117 q 442 157 411 117 q 474 269 474 197 q 442 374 474 333 q 340 414 410 414 q 240 375 271 414 q 210 269 210 336 q 240 157 210 197 q 340 117 269 117 m 340 557 q 425 592 397 557 q 453 681 453 626 q 425 772 453 738 q 340 806 397 806 q 256 772 283 806 q 228 681 228 738 q 256 592 228 626 q 340 557 283 557 m 522 504 q 578 466 553 490 q 622 411 604 442 q 650 344 640 381 q 660 269 660 308 q 640 149 660 204 q 581 53 621 93 q 482 -10 542 13 q 342 -32 422 -32 q 202 -9 263 -32 q 101 53 142 14 q 41 147 61 93 q 21 261 21 200 q 57 401 21 342 q 165 496 93 461 q 85 583 108 525 q 61 699 61 640 q 82 799 61 753 q 140 880 103 846 q 229 933 178 914 q 342 953 281 953 q 462 933 410 953 q 549 881 514 914 q 601 802 583 847 q 618 704 618 757 q 597 588 618 643 q 522 504 575 532 z "},"9":{"ha":676,"x_min":21,"x_max":649,"o":"m 331 460 q 430 506 392 460 q 468 629 468 553 q 431 758 468 708 q 328 807 394 807 q 272 794 296 807 q 232 757 249 781 q 207 701 215 733 q 199 632 199 669 q 235 506 199 553 q 331 460 271 460 m 217 199 q 314 113 224 113 q 426 184 389 113 q 471 404 463 256 q 395 342 439 367 q 282 318 351 318 q 180 339 228 318 q 97 399 132 360 q 41 495 61 439 q 21 624 21 551 q 43 755 21 694 q 105 859 65 815 q 201 928 144 903 q 325 953 257 953 q 569 836 489 953 q 649 490 649 719 q 627 253 649 351 q 563 91 606 154 q 456 -2 521 28 q 306 -32 392 -32 q 123 27 193 -32 q 38 199 53 86 l 217 199 z "},"\u0017":{"ha":335,"x_min":0,"x_max":0,"o":""}," ":{"ha":335,"x_min":0,"x_max":0,"o":""},"!":{"ha":340,"x_min":65,"x_max":269,"o":"m 72 0 l 72 182 l 260 182 l 260 0 l 72 0 m 119 256 q 78 564 92 422 q 65 824 65 706 q 66 876 65 851 q 72 922 67 901 l 264 922 q 268 873 267 899 q 269 819 269 847 q 256 563 269 704 q 215 256 243 422 l 119 256 z "},"\"":{"ha":401,"x_min":32,"x_max":357,"o":"m 32 575 m 233 575 l 233 922 l 357 922 l 357 575 l 233 575 m 32 575 l 32 922 l 156 922 l 156 575 l 32 575 z "},"#":{"ha":696,"x_min":13,"x_max":665,"o":"m 410 542 l 288 542 l 265 381 l 389 381 l 410 542 m 336 0 l 374 263 l 251 263 l 218 0 l 100 0 l 133 263 l 13 263 l 25 381 l 149 381 l 169 542 l 49 542 l 63 660 l 185 660 l 221 922 l 336 922 l 301 660 l 425 660 l 458 922 l 578 922 l 543 660 l 665 660 l 649 542 l 528 542 l 507 381 l 629 381 l 615 263 l 492 263 l 457 0 l 336 0 z "},"$":{"ha":672,"x_min":19,"x_max":653,"o":"m 368 115 q 452 153 421 118 q 483 232 483 188 q 452 314 483 281 q 368 361 421 347 l 368 115 m 311 776 q 231 743 260 774 q 201 672 201 713 q 230 597 201 631 q 311 556 258 563 l 311 776 m 311 -76 l 311 -22 q 178 4 233 -15 q 88 60 124 24 q 36 149 53 96 q 19 276 19 203 l 186 276 q 201 203 192 232 q 224 156 210 174 q 260 128 239 138 q 311 115 281 119 l 311 383 q 190 424 242 401 q 105 478 139 447 q 53 551 71 510 q 36 649 36 592 q 57 751 36 703 q 115 835 78 799 q 201 892 151 871 q 311 914 251 913 l 311 975 l 368 975 l 368 914 q 638 644 625 906 l 474 644 q 441 747 467 719 q 368 776 415 774 l 368 538 q 517 478 461 507 q 603 416 574 449 q 643 344 633 383 q 653 254 653 306 q 633 144 653 193 q 575 58 613 94 q 485 1 538 22 q 368 -22 432 -19 l 368 -76 l 311 -76 z "},"%":{"ha":929,"x_min":26,"x_max":906,"o":"m 26 0 m 97 -28 l 738 950 l 832 950 l 190 -28 l 97 -28 m 749 43 q 798 82 782 43 q 814 215 814 121 q 798 351 814 311 q 749 390 782 390 q 700 351 717 390 q 683 217 683 313 q 700 82 683 121 q 749 43 717 43 m 746 -31 q 630 28 671 -31 q 589 218 589 88 q 630 406 589 349 q 746 463 671 463 q 863 406 821 463 q 906 219 906 349 q 863 30 906 90 q 746 -31 821 -31 m 186 533 q 235 572 219 533 q 251 706 251 611 q 235 841 251 801 q 186 881 219 881 q 138 842 154 881 q 121 707 121 803 q 138 572 121 611 q 186 533 154 533 m 183 460 q 67 519 108 460 q 26 708 26 578 q 67 896 26 839 q 183 953 108 953 q 301 896 258 953 q 343 710 343 839 q 301 520 343 581 q 183 460 258 460 z "},"&":{"ha":701,"x_min":25,"x_max":667,"o":"m 493 529 l 667 529 l 667 281 q 644 152 667 210 q 580 53 621 94 q 482 -10 539 13 q 356 -32 425 -32 q 215 -10 276 -32 q 112 51 154 13 q 47 143 69 90 q 25 257 25 196 q 33 323 25 289 q 56 386 42 357 q 92 438 71 415 q 136 471 113 460 q 29 664 29 526 q 54 769 29 722 q 125 851 79 817 q 235 903 171 885 q 376 922 299 922 l 376 771 q 244 741 282 771 q 207 643 207 711 q 246 557 207 585 q 376 529 285 529 l 376 399 q 247 365 293 399 q 201 260 201 331 q 210 205 201 231 q 238 160 219 179 q 285 128 257 140 q 354 117 314 117 q 493 281 493 117 l 493 529 z "},"'":{"ha":201,"x_min":32,"x_max":156,"o":"m 32 575 l 32 922 l 156 922 l 156 575 l 32 575 z "},"(":{"ha":453,"x_min":93,"x_max":447,"o":"m 315 -199 q 150 92 207 -68 q 93 418 93 251 q 147 730 93 578 q 315 1011 201 882 l 447 1011 q 320 720 363 869 q 278 415 278 571 q 320 105 278 260 q 447 -199 363 -50 l 315 -199 z "},")":{"ha":453,"x_min":11,"x_max":365,"o":"m 11 -199 q 138 105 96 -50 q 181 415 181 260 q 138 720 181 571 q 11 1011 96 869 l 143 1011 q 311 730 257 882 q 365 418 365 578 q 308 92 365 251 q 143 -199 251 -68 l 11 -199 z "},"*":{"ha":749,"x_min":44,"x_max":701,"o":"m 507 274 l 371 453 l 239 274 l 114 361 l 247 550 l 44 614 l 90 754 l 289 690 l 289 922 l 453 922 l 453 690 l 651 754 l 701 614 l 496 550 l 629 361 l 507 274 z "},"+":{"ha":726,"x_min":32,"x_max":686,"o":"m 293 149 l 293 411 l 32 411 l 32 542 l 293 542 l 293 803 l 424 803 l 424 542 l 686 542 l 686 411 l 424 411 l 424 149 l 293 149 z "},",":{"ha":260,"x_min":32,"x_max":224,"o":"m 32 -147 q 111 -100 85 -133 q 139 0 138 -67 l 32 0 l 32 188 l 224 188 l 224 46 q 214 -57 224 -12 q 182 -133 204 -101 q 123 -185 160 -164 q 32 -217 86 -206 l 32 -147 z "},"-":{"ha":389,"x_min":18,"x_max":363,"o":"m 18 357 l 18 497 l 363 497 l 363 357 l 18 357 z "},".":{"ha":260,"x_min":32,"x_max":225,"o":"m 32 0 l 32 188 l 225 188 l 225 0 l 32 0 z "},"/":{"ha":417,"x_min":-7,"x_max":408,"o":"m -7 0 l 257 922 l 408 922 l 142 0 l -7 0 z "},":":{"ha":238,"x_min":19,"x_max":211,"o":"m 19 0 l 19 188 l 211 188 l 211 0 l 19 0 m 19 471 l 19 657 l 211 657 l 211 471 l 19 471 z "},";":{"ha":243,"x_min":14,"x_max":206,"o":"m 14 -147 q 93 -100 67 -133 q 121 0 119 -67 l 14 0 l 14 188 l 206 188 l 206 46 q 196 -57 206 -12 q 164 -133 186 -101 q 105 -185 142 -164 q 14 -217 68 -206 l 14 -147 m 14 471 l 14 657 l 206 657 l 206 471 l 14 471 z "},"<":{"ha":726,"x_min":32,"x_max":686,"o":"m 32 411 l 32 542 l 686 819 l 686 675 l 179 476 l 686 278 l 686 133 l 32 411 z "},"=":{"ha":726,"x_min":32,"x_max":686,"o":"m 32 550 l 32 681 l 686 681 l 686 550 l 32 550 m 32 272 l 32 403 l 686 403 l 686 272 l 32 272 z "},">":{"ha":726,"x_min":32,"x_max":686,"o":"m 32 133 l 32 278 l 539 476 l 32 675 l 32 819 l 686 542 l 686 411 l 32 133 z "},"?":{"ha":682,"x_min":22,"x_max":657,"o":"m 249 0 l 249 182 l 436 182 l 436 0 l 249 0 m 254 268 q 267 400 254 350 q 315 492 279 450 q 363 535 336 517 q 411 573 389 553 q 449 618 433 593 q 464 683 464 643 q 426 778 464 751 q 338 806 389 806 q 236 765 264 806 q 201 654 208 724 l 22 654 q 44 778 22 722 q 108 872 67 833 q 206 932 149 911 q 333 953 264 953 q 570 892 483 953 q 657 693 657 831 q 648 615 657 649 q 621 555 639 582 q 576 504 603 528 q 517 456 550 481 q 467 412 486 432 q 439 369 449 392 q 426 323 429 347 q 424 268 424 299 l 254 268 z "},"@":{"ha":983,"x_min":21,"x_max":963,"o":"m 467 214 q 567 274 529 214 q 604 426 604 333 q 580 514 604 483 q 508 544 556 544 q 405 494 447 544 q 363 333 363 444 q 385 244 363 275 q 467 214 408 214 m 897 -21 q 761 -85 857 -56 q 506 -115 665 -115 q 296 -80 386 -115 q 144 19 206 -44 q 52 170 83 82 q 21 363 21 258 q 54 565 21 472 q 151 726 88 658 q 305 831 214 793 q 511 869 396 869 q 685 847 603 869 q 828 776 767 825 q 926 651 890 728 q 963 468 963 575 q 940 309 963 378 q 883 194 918 240 q 806 124 849 147 q 719 100 763 100 q 631 122 661 100 q 593 174 600 143 q 533 120 571 136 q 446 104 494 104 q 353 124 392 104 q 291 175 315 143 q 256 248 267 207 q 244 333 244 289 q 263 458 244 400 q 315 557 281 515 q 397 623 349 599 q 504 647 444 647 q 589 626 553 647 q 640 560 625 604 l 658 633 l 767 633 l 694 290 q 686 240 686 253 q 697 220 686 226 q 718 214 707 214 q 767 229 742 214 q 813 274 792 244 q 847 349 833 304 q 860 454 860 394 q 835 601 860 540 q 765 701 811 663 q 655 757 719 739 q 510 775 590 775 q 345 740 417 775 q 226 647 274 704 q 153 517 178 590 q 128 369 128 444 q 229 86 128 183 q 514 -11 331 -11 q 724 8 636 -11 q 854 60 811 28 l 897 -21 z "},"A":{"ha":893,"x_min":4,"x_max":882,"o":"m 443 715 l 442 715 l 324 349 l 558 349 l 443 715 m 672 0 l 614 190 l 274 190 l 208 0 l 4 0 l 333 922 l 557 922 l 882 0 l 672 0 z "},"B":{"ha":797,"x_min":32,"x_max":792,"o":"m 463 157 q 567 194 529 157 q 604 289 604 232 q 567 378 604 350 q 465 406 531 406 l 218 406 l 218 157 l 463 157 m 218 763 l 218 563 l 461 563 q 578 663 578 563 q 548 739 578 715 q 450 763 518 763 l 218 763 m 32 0 l 32 922 l 486 922 q 693 855 622 922 q 764 671 764 788 q 732 565 764 611 q 651 499 700 518 q 706 470 681 488 q 751 426 732 453 q 781 362 769 399 q 792 275 792 325 q 707 74 792 149 q 447 0 622 0 l 32 0 z "},"C":{"ha":851,"x_min":21,"x_max":844,"o":"m 844 317 q 796 174 829 238 q 712 64 763 110 q 594 -7 661 18 q 447 -32 528 -32 q 278 -1 357 -32 q 143 90 200 29 q 53 241 86 151 q 21 450 21 331 q 51 660 21 567 q 136 819 81 754 q 272 918 192 883 q 450 953 351 953 q 606 927 536 953 q 727 856 676 901 q 808 750 778 811 q 844 619 838 689 l 651 619 q 576 742 632 699 q 451 786 521 786 q 274 699 331 786 q 217 461 217 613 q 273 222 217 307 q 442 136 329 136 q 580 183 528 136 q 651 317 632 229 l 844 317 z "},"D":{"ha":843,"x_min":32,"x_max":817,"o":"m 379 157 q 563 235 506 157 q 619 471 619 314 q 606 604 619 549 q 560 695 592 660 q 481 747 529 731 q 363 763 432 763 l 219 763 l 219 157 l 379 157 m 32 0 l 32 922 l 389 922 q 561 891 482 922 q 697 801 640 860 q 785 660 753 743 q 817 471 817 576 q 788 278 817 365 q 707 130 760 192 q 581 34 654 68 q 418 0 507 0 l 32 0 z "},"E":{"ha":739,"x_min":32,"x_max":732,"o":"m 32 0 l 32 922 l 710 922 l 710 761 l 219 761 l 219 564 l 671 564 l 671 401 l 219 401 l 219 164 l 732 164 l 732 0 l 32 0 z "},"F":{"ha":701,"x_min":32,"x_max":689,"o":"m 225 389 l 225 0 l 32 0 l 32 922 l 689 922 l 689 761 l 225 761 l 225 551 l 631 551 l 631 389 l 225 389 z "},"G":{"ha":914,"x_min":21,"x_max":879,"o":"m 719 0 l 715 92 q 608 1 682 33 q 439 -32 535 -32 q 266 9 343 -32 q 134 119 189 50 q 50 277 79 188 q 21 463 21 367 q 50 653 21 564 q 136 810 79 743 q 278 915 193 876 q 475 953 363 953 q 628 929 557 953 q 753 864 700 906 q 840 765 807 822 q 878 638 872 707 l 683 638 q 661 698 679 669 q 615 747 643 726 q 551 781 588 768 q 475 793 514 793 q 288 706 358 793 q 218 454 218 619 q 233 340 218 397 q 278 235 247 282 q 358 160 310 189 q 474 131 407 131 q 562 147 521 131 q 633 193 603 164 q 681 260 664 222 q 699 342 699 299 l 494 342 l 494 496 l 879 496 l 879 0 l 719 0 z "},"H":{"ha":815,"x_min":32,"x_max":779,"o":"m 585 0 l 585 414 l 225 414 l 225 0 l 32 0 l 32 922 l 225 922 l 225 575 l 585 575 l 585 922 l 779 922 l 779 0 l 585 0 z "},"I":{"ha":260,"x_min":32,"x_max":225,"o":"m 32 0 l 32 922 l 225 922 l 225 0 l 32 0 z "},"J":{"ha":631,"x_min":6,"x_max":593,"o":"m 400 922 l 593 922 l 593 249 q 517 45 593 122 q 290 -32 440 -32 q 81 40 156 -32 q 6 254 6 111 l 6 349 l 181 349 l 181 264 q 206 159 181 193 q 290 125 231 125 q 378 158 357 125 q 400 267 400 190 l 400 922 z "},"K":{"ha":839,"x_min":32,"x_max":833,"o":"m 599 0 l 325 415 l 222 314 l 222 0 l 32 0 l 32 922 l 222 922 l 222 547 l 575 922 l 825 922 l 461 558 l 833 0 l 599 0 z "},"L":{"ha":696,"x_min":32,"x_max":682,"o":"m 32 0 l 32 922 l 225 922 l 225 168 l 682 168 l 682 0 l 32 0 z "},"M":{"ha":965,"x_min":32,"x_max":926,"o":"m 746 0 l 746 632 l 574 0 l 382 0 l 211 629 l 211 0 l 32 0 l 32 922 l 315 922 l 482 246 l 649 922 l 926 922 l 926 0 l 746 0 z "},"N":{"ha":821,"x_min":32,"x_max":783,"o":"m 606 0 l 211 619 l 211 0 l 32 0 l 32 922 l 236 922 l 603 329 l 603 922 l 783 922 l 783 0 l 606 0 z "},"O":{"ha":931,"x_min":21,"x_max":904,"o":"m 464 133 q 561 152 515 133 q 641 209 607 171 q 694 307 675 247 q 714 449 714 367 q 650 697 714 613 q 464 782 586 782 q 276 697 342 782 q 211 449 211 613 q 277 209 211 285 q 464 133 343 133 m 464 -32 q 135 93 250 -32 q 21 453 21 218 q 50 663 21 569 q 136 820 79 756 q 275 919 193 885 q 464 953 357 953 q 652 919 569 953 q 790 819 735 885 q 875 660 846 754 q 904 449 904 567 q 791 89 904 210 q 464 -32 678 -32 z "},"P":{"ha":742,"x_min":32,"x_max":735,"o":"m 408 492 q 528 530 492 492 q 565 629 565 568 q 528 725 565 688 q 408 763 492 763 l 225 763 l 225 492 l 408 492 m 32 0 l 32 922 l 439 922 q 561 899 507 922 q 654 835 615 876 q 714 740 693 794 q 735 624 735 686 q 714 508 735 561 q 654 416 693 454 q 561 356 615 378 q 439 335 507 335 l 225 335 l 225 0 l 32 0 z "},"Q":{"ha":932,"x_min":21,"x_max":922,"o":"m 922 -19 q 901 -142 922 -86 q 843 -237 881 -197 q 754 -301 806 -278 q 642 -324 703 -324 q 536 -303 585 -324 q 453 -247 488 -283 q 399 -158 418 -210 q 379 -46 379 -107 l 379 -17 q 113 124 206 7 q 21 453 21 242 q 50 663 21 569 q 136 820 79 756 q 275 919 193 885 q 464 953 357 953 q 652 919 569 953 q 790 819 735 885 q 875 660 846 754 q 904 449 904 567 q 881 289 904 365 q 815 151 858 213 q 706 49 771 90 q 558 -6 642 7 q 586 -120 558 -85 q 658 -156 614 -156 q 726 -122 699 -156 q 753 -19 753 -87 l 922 -19 m 464 133 q 561 152 515 133 q 641 209 607 171 q 694 307 675 247 q 714 449 714 367 q 650 697 714 613 q 464 782 586 782 q 276 697 342 782 q 211 449 211 613 q 277 209 211 285 q 464 133 343 133 z "},"R":{"ha":803,"x_min":32,"x_max":783,"o":"m 219 763 l 219 517 l 461 517 q 571 551 539 517 q 603 639 603 586 q 572 728 603 693 q 468 763 540 763 l 219 763 m 569 0 l 569 238 q 539 333 569 304 q 425 361 508 361 l 219 361 l 219 0 l 32 0 l 32 922 l 500 922 q 616 902 564 922 q 706 847 668 882 q 763 762 743 811 q 783 656 783 713 q 748 523 783 581 q 646 442 713 465 q 733 382 707 422 q 758 261 758 342 l 758 0 l 569 0 z "},"S":{"ha":782,"x_min":8,"x_max":767,"o":"m 554 650 q 503 756 547 721 q 371 790 458 790 q 247 763 289 790 q 206 682 206 735 q 238 611 206 638 q 349 565 271 585 q 499 527 428 546 q 622 485 571 508 q 679 453 653 471 q 725 408 706 435 q 756 346 744 382 q 767 261 767 310 q 740 130 767 185 q 663 39 713 75 q 547 -15 614 3 q 399 -32 479 -32 q 242 -13 313 -32 q 119 44 171 6 q 39 141 68 83 q 8 276 10 199 l 194 276 q 252 165 197 206 q 400 124 307 124 q 533 158 486 124 q 579 254 579 192 q 573 292 579 275 q 551 323 567 308 q 507 349 535 338 q 436 371 479 361 q 291 405 350 390 q 183 442 232 419 q 69 528 108 475 q 29 669 29 582 q 50 784 29 732 q 113 874 71 836 q 219 932 156 911 q 367 953 282 953 q 522 931 454 953 q 637 868 590 908 q 709 772 683 828 q 738 650 735 717 l 554 650 z "},"T":{"ha":769,"x_min":6,"x_max":756,"o":"m 283 0 l 283 761 l 6 761 l 6 922 l 756 922 l 756 761 l 476 761 l 476 0 l 283 0 z "},"U":{"ha":814,"x_min":32,"x_max":775,"o":"m 578 922 l 775 922 l 775 307 q 676 53 775 139 q 396 -32 578 -32 q 130 49 228 -32 q 32 296 32 129 l 32 922 l 228 922 l 228 314 q 271 178 228 228 q 393 128 314 128 q 578 307 578 128 l 578 922 z "},"V":{"ha":824,"x_min":4,"x_max":811,"o":"m 317 0 l 4 922 l 210 922 l 411 275 l 611 922 l 811 922 l 499 0 l 317 0 z "},"W":{"ha":1189,"x_min":4,"x_max":1179,"o":"m 735 0 l 592 600 l 446 0 l 265 0 l 4 922 l 210 922 l 361 325 l 489 922 l 692 922 l 832 325 l 982 922 l 1179 922 l 921 0 l 735 0 z "},"X":{"ha":840,"x_min":6,"x_max":828,"o":"m 593 0 l 417 317 l 231 0 l 6 0 l 304 471 l 22 922 l 250 922 l 417 624 l 585 922 l 808 922 l 528 479 l 828 0 l 593 0 z "},"Y":{"ha":836,"x_min":4,"x_max":825,"o":"m 324 0 l 324 349 l 4 922 l 229 922 l 424 547 l 603 922 l 825 922 l 517 346 l 517 0 l 324 0 z "},"Z":{"ha":739,"x_min":6,"x_max":726,"o":"m 6 0 l 6 164 l 485 761 l 19 761 l 19 922 l 726 922 l 726 771 l 244 164 l 726 164 l 726 0 l 6 0 z "},"[":{"ha":443,"x_min":100,"x_max":417,"o":"m 100 -181 l 100 999 l 417 999 l 417 875 l 260 875 l 260 -60 l 417 -60 l 417 -181 l 100 -181 z "},"\\":{"ha":408,"x_min":-7,"x_max":408,"o":"m 260 0 l -7 922 l 144 922 l 408 0 l 260 0 z "},"]":{"ha":439,"x_min":14,"x_max":333,"o":"m 14 -181 l 14 -60 l 174 -60 l 174 875 l 14 875 l 14 999 l 333 999 l 333 -181 l 14 -181 z "},"^":{"ha":638,"x_min":21,"x_max":611,"o":"m 418 657 l 317 778 l 213 657 l 21 657 l 250 922 l 379 922 l 611 657 l 418 657 z "},"_":{"ha":664,"x_min":0,"x_max":674,"o":"m 0 -175 l 0 -94 l 674 -94 l 674 -175 l 0 -175 z "},"`":{"ha":489,"x_min":69,"x_max":422,"o":"m 69 900 l 135 1014 l 422 846 l 379 769 l 69 900 z "},"a":{"ha":675,"x_min":18,"x_max":632,"o":"m 451 335 q 411 313 438 321 q 335 294 385 304 q 228 256 257 279 q 199 188 199 232 q 286 111 199 111 q 351 123 321 111 q 402 155 381 135 q 437 202 424 175 q 450 260 450 229 l 451 335 m 464 0 q 453 61 456 26 q 368 3 421 25 q 246 -18 315 -18 q 73 34 128 -18 q 18 169 18 86 q 42 287 18 243 q 107 356 65 331 q 206 392 149 381 q 332 414 264 404 q 424 440 400 424 q 447 492 447 456 q 416 544 447 525 q 332 563 385 563 q 242 535 269 563 q 208 461 215 507 l 40 461 q 58 558 42 514 q 109 635 74 603 q 201 684 144 667 q 340 701 258 701 q 477 683 421 701 q 567 631 533 665 q 617 547 601 597 q 632 432 632 496 l 632 0 l 464 0 z "},"b":{"ha":728,"x_min":36,"x_max":697,"o":"m 360 129 q 471 187 428 129 q 514 336 514 244 q 358 547 514 547 q 207 325 207 547 q 251 183 207 238 q 360 129 294 129 m 36 0 l 36 933 l 214 933 l 214 594 q 417 701 290 701 q 535 676 483 701 q 624 603 588 650 q 678 491 660 556 q 697 349 697 426 q 675 194 697 263 q 614 79 653 126 q 520 7 575 32 q 401 -18 465 -18 q 211 83 274 -18 l 210 0 l 36 0 z "},"c":{"ha":668,"x_min":24,"x_max":653,"o":"m 651 247 q 617 139 644 188 q 549 56 590 90 q 453 1 507 21 q 338 -18 400 -18 q 210 5 268 -18 q 111 74 153 28 q 47 190 69 121 q 24 350 24 258 q 47 508 24 442 q 111 617 69 575 q 212 681 153 660 q 343 701 271 701 q 465 683 410 701 q 560 631 519 665 q 625 547 601 596 q 653 439 649 499 l 471 439 q 428 522 464 492 q 342 551 393 551 q 288 542 313 551 q 244 509 263 532 q 214 448 225 486 q 203 354 203 410 q 243 188 203 242 q 336 133 283 133 q 426 163 389 133 q 469 247 464 192 l 651 247 z "},"d":{"ha":726,"x_min":22,"x_max":683,"o":"m 360 129 q 469 183 425 129 q 513 325 513 238 q 361 547 513 547 q 206 336 206 547 q 249 187 206 244 q 360 129 292 129 m 510 0 l 508 83 q 318 -18 446 -18 q 199 7 253 -18 q 106 79 144 32 q 44 194 67 126 q 22 349 22 263 q 41 491 22 426 q 96 603 60 556 q 184 676 132 650 q 303 701 236 701 q 506 594 429 701 l 506 933 l 683 933 l 683 0 l 510 0 z "},"e":{"ha":699,"x_min":21,"x_max":672,"o":"m 486 408 q 473 474 485 446 q 442 522 461 503 q 397 549 422 540 q 346 558 372 558 q 252 519 292 558 q 207 408 213 479 l 486 408 m 201 294 q 247 171 206 217 q 354 125 288 125 q 433 145 399 125 q 476 201 467 165 l 663 201 q 551 39 631 96 q 363 -18 472 -18 q 21 354 21 -18 q 43 497 21 433 q 108 607 65 561 q 211 677 150 653 q 351 701 272 701 q 591 600 510 701 q 672 294 672 499 l 201 294 z "},"f":{"ha":410,"x_min":6,"x_max":401,"o":"m 107 0 l 107 556 l 6 556 l 6 683 l 107 683 q 397 933 107 933 l 397 788 q 341 783 363 788 q 307 765 319 778 q 290 733 294 753 q 285 683 285 713 l 401 683 l 401 556 l 285 556 l 285 0 l 107 0 z "},"g":{"ha":736,"x_min":22,"x_max":693,"o":"m 364 136 q 474 187 431 136 q 518 325 518 238 q 364 544 518 544 q 210 336 210 544 q 253 190 210 244 q 364 136 297 136 m 513 92 q 442 20 493 46 q 325 -6 392 -6 q 183 24 240 -6 q 90 103 125 54 q 38 215 54 151 q 22 346 22 279 q 46 491 22 425 q 110 603 69 557 q 204 676 150 650 q 321 701 258 701 q 513 599 449 701 l 513 683 l 693 683 l 693 -7 q 667 -144 693 -85 q 594 -242 640 -203 q 486 -303 549 -282 q 353 -324 424 -324 q 221 -303 282 -324 q 116 -247 160 -283 q 47 -157 72 -210 q 22 -37 22 -104 l 190 -37 q 231 -134 190 -100 q 340 -168 272 -168 q 463 -128 413 -168 q 513 -21 513 -89 l 513 92 z "},"h":{"ha":699,"x_min":36,"x_max":656,"o":"m 474 0 l 474 424 q 447 530 474 501 q 357 558 419 558 q 297 545 324 558 q 253 509 271 532 q 226 456 235 486 q 217 392 217 426 l 217 0 l 36 0 l 36 933 l 217 933 l 217 594 q 247 637 226 617 q 293 671 267 657 q 351 693 319 685 q 418 701 383 701 q 590 644 524 701 q 656 483 656 586 l 656 0 l 474 0 z "},"i":{"ha":267,"x_min":40,"x_max":221,"o":"m 40 0 l 40 683 l 221 683 l 221 0 l 40 0 m 40 765 l 40 933 l 221 933 l 221 765 l 40 765 z "},"j":{"ha":271,"x_min":-326,"x_max":218,"o":"m 36 683 l 218 683 l 218 -46 q 197 -159 218 -108 q 140 -247 176 -210 q 55 -303 104 -283 q -51 -324 6 -324 q -259 -247 -192 -324 q -326 -37 -326 -169 l -157 -37 q -135 -130 -157 -96 q -61 -164 -114 -164 q 15 -131 -7 -164 q 36 -39 36 -97 l 36 683 m 36 765 l 36 933 l 218 933 l 218 765 l 36 765 z "},"k":{"ha":671,"x_min":36,"x_max":664,"o":"m 456 0 l 306 307 l 218 217 l 218 0 l 36 0 l 36 933 l 218 933 l 218 424 l 443 683 l 664 683 l 435 432 l 658 0 l 456 0 z "},"l":{"ha":257,"x_min":36,"x_max":217,"o":"m 36 0 l 36 933 l 217 933 l 217 0 l 36 0 z "},"m":{"ha":1047,"x_min":36,"x_max":1014,"o":"m 838 0 l 838 414 q 808 515 838 476 q 731 554 779 554 q 648 513 681 554 q 615 408 615 471 l 615 0 l 435 0 l 435 411 q 429 479 435 453 q 410 521 424 506 q 376 542 397 536 q 326 549 356 549 q 217 415 217 549 l 217 0 l 36 0 l 36 683 l 206 683 l 206 583 q 289 676 240 651 q 406 701 338 701 q 467 696 440 701 q 516 677 494 690 q 557 643 538 664 q 596 593 576 622 q 669 676 624 650 q 781 701 715 701 q 875 684 832 701 q 949 635 918 667 q 997 563 979 604 q 1014 474 1014 521 l 1014 0 l 838 0 z "},"n":{"ha":699,"x_min":36,"x_max":656,"o":"m 474 0 l 474 414 q 447 521 474 493 q 357 549 421 549 q 217 392 217 549 l 217 0 l 36 0 l 36 683 l 208 683 l 208 583 q 293 672 240 642 q 429 701 346 701 q 519 687 478 701 q 591 643 561 672 q 638 572 621 614 q 656 474 656 529 l 656 0 l 474 0 z "},"o":{"ha":749,"x_min":21,"x_max":719,"o":"m 372 133 q 538 342 538 133 q 372 549 538 549 q 207 342 207 549 q 372 133 207 133 m 372 -18 q 224 8 289 -18 q 113 82 158 35 q 44 196 68 129 q 21 342 21 263 q 45 489 21 422 q 115 603 69 556 q 226 676 161 650 q 372 701 290 701 q 517 676 453 701 q 626 603 581 650 q 695 490 671 557 q 719 342 719 424 q 695 194 719 260 q 626 81 671 128 q 516 8 581 33 q 372 -18 451 -18 z "},"p":{"ha":726,"x_min":36,"x_max":697,"o":"m 358 136 q 514 347 514 136 q 471 497 514 439 q 360 554 428 554 q 251 500 294 554 q 207 358 207 446 q 358 136 207 136 m 36 -324 l 36 683 l 210 683 l 211 600 q 401 701 274 701 q 520 676 465 701 q 614 604 575 651 q 675 489 653 557 q 697 335 697 421 q 678 192 697 257 q 624 81 660 128 q 535 8 588 33 q 417 -18 483 -18 q 214 89 290 -18 l 214 -324 l 36 -324 z "},"q":{"ha":713,"x_min":22,"x_max":1021,"o":"m 1021 -37 q 1001 -157 1021 -104 q 946 -247 981 -210 q 864 -303 911 -283 q 761 -324 817 -324 q 658 -303 706 -324 q 576 -244 611 -282 q 522 -154 542 -207 q 503 -39 503 -101 l 503 85 q 303 -18 426 -18 q 184 8 236 -18 q 96 81 132 33 q 41 192 60 128 q 22 335 22 257 q 44 489 22 421 q 106 604 67 557 q 199 676 144 651 q 318 701 253 701 q 508 600 446 701 l 510 683 l 683 683 l 683 -40 q 706 -137 683 -111 q 772 -164 729 -164 q 832 -135 813 -164 q 851 -37 851 -106 l 1021 -37 m 361 136 q 513 358 513 136 q 469 500 513 446 q 360 554 425 554 q 249 497 292 554 q 206 347 206 439 q 361 136 206 136 z "},"r":{"ha":446,"x_min":36,"x_max":432,"o":"m 36 0 l 36 683 l 206 683 l 206 601 q 252 656 228 636 q 302 685 276 675 q 354 699 328 696 q 408 701 381 701 l 432 701 l 432 517 q 382 521 407 521 q 217 356 217 521 l 217 0 l 36 0 z "},"s":{"ha":656,"x_min":13,"x_max":640,"o":"m 447 476 q 411 547 440 526 q 319 567 382 567 q 240 553 268 567 q 213 510 213 540 q 240 463 213 479 q 324 432 268 447 q 435 402 382 415 q 528 374 488 389 q 611 313 582 351 q 640 208 640 275 q 565 42 640 101 q 342 -18 489 -18 q 99 49 183 -18 q 13 219 15 115 l 199 219 q 236 144 199 171 q 340 118 274 118 q 425 134 389 118 q 461 189 461 150 q 428 240 461 225 q 351 267 396 256 q 213 304 265 288 q 124 344 160 321 q 56 414 75 375 q 38 499 38 453 q 53 579 38 542 q 103 644 68 617 q 192 686 138 671 q 325 701 247 701 q 544 644 474 701 q 621 476 614 588 l 447 476 z "},"t":{"ha":629,"x_min":36,"x_max":592,"o":"m 424 450 l 592 450 l 592 256 q 576 152 592 201 q 526 65 560 103 q 440 4 492 26 q 315 -18 388 -18 q 188 4 240 -18 q 101 64 135 26 q 51 151 67 101 q 36 257 36 201 l 36 868 l 214 868 l 214 683 l 592 683 l 592 556 l 214 556 l 214 275 q 238 174 214 210 q 318 139 263 139 q 398 174 372 139 q 424 272 424 208 l 424 450 z "},"u":{"ha":694,"x_min":36,"x_max":651,"o":"m 481 0 l 481 96 q 268 -18 411 -18 q 174 0 217 -18 q 101 51 132 18 q 53 131 71 85 q 36 233 36 176 l 36 683 l 217 683 l 217 261 q 332 133 217 133 q 437 177 401 133 q 472 289 472 221 l 472 683 l 651 683 l 651 0 l 481 0 z "},"v":{"ha":696,"x_min":4,"x_max":683,"o":"m 249 0 l 4 683 l 206 683 l 349 232 l 493 683 l 683 683 l 438 0 l 249 0 z "},"w":{"ha":992,"x_min":4,"x_max":981,"o":"m 600 0 l 492 397 l 383 0 l 199 0 l 4 683 l 194 683 l 306 244 l 400 683 l 583 683 l 690 244 l 794 683 l 981 683 l 785 0 l 600 0 z "},"x":{"ha":689,"x_min":4,"x_max":678,"o":"m 457 0 l 338 206 l 221 0 l 4 0 l 233 349 l 11 683 l 229 683 l 344 485 l 461 683 l 671 683 l 444 349 l 678 0 l 457 0 z "},"y":{"ha":697,"x_min":36,"x_max":651,"o":"m 471 90 q 401 19 451 44 q 286 -7 350 -7 q 186 10 232 -7 q 107 60 140 28 q 55 138 74 93 q 36 240 36 183 l 36 683 l 217 683 l 217 267 q 332 139 217 139 q 433 175 394 139 q 471 267 471 211 l 471 683 l 651 683 l 651 -18 q 627 -147 651 -90 q 560 -243 603 -204 q 460 -303 518 -282 q 338 -324 403 -324 q 111 -247 186 -324 q 36 -37 36 -171 l 204 -37 q 240 -133 204 -99 q 346 -168 275 -168 q 393 -158 371 -168 q 433 -128 415 -147 q 460 -82 450 -110 q 471 -21 471 -54 l 471 90 z "},"z":{"ha":618,"x_min":13,"x_max":601,"o":"m 13 0 l 13 139 l 361 540 l 36 540 l 36 683 l 592 683 l 592 538 l 243 147 l 601 147 l 601 0 l 13 0 z "},"{":{"ha":464,"x_min":42,"x_max":436,"o":"m 385 -182 q 263 -169 310 -182 q 191 -128 217 -156 q 157 -60 165 -101 q 149 38 149 -18 q 150 74 149 50 q 152 124 151 97 q 154 173 153 150 q 156 206 156 196 q 131 318 156 286 q 42 350 107 350 l 42 469 q 131 502 107 469 q 156 615 156 535 q 154 648 156 625 q 152 696 153 671 q 150 744 151 721 q 149 781 149 768 q 157 878 149 836 q 191 947 165 919 q 263 987 217 974 q 385 1000 310 1000 l 436 1000 l 436 886 l 406 886 q 323 867 344 886 q 301 799 301 847 q 306 675 301 736 q 310 551 310 614 q 297 498 310 522 q 265 455 285 474 q 217 425 244 436 q 161 410 190 414 q 217 394 190 406 q 265 365 244 383 q 297 322 285 346 q 310 268 310 297 q 306 144 310 206 q 301 19 301 82 q 323 -49 301 -29 q 406 -68 344 -68 l 436 -68 l 436 -182 l 385 -182 z "},"|":{"ha":469,"x_min":161,"x_max":303,"o":"m 161 -174 l 161 1022 l 303 1022 l 303 -174 l 161 -174 z "},"}":{"ha":458,"x_min":14,"x_max":408,"o":"m 14 -182 l 14 -68 l 44 -68 q 127 -49 106 -68 q 149 19 149 -29 q 144 144 149 82 q 140 268 140 206 q 153 322 140 297 q 185 365 165 346 q 233 394 206 383 q 289 410 260 406 q 233 425 260 414 q 185 455 206 436 q 153 498 165 474 q 140 551 140 522 q 144 675 140 614 q 149 799 149 736 q 127 867 149 847 q 44 886 106 886 l 14 886 l 14 1000 l 65 1000 q 187 987 140 1000 q 259 947 233 974 q 293 878 285 919 q 301 781 301 836 q 300 744 301 768 q 298 696 299 721 q 296 648 297 671 q 294 615 294 625 q 319 502 294 535 q 408 469 343 469 l 408 350 q 319 318 343 350 q 294 206 294 286 q 296 173 294 196 q 298 124 297 150 q 300 74 299 97 q 301 38 301 50 q 293 -60 301 -18 q 259 -128 285 -101 q 187 -169 233 -156 q 65 -182 140 -182 l 14 -182 z "},"~":{"ha":771,"x_min":35,"x_max":729,"o":"m 729 424 q 636 353 685 375 q 524 331 588 331 q 444 343 482 331 q 369 371 406 356 q 296 399 332 386 q 224 411 260 411 q 121 385 165 411 q 35 306 76 358 l 35 446 q 110 510 65 482 q 218 539 154 539 q 310 526 268 539 q 390 499 353 514 q 463 472 428 485 q 532 460 497 460 q 638 483 590 460 q 729 564 686 506 l 729 424 z "}," ":{"ha":335,"x_min":0,"x_max":0,"o":""},"¡":{"ha":340,"x_min":71,"x_max":275,"o":"m 71 0 m 268 922 l 268 740 l 81 740 l 81 922 l 268 922 m 221 667 q 262 358 249 500 q 275 99 275 217 q 274 46 275 71 q 268 0 274 21 l 76 0 q 72 49 74 24 q 71 103 71 75 q 84 359 71 218 q 125 667 97 500 l 221 667 z "},"¢":{"ha":668,"x_min":24,"x_max":653,"o":"m 308 0 l 308 97 q 192 127 244 101 q 101 199 139 153 q 44 311 64 244 q 24 465 24 378 q 101 722 24 638 q 308 817 179 807 l 308 922 l 374 922 l 374 817 q 569 739 494 808 q 653 556 644 669 l 471 556 q 438 628 464 600 q 374 663 413 656 l 374 251 q 439 290 413 261 q 469 363 465 318 l 651 363 q 621 262 644 308 q 561 181 597 215 q 477 126 525 147 q 374 99 429 104 l 374 0 l 308 0 m 308 664 q 233 610 263 654 q 203 469 203 565 q 233 317 203 371 q 308 251 264 264 l 308 664 z "},"£":{"ha":669,"x_min":36,"x_max":632,"o":"m 36 0 l 36 672 q 113 876 36 799 q 339 953 189 953 q 460 940 406 953 q 551 894 514 926 q 610 807 589 861 q 631 669 631 753 l 631 563 l 449 563 l 449 668 q 428 763 449 732 q 339 794 407 794 q 283 787 304 794 q 249 764 261 779 q 233 725 238 749 q 229 669 229 701 l 229 485 l 632 485 l 632 371 l 229 371 l 229 168 l 632 168 l 632 0 l 36 0 z "},"¤":{"ha":742,"x_min":29,"x_max":714,"o":"m 528 228 q 454 195 493 207 q 372 183 415 183 q 290 195 329 183 q 217 228 250 207 l 129 133 l 29 233 l 124 321 q 91 394 103 354 q 79 476 79 433 q 91 558 79 519 q 124 632 103 597 l 31 718 l 129 817 l 214 725 q 288 759 249 747 q 372 771 328 771 q 455 759 415 771 q 529 725 494 747 l 614 817 l 713 718 l 621 633 q 655 559 643 599 q 667 476 667 519 q 621 319 667 389 l 714 233 l 615 133 l 528 228 m 578 476 q 562 557 578 519 q 518 622 546 594 q 453 666 490 650 q 372 682 415 682 q 292 666 329 682 q 228 622 256 650 q 184 557 200 594 q 168 476 168 519 q 184 397 168 433 q 228 332 200 360 q 292 288 256 304 q 372 272 329 272 q 453 288 415 272 q 518 332 490 304 q 562 397 546 360 q 578 476 578 433 z "},"¥":{"ha":742,"x_min":24,"x_max":710,"o":"m 443 111 l 443 0 l 293 0 l 293 111 l 92 111 l 92 217 l 293 217 l 293 301 l 92 301 l 92 406 l 293 406 l 293 497 l 24 922 l 186 922 l 367 618 l 549 922 l 710 922 l 443 497 l 443 406 l 644 406 l 644 301 l 443 301 l 443 217 l 644 217 l 644 111 l 443 111 z "},"¦":{"ha":469,"x_min":161,"x_max":303,"o":"m 161 -174 l 161 397 l 303 397 l 303 -174 l 161 -174 m 303 471 l 161 471 l 161 1022 l 303 1022 l 303 471 z "},"§":{"ha":743,"x_min":35,"x_max":685,"o":"m 506 683 q 462 773 499 744 q 350 801 425 801 q 211 707 211 801 q 240 651 211 674 q 332 613 268 628 q 462 579 407 594 q 563 544 517 564 q 611 517 589 533 q 650 478 633 501 q 676 422 667 456 q 685 343 685 389 q 668 258 685 296 q 622 190 651 219 q 660 130 646 167 q 674 35 674 93 q 650 -65 674 -21 q 587 -138 626 -108 q 494 -183 547 -168 q 381 -199 440 -199 q 35 61 43 -199 l 192 61 q 240 -33 193 1 q 358 -68 288 -68 q 476 -40 436 -68 q 515 36 515 -11 q 492 100 515 75 q 396 140 469 125 q 240 179 306 160 q 133 227 175 199 q 72 297 92 256 q 53 400 53 338 q 69 486 53 446 q 117 557 85 526 q 76 620 89 585 q 63 708 63 656 q 81 799 63 757 q 134 872 99 840 q 224 921 169 903 q 350 939 278 939 q 574 869 492 939 q 660 683 656 800 l 506 683 m 478 264 q 526 344 526 290 q 503 408 526 383 q 406 449 481 433 q 333 465 368 456 q 267 485 297 475 q 201 399 201 464 q 230 342 201 365 q 321 304 258 319 q 406 284 368 293 q 478 264 444 275 z "},"¨":{"ha":585,"x_min":69,"x_max":528,"o":"m 69 804 l 69 976 l 250 976 l 250 804 l 69 804 m 347 804 l 347 976 l 528 976 l 528 804 l 347 804 z "},"©":{"ha":935,"x_min":21,"x_max":904,"o":"m 463 -12 q 291 25 371 -12 q 151 127 211 63 q 56 278 90 192 q 21 463 21 364 q 56 647 21 560 q 151 797 90 733 q 291 899 211 861 q 463 936 371 936 q 635 899 554 936 q 775 797 715 861 q 869 647 835 733 q 904 463 904 560 q 869 278 904 364 q 775 127 835 192 q 635 25 715 63 q 463 -12 554 -12 m 465 61 q 610 92 542 61 q 728 178 678 124 q 809 305 779 232 q 839 461 839 378 q 809 616 839 543 q 728 744 779 689 q 610 831 678 799 q 465 863 542 863 q 319 831 388 863 q 201 744 251 799 q 122 616 151 689 q 93 461 93 543 q 122 305 93 378 q 201 178 151 232 q 319 92 251 124 q 465 61 388 61 m 542 513 q 517 553 536 539 q 475 568 499 568 q 419 540 440 568 q 399 467 399 511 q 472 353 399 353 q 517 369 497 353 q 539 414 536 385 l 639 414 q 584 313 632 351 q 468 274 536 274 q 341 323 385 274 q 297 456 297 372 q 342 598 297 547 q 472 649 386 649 q 590 612 544 649 q 640 513 636 575 l 542 513 z "},"ª":{"ha":456,"x_min":51,"x_max":389,"o":"m 290 601 q 255 583 278 588 q 209 572 232 578 q 169 556 186 567 q 151 519 151 544 q 199 478 151 478 q 263 502 239 478 q 289 560 288 526 l 290 601 m 297 417 q 290 450 292 433 q 244 419 272 431 q 176 407 215 407 q 82 435 113 407 q 51 510 51 464 q 64 574 51 550 q 99 613 76 599 q 154 633 122 626 q 224 644 186 639 q 274 659 261 650 q 288 688 288 668 q 270 716 288 706 q 224 726 253 726 q 175 711 190 726 q 156 671 160 696 l 64 671 q 102 766 65 729 q 229 803 139 803 q 354 764 319 803 q 389 654 389 725 l 389 417 l 297 417 z "},"«":{"ha":646,"x_min":18,"x_max":626,"o":"m 18 201 m 340 440 l 539 682 l 626 588 l 496 440 l 626 294 l 539 201 l 340 440 m 18 440 l 217 682 l 304 588 l 174 440 l 304 294 l 217 201 l 18 440 z "},"¬":{"ha":818,"x_min":35,"x_max":775,"o":"m 611 0 l 611 519 l 35 519 l 35 683 l 775 683 l 775 0 l 611 0 z "},"®":{"ha":631,"x_min":58,"x_max":590,"o":"m 590 686 q 569 583 590 631 q 513 499 549 535 q 428 442 476 463 q 324 421 379 421 q 220 442 268 421 q 136 499 172 463 q 79 583 100 535 q 58 686 58 631 q 79 790 58 742 q 136 875 100 839 q 220 932 172 911 q 324 953 268 953 q 428 932 379 953 q 513 875 476 911 q 569 790 549 839 q 590 686 590 742 m 547 686 q 530 773 547 732 q 482 844 513 814 q 410 892 451 875 q 324 910 369 910 q 237 892 278 910 q 165 844 196 875 q 117 773 135 814 q 100 686 100 732 q 117 599 100 640 q 165 528 135 558 q 237 480 196 497 q 324 463 278 463 q 410 480 369 463 q 482 528 451 497 q 530 599 513 558 q 547 686 547 640 m 283 778 l 283 713 l 347 713 q 376 722 367 713 q 385 744 385 731 q 376 769 385 760 q 349 778 368 778 l 283 778 m 375 576 l 375 639 q 367 665 375 657 q 338 672 360 672 l 283 672 l 283 576 l 233 576 l 233 819 l 357 819 q 412 799 392 819 q 432 749 432 779 q 423 715 432 729 q 396 693 414 700 q 419 677 413 688 q 425 646 425 667 l 425 576 l 375 576 z "},"¯":{"ha":664,"x_min":69,"x_max":599,"o":"m 69 836 l 69 963 l 599 963 l 599 836 l 69 836 z "},"°":{"ha":521,"x_min":44,"x_max":465,"o":"m 254 493 q 158 510 197 493 q 93 558 118 528 q 56 628 68 588 q 44 714 44 668 q 56 800 44 760 q 93 870 68 840 q 158 917 118 900 q 254 933 197 933 q 350 917 310 933 q 416 870 390 900 q 453 800 442 840 q 465 714 465 760 q 453 628 465 668 q 416 558 442 588 q 350 510 390 528 q 254 493 310 493 m 254 581 q 343 620 317 581 q 369 715 369 660 q 343 810 369 771 q 254 849 317 849 q 165 810 192 849 q 139 715 139 771 q 165 620 139 660 q 254 581 192 581 z "},"±":{"ha":726,"x_min":32,"x_max":686,"o":"m 32 0 m 293 149 l 293 411 l 32 411 l 32 542 l 293 542 l 293 803 l 424 803 l 424 542 l 686 542 l 686 411 l 424 411 l 424 149 l 293 149 m 32 -36 l 32 94 l 686 94 l 686 -36 l 32 -36 z "},"²":{"ha":364,"x_min":24,"x_max":338,"o":"m 24 476 m 24 476 q 28 536 24 508 q 49 591 33 564 q 91 646 64 618 q 163 706 118 674 q 229 764 211 742 q 247 815 247 786 q 229 863 247 850 q 183 875 211 875 q 135 858 153 875 q 117 793 117 840 l 29 793 q 69 910 29 868 q 179 953 108 953 q 293 919 250 953 q 336 818 336 886 q 329 770 336 792 q 306 728 322 749 q 265 685 290 707 q 203 638 240 664 q 158 595 175 618 q 139 554 140 572 l 338 554 l 338 476 l 24 476 z "},"³":{"ha":374,"x_min":29,"x_max":343,"o":"m 29 460 m 149 746 q 224 765 207 746 q 242 810 242 783 q 182 881 242 881 q 138 860 156 881 q 121 804 121 840 l 38 804 q 78 912 38 871 q 186 953 119 953 q 288 918 246 953 q 329 826 329 883 q 316 767 329 794 q 275 724 303 739 q 325 682 307 710 q 343 610 343 654 q 299 499 343 539 q 181 460 254 460 q 69 500 108 460 q 29 611 29 540 l 117 611 q 185 535 117 535 q 232 555 213 535 q 251 611 251 575 q 228 667 251 651 q 149 683 206 683 l 149 746 z "},"´":{"ha":489,"x_min":69,"x_max":422,"o":"m 113 769 l 69 846 l 357 1014 l 422 900 l 113 769 z "},"¶":{"ha":804,"x_min":38,"x_max":783,"o":"m 567 -139 l 567 828 l 342 828 l 342 -139 l 190 -139 l 190 644 q 71 700 104 657 q 38 794 38 743 q 51 856 38 828 q 92 906 64 885 q 164 940 121 928 q 267 953 207 953 l 783 953 l 717 826 l 717 -139 l 567 -139 z "},"·":{"ha":260,"x_min":32,"x_max":225,"o":"m 32 368 l 32 556 l 225 556 l 225 368 l 32 368 z "},"¸":{"ha":288,"x_min":69,"x_max":229,"o":"m 69 -264 q 158 -174 156 -257 l 69 -174 l 69 -60 l 229 -60 l 229 -135 q 222 -205 229 -172 q 196 -262 214 -237 q 147 -303 178 -287 q 69 -324 115 -319 l 69 -264 z "},"¹":{"ha":247,"x_min":24,"x_max":208,"o":"m 24 476 m 118 476 l 118 794 l 24 794 l 24 857 q 107 877 83 857 q 135 938 131 897 l 208 938 l 208 476 l 118 476 z "},"º":{"ha":494,"x_min":53,"x_max":438,"o":"m 246 490 q 338 604 338 490 q 246 718 338 718 q 156 604 156 718 q 246 490 156 490 m 246 407 q 103 462 154 407 q 53 604 53 517 q 105 749 53 694 q 246 803 157 803 q 386 749 335 803 q 438 604 438 696 q 386 461 438 515 q 246 407 335 407 z "},"»":{"ha":646,"x_min":18,"x_max":626,"o":"m 18 201 m 340 294 l 471 440 l 340 588 l 428 682 l 626 440 l 428 201 l 340 294 m 18 294 l 149 440 l 18 588 l 106 682 l 304 440 l 106 201 l 18 294 z "},"¼":{"ha":854,"x_min":26,"x_max":832,"o":"m 26 0 m 42 -28 l 682 950 l 776 950 l 135 -28 l 42 -28 m 121 476 l 121 794 l 26 794 l 26 857 q 110 877 86 857 q 138 938 133 897 l 211 938 l 211 476 l 121 476 m 692 319 l 597 157 l 692 157 l 692 319 m 690 -14 l 690 86 l 511 86 l 511 165 l 679 447 l 781 447 l 781 157 l 832 157 l 832 86 l 781 86 l 781 -14 l 690 -14 z "},"½":{"ha":865,"x_min":26,"x_max":843,"o":"m 26 0 m 36 -28 l 676 950 l 771 950 l 129 -28 l 36 -28 m 121 476 l 121 794 l 26 794 l 26 857 q 110 877 86 857 q 138 938 133 897 l 211 938 l 211 476 l 121 476 m 529 -14 q 534 46 529 18 q 554 101 539 74 q 597 156 569 128 q 668 215 624 183 q 735 274 717 251 q 753 325 753 296 q 735 372 753 360 q 689 385 717 385 q 640 367 658 385 q 622 303 622 350 l 535 303 q 574 420 535 378 q 685 463 614 463 q 799 429 756 463 q 842 328 842 396 q 835 280 842 301 q 812 238 828 258 q 771 195 796 217 q 708 147 746 174 q 663 105 681 128 q 644 64 646 82 l 843 64 l 843 -14 l 529 -14 z "},"¾":{"ha":879,"x_min":26,"x_max":856,"o":"m 26 0 m 86 -28 l 726 950 l 821 950 l 179 -28 l 86 -28 m 715 319 l 621 157 l 715 157 l 715 319 m 714 -14 l 714 86 l 535 86 l 535 165 l 703 447 l 804 447 l 804 157 l 856 157 l 856 86 l 804 86 l 804 -14 l 714 -14 m 146 746 q 222 765 204 746 q 239 810 239 783 q 179 881 239 881 q 135 860 153 881 q 118 804 118 840 l 35 804 q 76 912 35 871 q 183 953 117 953 q 285 918 243 953 q 326 826 326 883 q 313 767 326 794 q 272 724 300 739 q 322 682 304 710 q 340 610 340 654 q 296 499 340 539 q 178 460 251 460 q 66 500 106 460 q 26 611 26 540 l 114 611 q 182 535 114 535 q 229 555 210 535 q 249 611 249 575 q 226 667 249 651 q 146 683 203 683 l 146 746 z "},"¿":{"ha":682,"x_min":25,"x_max":660,"o":"m 25 0 m 433 922 l 433 740 l 246 740 l 246 922 l 433 922 m 428 654 q 415 522 428 572 q 367 431 403 472 q 319 388 346 406 q 271 349 293 369 q 233 304 249 329 q 218 239 218 279 q 256 144 218 171 q 344 117 293 117 q 446 158 418 117 q 481 268 474 199 l 660 268 q 638 144 660 200 q 574 50 615 89 q 476 -10 533 11 q 349 -30 418 -30 q 112 31 199 -30 q 25 229 25 92 q 34 307 25 274 q 61 367 43 340 q 106 418 79 394 q 165 467 132 442 q 215 510 196 490 q 243 553 233 531 q 256 599 253 575 q 258 654 258 624 l 428 654 z "},"À":{"ha":893,"x_min":4,"x_max":882,"o":"m 4 0 m 443 715 l 442 715 l 324 349 l 558 349 l 443 715 m 672 0 l 614 190 l 274 190 l 208 0 l 4 0 l 333 922 l 557 922 l 882 0 l 672 0 m 231 1139 l 296 1253 l 583 1085 l 540 1008 l 231 1139 z "},"Á":{"ha":893,"x_min":4,"x_max":882,"o":"m 4 0 m 443 715 l 442 715 l 324 349 l 558 349 l 443 715 m 672 0 l 614 190 l 274 190 l 208 0 l 4 0 l 333 922 l 557 922 l 882 0 l 672 0 m 357 1008 l 314 1085 l 601 1253 l 667 1139 l 357 1008 z "},"Â":{"ha":893,"x_min":4,"x_max":882,"o":"m 4 0 m 443 715 l 442 715 l 324 349 l 558 349 l 443 715 m 672 0 l 614 190 l 274 190 l 208 0 l 4 0 l 333 922 l 557 922 l 882 0 l 672 0 m 447 1182 l 260 1018 l 196 1089 l 374 1275 l 521 1275 l 699 1089 l 635 1018 l 447 1182 z "},"Ã":{"ha":893,"x_min":4,"x_max":882,"o":"m 4 0 m 443 715 l 442 715 l 324 349 l 558 349 l 443 715 m 672 0 l 614 190 l 274 190 l 208 0 l 4 0 l 333 922 l 557 922 l 882 0 l 672 0 m 688 1175 q 622 1069 664 1100 q 536 1039 581 1039 q 487 1049 510 1039 q 443 1070 464 1058 q 401 1092 422 1082 q 358 1101 381 1101 q 333 1090 350 1101 q 304 1040 317 1079 l 208 1092 q 265 1187 231 1160 q 343 1214 300 1214 q 400 1203 375 1214 q 447 1181 425 1193 q 489 1158 469 1168 q 528 1147 508 1147 q 558 1162 540 1147 q 583 1213 576 1176 l 688 1175 z "},"Ä":{"ha":893,"x_min":4,"x_max":882,"o":"m 4 0 m 443 715 l 442 715 l 324 349 l 558 349 l 443 715 m 672 0 l 614 190 l 274 190 l 208 0 l 4 0 l 333 922 l 557 922 l 882 0 l 672 0 m 224 1043 l 224 1215 l 404 1215 l 404 1043 l 224 1043 m 501 1043 l 501 1215 l 682 1215 l 682 1043 l 501 1043 z "},"Å":{"ha":893,"x_min":4,"x_max":882,"o":"m 4 0 m 443 715 l 442 715 l 324 349 l 558 349 l 443 715 m 672 0 l 614 190 l 274 190 l 208 0 l 4 0 l 333 922 l 557 922 l 882 0 l 672 0 m 592 1142 q 558 1042 592 1076 q 447 1008 525 1008 q 303 1142 303 1008 q 338 1240 303 1206 q 447 1275 374 1275 q 558 1240 525 1275 q 592 1142 592 1206 m 519 1142 q 447 1213 519 1213 q 378 1142 378 1213 q 447 1074 378 1074 q 519 1142 519 1074 z "},"Æ":{"ha":1229,"x_min":4,"x_max":1224,"o":"m 519 0 l 519 190 l 274 190 l 208 0 l 4 0 l 333 922 l 1201 922 l 1201 761 l 711 761 l 711 564 l 1163 564 l 1163 401 l 711 401 l 711 164 l 1224 164 l 1224 0 l 519 0 m 519 761 l 458 761 l 324 349 l 519 349 l 519 761 z "},"Ç":{"ha":851,"x_min":21,"x_max":844,"o":"m 21 0 m 844 317 q 796 174 829 238 q 712 64 763 110 q 594 -7 661 18 q 447 -32 528 -32 q 278 -1 357 -32 q 143 90 200 29 q 53 241 86 151 q 21 450 21 331 q 51 660 21 567 q 136 819 81 754 q 272 918 192 883 q 450 953 351 953 q 606 927 536 953 q 727 856 676 901 q 808 750 778 811 q 844 619 838 689 l 651 619 q 576 742 632 699 q 451 786 521 786 q 274 699 331 786 q 217 461 217 613 q 273 222 217 307 q 442 136 329 136 q 580 183 528 136 q 651 317 632 229 l 844 317 m 372 -264 q 461 -174 458 -257 l 372 -174 l 372 -60 l 532 -60 l 532 -135 q 524 -205 532 -172 q 499 -262 517 -237 q 449 -303 481 -287 q 372 -324 418 -319 l 372 -264 z "},"È":{"ha":739,"x_min":32,"x_max":732,"o":"m 32 0 m 32 0 l 32 922 l 710 922 l 710 761 l 219 761 l 219 564 l 671 564 l 671 401 l 219 401 l 219 164 l 732 164 l 732 0 l 32 0 m 153 1139 l 218 1253 l 506 1085 l 463 1008 l 153 1139 z "},"É":{"ha":739,"x_min":32,"x_max":732,"o":"m 32 0 m 32 0 l 32 922 l 710 922 l 710 761 l 219 761 l 219 564 l 671 564 l 671 401 l 219 401 l 219 164 l 732 164 l 732 0 l 32 0 m 279 1008 l 236 1085 l 524 1253 l 589 1139 l 279 1008 z "},"Ê":{"ha":739,"x_min":32,"x_max":732,"o":"m 32 0 m 32 0 l 32 922 l 710 922 l 710 761 l 219 761 l 219 564 l 671 564 l 671 401 l 219 401 l 219 164 l 732 164 l 732 0 l 32 0 m 385 1182 l 197 1018 l 133 1089 l 311 1275 l 458 1275 l 636 1089 l 572 1018 l 385 1182 z "},"Ë":{"ha":739,"x_min":32,"x_max":732,"o":"m 32 0 m 32 0 l 32 922 l 710 922 l 710 761 l 219 761 l 219 564 l 671 564 l 671 401 l 219 401 l 219 164 l 732 164 l 732 0 l 32 0 m 158 1043 l 158 1215 l 339 1215 l 339 1043 l 158 1043 m 436 1043 l 436 1215 l 617 1215 l 617 1043 l 436 1043 z "},"Ì":{"ha":260,"x_min":-86,"x_max":267,"o":"m 0 0 m 32 0 l 32 922 l 225 922 l 225 0 l 32 0 m -86 1139 l -21 1253 l 267 1085 l 224 1008 l -86 1139 z "},"Í":{"ha":260,"x_min":-3,"x_max":350,"o":"m 0 0 m 32 0 l 32 922 l 225 922 l 225 0 l 32 0 m 40 1008 l -3 1085 l 285 1253 l 350 1139 l 40 1008 z "},"Î":{"ha":260,"x_min":-119,"x_max":383,"o":"m 0 0 m 32 0 l 32 922 l 225 922 l 225 0 l 32 0 m 132 1182 l -56 1018 l -119 1089 l 58 1275 l 206 1275 l 383 1089 l 319 1018 l 132 1182 z "},"Ï":{"ha":260,"x_min":-92,"x_max":367,"o":"m 0 0 m 32 0 l 32 922 l 225 922 l 225 0 l 32 0 m -92 1043 l -92 1215 l 89 1215 l 89 1043 l -92 1043 m 186 1043 l 186 1215 l 367 1215 l 367 1043 l 186 1043 z "},"Ð":{"ha":843,"x_min":0,"x_max":817,"o":"m 32 0 l 32 392 l 0 392 l 0 529 l 32 529 l 32 922 l 389 922 q 561 891 482 922 q 697 801 640 860 q 785 660 753 743 q 817 471 817 576 q 788 278 817 365 q 707 130 760 192 q 581 34 654 68 q 418 0 507 0 l 32 0 m 379 157 q 563 235 506 157 q 619 471 619 314 q 606 604 619 549 q 560 695 592 660 q 481 747 529 731 q 363 763 432 763 l 219 763 l 219 529 l 368 529 l 368 392 l 219 392 l 219 157 l 379 157 z "},"Ñ":{"ha":821,"x_min":32,"x_max":783,"o":"m 32 0 m 606 0 l 211 619 l 211 0 l 32 0 l 32 922 l 236 922 l 603 329 l 603 922 l 783 922 l 783 0 l 606 0 m 651 1175 q 586 1069 628 1100 q 500 1039 544 1039 q 451 1049 474 1039 q 407 1070 428 1058 q 365 1092 386 1082 q 322 1101 344 1101 q 297 1090 314 1101 q 268 1040 281 1079 l 172 1092 q 229 1187 194 1160 q 307 1214 264 1214 q 364 1203 339 1214 q 411 1181 389 1193 q 453 1158 433 1168 q 492 1147 472 1147 q 522 1162 504 1147 q 547 1213 540 1176 l 651 1175 z "},"Ò":{"ha":931,"x_min":21,"x_max":904,"o":"m 21 0 m 464 133 q 561 152 515 133 q 641 209 607 171 q 694 307 675 247 q 714 449 714 367 q 650 697 714 613 q 464 782 586 782 q 276 697 342 782 q 211 449 211 613 q 277 209 211 285 q 464 133 343 133 m 464 -32 q 135 93 250 -32 q 21 453 21 218 q 50 663 21 569 q 136 820 79 756 q 275 919 193 885 q 464 953 357 953 q 652 919 569 953 q 790 819 735 885 q 875 660 846 754 q 904 449 904 567 q 791 89 904 210 q 464 -32 678 -32 m 249 1139 l 314 1253 l 601 1085 l 558 1008 l 249 1139 z "},"Ó":{"ha":931,"x_min":21,"x_max":904,"o":"m 21 0 m 464 133 q 561 152 515 133 q 641 209 607 171 q 694 307 675 247 q 714 449 714 367 q 650 697 714 613 q 464 782 586 782 q 276 697 342 782 q 211 449 211 613 q 277 209 211 285 q 464 133 343 133 m 464 -32 q 135 93 250 -32 q 21 453 21 218 q 50 663 21 569 q 136 820 79 756 q 275 919 193 885 q 464 953 357 953 q 652 919 569 953 q 790 819 735 885 q 875 660 846 754 q 904 449 904 567 q 791 89 904 210 q 464 -32 678 -32 m 375 1008 l 332 1085 l 619 1253 l 685 1139 l 375 1008 z "},"Ô":{"ha":931,"x_min":21,"x_max":904,"o":"m 21 0 m 464 133 q 561 152 515 133 q 641 209 607 171 q 694 307 675 247 q 714 449 714 367 q 650 697 714 613 q 464 782 586 782 q 276 697 342 782 q 211 449 211 613 q 277 209 211 285 q 464 133 343 133 m 464 -32 q 135 93 250 -32 q 21 453 21 218 q 50 663 21 569 q 136 820 79 756 q 275 919 193 885 q 464 953 357 953 q 652 919 569 953 q 790 819 735 885 q 875 660 846 754 q 904 449 904 567 q 791 89 904 210 q 464 -32 678 -32 m 467 1182 l 279 1018 l 215 1089 l 393 1275 l 540 1275 l 718 1089 l 654 1018 l 467 1182 z "},"Õ":{"ha":931,"x_min":21,"x_max":904,"o":"m 21 0 m 464 133 q 561 152 515 133 q 641 209 607 171 q 694 307 675 247 q 714 449 714 367 q 650 697 714 613 q 464 782 586 782 q 276 697 342 782 q 211 449 211 613 q 277 209 211 285 q 464 133 343 133 m 464 -32 q 135 93 250 -32 q 21 453 21 218 q 50 663 21 569 q 136 820 79 756 q 275 919 193 885 q 464 953 357 953 q 652 919 569 953 q 790 819 735 885 q 875 660 846 754 q 904 449 904 567 q 791 89 904 210 q 464 -32 678 -32 m 703 1172 q 638 1067 679 1097 q 551 1036 596 1036 q 502 1046 525 1036 q 458 1067 479 1056 q 417 1089 438 1079 q 374 1099 396 1099 q 349 1088 365 1099 q 319 1038 332 1076 l 224 1089 q 281 1184 246 1157 q 358 1211 315 1211 q 415 1201 390 1211 q 463 1178 440 1190 q 504 1155 485 1165 q 543 1144 524 1144 q 574 1159 556 1144 q 599 1210 592 1174 l 703 1172 z "},"Ö":{"ha":931,"x_min":21,"x_max":904,"o":"m 21 0 m 464 133 q 561 152 515 133 q 641 209 607 171 q 694 307 675 247 q 714 449 714 367 q 650 697 714 613 q 464 782 586 782 q 276 697 342 782 q 211 449 211 613 q 277 209 211 285 q 464 133 343 133 m 464 -32 q 135 93 250 -32 q 21 453 21 218 q 50 663 21 569 q 136 820 79 756 q 275 919 193 885 q 464 953 357 953 q 652 919 569 953 q 790 819 735 885 q 875 660 846 754 q 904 449 904 567 q 791 89 904 210 q 464 -32 678 -32 m 243 1043 l 243 1215 l 424 1215 l 424 1043 l 243 1043 m 521 1043 l 521 1215 l 701 1215 l 701 1043 l 521 1043 z "},"×":{"ha":726,"x_min":81,"x_max":635,"o":"m 543 199 l 357 383 l 172 199 l 81 292 l 265 476 l 81 661 l 172 753 l 357 568 l 543 754 l 635 661 l 450 476 l 635 290 l 543 199 z "},"Ø":{"ha":931,"x_min":21,"x_max":904,"o":"m 154 -19 l 188 47 q 63 210 106 108 q 21 453 21 311 q 50 663 21 569 q 136 820 79 756 q 275 919 193 885 q 464 953 357 953 q 551 946 510 953 q 629 926 592 939 l 663 993 l 765 956 l 726 878 q 859 707 814 815 q 904 449 904 599 q 791 89 904 210 q 464 -32 678 -32 q 365 -24 411 -32 q 279 -1 319 -17 l 251 -57 l 154 -19 m 357 151 q 464 133 401 133 q 561 152 515 133 q 641 209 607 171 q 694 307 675 247 q 714 449 714 367 q 640 708 714 624 l 357 151 m 550 768 q 509 778 531 775 q 464 782 488 782 q 276 697 342 782 q 211 449 211 613 q 272 217 211 294 l 550 768 z "},"Ù":{"ha":814,"x_min":32,"x_max":775,"o":"m 32 0 m 578 922 l 775 922 l 775 307 q 676 53 775 139 q 396 -32 578 -32 q 130 49 228 -32 q 32 296 32 129 l 32 922 l 228 922 l 228 314 q 271 178 228 228 q 393 128 314 128 q 578 307 578 128 l 578 922 m 190 1139 l 256 1253 l 543 1085 l 500 1008 l 190 1139 z "},"Ú":{"ha":814,"x_min":32,"x_max":775,"o":"m 32 0 m 578 922 l 775 922 l 775 307 q 676 53 775 139 q 396 -32 578 -32 q 130 49 228 -32 q 32 296 32 129 l 32 922 l 228 922 l 228 314 q 271 178 228 228 q 393 128 314 128 q 578 307 578 128 l 578 922 m 317 1008 l 274 1085 l 561 1253 l 626 1139 l 317 1008 z "},"Û":{"ha":814,"x_min":32,"x_max":775,"o":"m 32 0 m 578 922 l 775 922 l 775 307 q 676 53 775 139 q 396 -32 578 -32 q 130 49 228 -32 q 32 296 32 129 l 32 922 l 228 922 l 228 314 q 271 178 228 228 q 393 128 314 128 q 578 307 578 128 l 578 922 m 408 1182 l 221 1018 l 157 1089 l 335 1275 l 482 1275 l 660 1089 l 596 1018 l 408 1182 z "},"Ü":{"ha":814,"x_min":32,"x_max":775,"o":"m 32 0 m 578 922 l 775 922 l 775 307 q 676 53 775 139 q 396 -32 578 -32 q 130 49 228 -32 q 32 296 32 129 l 32 922 l 228 922 l 228 314 q 271 178 228 228 q 393 128 314 128 q 578 307 578 128 l 578 922 m 183 1043 l 183 1215 l 364 1215 l 364 1043 l 183 1043 m 461 1043 l 461 1215 l 642 1215 l 642 1043 l 461 1043 z "},"Ý":{"ha":836,"x_min":4,"x_max":825,"o":"m 4 0 m 324 0 l 324 349 l 4 922 l 229 922 l 424 547 l 603 922 l 825 922 l 517 346 l 517 0 l 324 0 m 338 1008 l 294 1085 l 582 1253 l 647 1139 l 338 1008 z "},"Þ":{"ha":742,"x_min":32,"x_max":735,"o":"m 408 349 q 521 387 476 349 q 565 485 565 425 q 523 581 565 543 q 408 618 481 618 l 225 618 l 225 349 l 408 349 m 225 190 l 225 0 l 32 0 l 32 922 l 225 922 l 225 779 l 457 779 q 569 756 518 779 q 656 692 619 732 q 714 597 693 651 q 735 481 735 543 q 714 365 735 418 q 656 272 693 311 q 566 212 618 233 q 450 190 514 190 l 225 190 z "},"ß":{"ha":708,"x_min":36,"x_max":690,"o":"m 303 133 q 322 131 313 132 q 342 131 332 131 q 467 174 421 131 q 513 286 513 218 q 498 363 513 332 q 458 413 483 394 q 395 441 432 432 q 314 451 358 450 l 314 565 q 384 576 357 567 q 427 600 411 585 q 449 636 443 615 q 456 682 456 657 q 419 773 456 747 q 335 799 383 799 q 249 771 285 799 q 214 682 214 743 l 214 0 l 36 0 l 36 692 q 55 794 36 747 q 112 874 74 840 q 207 925 150 907 q 342 943 264 943 q 474 925 418 943 q 566 875 529 907 q 620 799 603 843 q 638 701 638 754 q 630 635 638 663 q 609 588 622 607 q 579 554 596 568 q 544 529 563 540 q 617 484 589 510 q 662 429 646 458 q 684 366 678 400 q 690 296 690 332 q 669 165 690 222 q 607 66 647 107 q 510 3 567 25 q 382 -18 453 -18 q 303 -12 329 -18 l 303 133 z "},"à":{"ha":675,"x_min":18,"x_max":632,"o":"m 18 0 m 451 335 q 411 313 438 321 q 335 294 385 304 q 228 256 257 279 q 199 188 199 232 q 286 111 199 111 q 351 123 321 111 q 402 155 381 135 q 437 202 424 175 q 450 260 450 229 l 451 335 m 464 0 q 453 61 456 26 q 368 3 421 25 q 246 -18 315 -18 q 73 34 128 -18 q 18 169 18 86 q 42 287 18 243 q 107 356 65 331 q 206 392 149 381 q 332 414 264 404 q 424 440 400 424 q 447 492 447 456 q 416 544 447 525 q 332 563 385 563 q 242 535 269 563 q 208 461 215 507 l 40 461 q 58 558 42 514 q 109 635 74 603 q 201 684 144 667 q 340 701 258 701 q 477 683 421 701 q 567 631 533 665 q 617 547 601 597 q 632 432 632 496 l 632 0 l 464 0 m 121 900 l 186 1014 l 474 846 l 431 769 l 121 900 z "},"á":{"ha":675,"x_min":18,"x_max":632,"o":"m 18 0 m 451 335 q 411 313 438 321 q 335 294 385 304 q 228 256 257 279 q 199 188 199 232 q 286 111 199 111 q 351 123 321 111 q 402 155 381 135 q 437 202 424 175 q 450 260 450 229 l 451 335 m 464 0 q 453 61 456 26 q 368 3 421 25 q 246 -18 315 -18 q 73 34 128 -18 q 18 169 18 86 q 42 287 18 243 q 107 356 65 331 q 206 392 149 381 q 332 414 264 404 q 424 440 400 424 q 447 492 447 456 q 416 544 447 525 q 332 563 385 563 q 242 535 269 563 q 208 461 215 507 l 40 461 q 58 558 42 514 q 109 635 74 603 q 201 684 144 667 q 340 701 258 701 q 477 683 421 701 q 567 631 533 665 q 617 547 601 597 q 632 432 632 496 l 632 0 l 464 0 m 247 769 l 204 846 l 492 1014 l 557 900 l 247 769 z "},"â":{"ha":675,"x_min":18,"x_max":632,"o":"m 18 0 m 451 335 q 411 313 438 321 q 335 294 385 304 q 228 256 257 279 q 199 188 199 232 q 286 111 199 111 q 351 123 321 111 q 402 155 381 135 q 437 202 424 175 q 450 260 450 229 l 451 335 m 464 0 q 453 61 456 26 q 368 3 421 25 q 246 -18 315 -18 q 73 34 128 -18 q 18 169 18 86 q 42 287 18 243 q 107 356 65 331 q 206 392 149 381 q 332 414 264 404 q 424 440 400 424 q 447 492 447 456 q 416 544 447 525 q 332 563 385 563 q 242 535 269 563 q 208 461 215 507 l 40 461 q 58 558 42 514 q 109 635 74 603 q 201 684 144 667 q 340 701 258 701 q 477 683 421 701 q 567 631 533 665 q 617 547 601 597 q 632 432 632 496 l 632 0 l 464 0 m 339 943 l 151 779 l 88 850 l 265 1036 l 413 1036 l 590 850 l 526 779 l 339 943 z "},"ã":{"ha":675,"x_min":18,"x_max":632,"o":"m 18 0 m 451 335 q 411 313 438 321 q 335 294 385 304 q 228 256 257 279 q 199 188 199 232 q 286 111 199 111 q 351 123 321 111 q 402 155 381 135 q 437 202 424 175 q 450 260 450 229 l 451 335 m 464 0 q 453 61 456 26 q 368 3 421 25 q 246 -18 315 -18 q 73 34 128 -18 q 18 169 18 86 q 42 287 18 243 q 107 356 65 331 q 206 392 149 381 q 332 414 264 404 q 424 440 400 424 q 447 492 447 456 q 416 544 447 525 q 332 563 385 563 q 242 535 269 563 q 208 461 215 507 l 40 461 q 58 558 42 514 q 109 635 74 603 q 201 684 144 667 q 340 701 258 701 q 477 683 421 701 q 567 631 533 665 q 617 547 601 597 q 632 432 632 496 l 632 0 l 464 0 m 579 936 q 514 831 556 861 q 428 800 472 800 q 378 810 401 800 q 335 831 356 819 q 293 853 314 843 q 250 863 272 863 q 225 851 242 863 q 196 801 208 840 l 100 853 q 157 948 122 921 q 235 975 192 975 q 292 965 267 975 q 339 942 317 954 q 381 919 361 929 q 419 908 400 908 q 450 923 432 908 q 475 974 468 938 l 579 936 z "},"ä":{"ha":675,"x_min":18,"x_max":632,"o":"m 18 0 m 451 335 q 411 313 438 321 q 335 294 385 304 q 228 256 257 279 q 199 188 199 232 q 286 111 199 111 q 351 123 321 111 q 402 155 381 135 q 437 202 424 175 q 450 260 450 229 l 451 335 m 464 0 q 453 61 456 26 q 368 3 421 25 q 246 -18 315 -18 q 73 34 128 -18 q 18 169 18 86 q 42 287 18 243 q 107 356 65 331 q 206 392 149 381 q 332 414 264 404 q 424 440 400 424 q 447 492 447 456 q 416 544 447 525 q 332 563 385 563 q 242 535 269 563 q 208 461 215 507 l 40 461 q 58 558 42 514 q 109 635 74 603 q 201 684 144 667 q 340 701 258 701 q 477 683 421 701 q 567 631 533 665 q 617 547 601 597 q 632 432 632 496 l 632 0 l 464 0 m 125 804 l 125 976 l 306 976 l 306 804 l 125 804 m 403 804 l 403 976 l 583 976 l 583 804 l 403 804 z "},"å":{"ha":675,"x_min":18,"x_max":632,"o":"m 18 0 m 451 335 q 411 313 438 321 q 335 294 385 304 q 228 256 257 279 q 199 188 199 232 q 286 111 199 111 q 351 123 321 111 q 402 155 381 135 q 437 202 424 175 q 450 260 450 229 l 451 335 m 464 0 q 453 61 456 26 q 368 3 421 25 q 246 -18 315 -18 q 73 34 128 -18 q 18 169 18 86 q 42 287 18 243 q 107 356 65 331 q 206 392 149 381 q 332 414 264 404 q 424 440 400 424 q 447 492 447 456 q 416 544 447 525 q 332 563 385 563 q 242 535 269 563 q 208 461 215 507 l 40 461 q 58 558 42 514 q 109 635 74 603 q 201 684 144 667 q 340 701 258 701 q 477 683 421 701 q 567 631 533 665 q 617 547 601 597 q 632 432 632 496 l 632 0 l 464 0 m 483 903 q 450 803 483 838 q 339 769 417 769 q 194 903 194 769 q 230 1001 194 967 q 339 1036 265 1036 q 450 1001 417 1036 q 483 903 483 967 m 411 903 q 339 974 411 974 q 269 903 269 974 q 339 835 269 835 q 411 903 411 835 z "},"æ":{"ha":1129,"x_min":18,"x_max":1103,"o":"m 632 294 q 677 171 636 217 q 785 125 718 125 q 863 145 829 125 q 907 201 897 165 l 1093 201 q 982 39 1061 96 q 793 -18 903 -18 q 642 7 715 -18 q 518 97 569 32 q 403 10 468 39 q 246 -18 339 -18 q 73 34 128 -18 q 18 169 18 86 q 42 287 18 243 q 107 356 65 331 q 206 392 149 381 q 332 414 264 404 q 424 440 400 424 q 447 492 447 456 q 416 544 447 525 q 332 563 385 563 q 242 535 269 563 q 208 461 215 507 l 40 461 q 58 558 42 514 q 109 635 74 603 q 201 684 144 667 q 340 701 258 701 q 476 684 421 701 q 565 632 531 667 q 782 701 651 701 q 1022 600 940 701 q 1103 294 1103 499 l 632 294 m 451 335 q 411 313 438 321 q 335 294 385 304 q 228 256 257 279 q 199 188 199 232 q 286 111 199 111 q 351 123 321 111 q 402 155 381 135 q 437 202 424 175 q 450 260 450 229 l 451 335 m 917 408 q 903 474 915 446 q 872 522 892 503 q 828 549 853 540 q 776 558 803 558 q 683 519 722 558 q 638 408 643 479 l 917 408 z "},"ç":{"ha":668,"x_min":24,"x_max":653,"o":"m 24 0 m 651 247 q 617 139 644 188 q 549 56 590 90 q 453 1 507 21 q 338 -18 400 -18 q 210 5 268 -18 q 111 74 153 28 q 47 190 69 121 q 24 350 24 258 q 47 508 24 442 q 111 617 69 575 q 212 681 153 660 q 343 701 271 701 q 465 683 410 701 q 560 631 519 665 q 625 547 601 596 q 653 439 649 499 l 471 439 q 428 522 464 492 q 342 551 393 551 q 288 542 313 551 q 244 509 263 532 q 214 448 225 486 q 203 354 203 410 q 243 188 203 242 q 336 133 283 133 q 426 163 389 133 q 469 247 464 192 l 651 247 m 274 -264 q 363 -174 360 -257 l 274 -174 l 274 -60 l 433 -60 l 433 -135 q 426 -205 433 -172 q 400 -262 418 -237 q 351 -303 382 -287 q 274 -324 319 -319 l 274 -264 z "},"è":{"ha":699,"x_min":21,"x_max":672,"o":"m 21 0 m 486 408 q 473 474 485 446 q 442 522 461 503 q 397 549 422 540 q 346 558 372 558 q 252 519 292 558 q 207 408 213 479 l 486 408 m 201 294 q 247 171 206 217 q 354 125 288 125 q 433 145 399 125 q 476 201 467 165 l 663 201 q 551 39 631 96 q 363 -18 472 -18 q 21 354 21 -18 q 43 497 21 433 q 108 607 65 561 q 211 677 150 653 q 351 701 272 701 q 591 600 510 701 q 672 294 672 499 l 201 294 m 132 900 l 197 1014 l 485 846 l 442 769 l 132 900 z "},"é":{"ha":699,"x_min":21,"x_max":672,"o":"m 21 0 m 486 408 q 473 474 485 446 q 442 522 461 503 q 397 549 422 540 q 346 558 372 558 q 252 519 292 558 q 207 408 213 479 l 486 408 m 201 294 q 247 171 206 217 q 354 125 288 125 q 433 145 399 125 q 476 201 467 165 l 663 201 q 551 39 631 96 q 363 -18 472 -18 q 21 354 21 -18 q 43 497 21 433 q 108 607 65 561 q 211 677 150 653 q 351 701 272 701 q 591 600 510 701 q 672 294 672 499 l 201 294 m 258 769 l 215 846 l 503 1014 l 568 900 l 258 769 z "},"ê":{"ha":699,"x_min":21,"x_max":672,"o":"m 21 0 m 486 408 q 473 474 485 446 q 442 522 461 503 q 397 549 422 540 q 346 558 372 558 q 252 519 292 558 q 207 408 213 479 l 486 408 m 201 294 q 247 171 206 217 q 354 125 288 125 q 433 145 399 125 q 476 201 467 165 l 663 201 q 551 39 631 96 q 363 -18 472 -18 q 21 354 21 -18 q 43 497 21 433 q 108 607 65 561 q 211 677 150 653 q 351 701 272 701 q 591 600 510 701 q 672 294 672 499 l 201 294 m 351 943 l 164 779 l 100 850 l 278 1036 l 425 1036 l 603 850 l 539 779 l 351 943 z "},"ë":{"ha":699,"x_min":21,"x_max":672,"o":"m 21 0 m 486 408 q 473 474 485 446 q 442 522 461 503 q 397 549 422 540 q 346 558 372 558 q 252 519 292 558 q 207 408 213 479 l 486 408 m 201 294 q 247 171 206 217 q 354 125 288 125 q 433 145 399 125 q 476 201 467 165 l 663 201 q 551 39 631 96 q 363 -18 472 -18 q 21 354 21 -18 q 43 497 21 433 q 108 607 65 561 q 211 677 150 653 q 351 701 272 701 q 591 600 510 701 q 672 294 672 499 l 201 294 m 126 804 l 126 976 l 307 976 l 307 804 l 126 804 m 404 804 l 404 976 l 585 976 l 585 804 l 404 804 z "},"ì":{"ha":378,"x_min":-28,"x_max":325,"o":"m 0 0 m -28 900 l 38 1014 l 325 846 l 282 769 l -28 900 m 96 0 l 96 683 l 276 683 l 276 0 l 96 0 z "},"í":{"ha":378,"x_min":56,"x_max":408,"o":"m 56 0 m 99 769 l 56 846 l 343 1014 l 408 900 l 99 769 m 96 0 l 96 683 l 276 683 l 276 0 l 96 0 z "},"î":{"ha":378,"x_min":-61,"x_max":442,"o":"m 0 0 m 96 0 l 96 683 l 276 683 l 276 0 l 96 0 m 190 943 l 3 779 l -61 850 l 117 1036 l 264 1036 l 442 850 l 378 779 l 190 943 z "},"ï":{"ha":378,"x_min":-33,"x_max":425,"o":"m 0 0 m -33 804 l -33 976 l 147 976 l 147 804 l -33 804 m 244 804 l 244 976 l 425 976 l 425 804 l 244 804 m 96 0 l 96 683 l 276 683 l 276 0 l 96 0 z "},"ð":{"ha":721,"x_min":21,"x_max":683,"o":"m 558 854 q 652 662 621 778 q 683 394 683 546 q 655 196 683 275 q 581 69 626 117 q 479 2 536 22 q 367 -18 422 -18 q 208 9 274 -18 q 101 84 143 36 q 40 196 60 132 q 21 335 21 260 q 41 470 21 408 q 99 576 61 532 q 193 646 138 621 q 321 671 249 671 q 371 669 346 671 q 419 660 396 667 q 464 637 443 653 q 504 594 485 621 q 480 692 499 644 q 433 782 461 740 l 318 715 l 293 754 l 406 819 q 341 885 375 856 q 274 933 307 914 l 467 933 q 525 889 496 915 l 619 943 l 644 904 l 558 854 m 358 132 q 469 179 426 132 q 513 311 513 226 q 474 463 513 410 q 360 517 436 517 q 244 465 282 517 q 206 322 206 413 q 247 181 206 231 q 358 132 289 132 z "},"ñ":{"ha":699,"x_min":36,"x_max":656,"o":"m 36 0 m 474 0 l 474 414 q 447 521 474 493 q 357 549 421 549 q 217 392 217 549 l 217 0 l 36 0 l 36 683 l 208 683 l 208 583 q 293 672 240 642 q 429 701 346 701 q 519 687 478 701 q 591 643 561 672 q 638 572 621 614 q 656 474 656 529 l 656 0 l 474 0 m 604 936 q 539 831 581 861 q 453 800 497 800 q 403 810 426 800 q 360 831 381 819 q 318 853 339 843 q 275 863 297 863 q 250 851 267 863 q 221 801 233 840 l 125 853 q 182 948 147 921 q 260 975 217 975 q 317 965 292 975 q 364 942 342 954 q 406 919 386 929 q 444 908 425 908 q 475 923 457 908 q 500 974 493 938 l 604 936 z "},"ò":{"ha":749,"x_min":21,"x_max":719,"o":"m 21 0 m 372 133 q 538 342 538 133 q 372 549 538 549 q 207 342 207 549 q 372 133 207 133 m 372 -18 q 224 8 289 -18 q 113 82 158 35 q 44 196 68 129 q 21 342 21 263 q 45 489 21 422 q 115 603 69 556 q 226 676 161 650 q 372 701 290 701 q 517 676 453 701 q 626 603 581 650 q 695 490 671 557 q 719 342 719 424 q 695 194 719 260 q 626 81 671 128 q 516 8 581 33 q 372 -18 451 -18 m 158 900 l 224 1014 l 511 846 l 468 769 l 158 900 z "},"ó":{"ha":749,"x_min":21,"x_max":719,"o":"m 21 0 m 372 133 q 538 342 538 133 q 372 549 538 549 q 207 342 207 549 q 372 133 207 133 m 372 -18 q 224 8 289 -18 q 113 82 158 35 q 44 196 68 129 q 21 342 21 263 q 45 489 21 422 q 115 603 69 556 q 226 676 161 650 q 372 701 290 701 q 517 676 453 701 q 626 603 581 650 q 695 490 671 557 q 719 342 719 424 q 695 194 719 260 q 626 81 671 128 q 516 8 581 33 q 372 -18 451 -18 m 285 769 l 242 846 l 529 1014 l 594 900 l 285 769 z "},"ô":{"ha":749,"x_min":21,"x_max":719,"o":"m 21 0 m 372 133 q 538 342 538 133 q 372 549 538 549 q 207 342 207 549 q 372 133 207 133 m 372 -18 q 224 8 289 -18 q 113 82 158 35 q 44 196 68 129 q 21 342 21 263 q 45 489 21 422 q 115 603 69 556 q 226 676 161 650 q 372 701 290 701 q 517 676 453 701 q 626 603 581 650 q 695 490 671 557 q 719 342 719 424 q 695 194 719 260 q 626 81 671 128 q 516 8 581 33 q 372 -18 451 -18 m 375 943 l 188 779 l 124 850 l 301 1036 l 449 1036 l 626 850 l 563 779 l 375 943 z "},"õ":{"ha":749,"x_min":21,"x_max":719,"o":"m 21 0 m 372 133 q 538 342 538 133 q 372 549 538 549 q 207 342 207 549 q 372 133 207 133 m 372 -18 q 224 8 289 -18 q 113 82 158 35 q 44 196 68 129 q 21 342 21 263 q 45 489 21 422 q 115 603 69 556 q 226 676 161 650 q 372 701 290 701 q 517 676 453 701 q 626 603 581 650 q 695 490 671 557 q 719 342 719 424 q 695 194 719 260 q 626 81 671 128 q 516 8 581 33 q 372 -18 451 -18 m 615 936 q 550 831 592 861 q 464 800 508 800 q 415 810 438 800 q 371 831 392 819 q 329 853 350 843 q 286 863 308 863 q 261 851 278 863 q 232 801 244 840 l 136 853 q 193 948 158 921 q 271 975 228 975 q 328 965 303 975 q 375 942 353 954 q 417 919 397 929 q 456 908 436 908 q 486 923 468 908 q 511 974 504 938 l 615 936 z "},"ö":{"ha":749,"x_min":21,"x_max":719,"o":"m 21 0 m 372 133 q 538 342 538 133 q 372 549 538 549 q 207 342 207 549 q 372 133 207 133 m 372 -18 q 224 8 289 -18 q 113 82 158 35 q 44 196 68 129 q 21 342 21 263 q 45 489 21 422 q 115 603 69 556 q 226 676 161 650 q 372 701 290 701 q 517 676 453 701 q 626 603 581 650 q 695 490 671 557 q 719 342 719 424 q 695 194 719 260 q 626 81 671 128 q 516 8 581 33 q 372 -18 451 -18 m 151 804 l 151 976 l 332 976 l 332 804 l 151 804 m 429 804 l 429 976 l 610 976 l 610 804 l 429 804 z "},"÷":{"ha":726,"x_min":32,"x_max":686,"o":"m 32 411 l 32 542 l 686 542 l 686 411 l 32 411 m 263 681 l 263 868 l 456 868 l 456 681 l 263 681 m 263 88 l 263 275 l 456 275 l 456 88 l 263 88 z "},"ø":{"ha":749,"x_min":21,"x_max":719,"o":"m 147 -43 l 179 29 q 62 155 103 74 q 21 342 21 236 q 45 489 21 422 q 115 603 69 556 q 226 676 161 650 q 372 701 290 701 q 427 698 400 701 q 478 688 454 694 l 510 757 l 597 721 l 565 651 q 679 528 639 607 q 719 342 719 449 q 695 194 719 260 q 626 81 671 128 q 516 8 581 33 q 372 -18 451 -18 q 315 -15 343 -18 q 263 -4 288 -11 l 229 -79 l 147 -43 m 328 138 q 372 133 349 133 q 538 342 538 133 q 494 499 538 444 l 328 138 m 413 544 q 393 547 403 546 q 372 549 383 549 q 207 342 207 549 q 250 183 207 235 l 413 544 z "},"ù":{"ha":694,"x_min":36,"x_max":651,"o":"m 36 0 m 481 0 l 481 96 q 268 -18 411 -18 q 174 0 217 -18 q 101 51 132 18 q 53 131 71 85 q 36 233 36 176 l 36 683 l 217 683 l 217 261 q 332 133 217 133 q 437 177 401 133 q 472 289 472 221 l 472 683 l 651 683 l 651 0 l 481 0 m 131 900 l 196 1014 l 483 846 l 440 769 l 131 900 z "},"ú":{"ha":694,"x_min":36,"x_max":651,"o":"m 36 0 m 481 0 l 481 96 q 268 -18 411 -18 q 174 0 217 -18 q 101 51 132 18 q 53 131 71 85 q 36 233 36 176 l 36 683 l 217 683 l 217 261 q 332 133 217 133 q 437 177 401 133 q 472 289 472 221 l 472 683 l 651 683 l 651 0 l 481 0 m 257 769 l 214 846 l 501 1014 l 567 900 l 257 769 z "},"û":{"ha":694,"x_min":36,"x_max":651,"o":"m 36 0 m 481 0 l 481 96 q 268 -18 411 -18 q 174 0 217 -18 q 101 51 132 18 q 53 131 71 85 q 36 233 36 176 l 36 683 l 217 683 l 217 261 q 332 133 217 133 q 437 177 401 133 q 472 289 472 221 l 472 683 l 651 683 l 651 0 l 481 0 m 349 943 l 161 779 l 97 850 l 275 1036 l 422 1036 l 600 850 l 536 779 l 349 943 z "},"ü":{"ha":694,"x_min":36,"x_max":651,"o":"m 36 0 m 481 0 l 481 96 q 268 -18 411 -18 q 174 0 217 -18 q 101 51 132 18 q 53 131 71 85 q 36 233 36 176 l 36 683 l 217 683 l 217 261 q 332 133 217 133 q 437 177 401 133 q 472 289 472 221 l 472 683 l 651 683 l 651 0 l 481 0 m 135 804 l 135 976 l 315 976 l 315 804 l 135 804 m 413 804 l 413 976 l 593 976 l 593 804 l 413 804 z "},"ý":{"ha":697,"x_min":36,"x_max":651,"o":"m 36 0 m 471 90 q 401 19 451 44 q 286 -7 350 -7 q 186 10 232 -7 q 107 60 140 28 q 55 138 74 93 q 36 240 36 183 l 36 683 l 217 683 l 217 267 q 332 139 217 139 q 433 175 394 139 q 471 267 471 211 l 471 683 l 651 683 l 651 -18 q 627 -147 651 -90 q 560 -243 603 -204 q 460 -303 518 -282 q 338 -324 403 -324 q 111 -247 186 -324 q 36 -37 36 -171 l 204 -37 q 240 -133 204 -99 q 346 -168 275 -168 q 393 -158 371 -168 q 433 -128 415 -147 q 460 -82 450 -110 q 471 -21 471 -54 l 471 90 m 258 769 l 215 846 l 503 1014 l 568 900 l 258 769 z "},"þ":{"ha":726,"x_min":36,"x_max":699,"o":"m 358 129 q 469 187 426 129 q 513 336 513 244 q 357 547 513 547 q 206 325 206 547 q 217 246 206 282 q 249 184 228 210 q 297 144 269 158 q 358 129 325 129 m 36 -324 l 36 933 l 214 933 l 214 599 q 285 677 242 653 q 401 701 329 701 q 532 672 476 701 q 625 591 588 642 q 681 474 663 540 q 699 336 699 408 q 680 193 699 258 q 625 81 661 128 q 536 8 589 35 q 417 -18 483 -18 q 299 6 354 -18 q 214 86 244 31 l 214 -324 l 36 -324 z "},"ÿ":{"ha":697,"x_min":36,"x_max":651,"o":"m 36 0 m 471 90 q 401 19 451 44 q 286 -7 350 -7 q 186 10 232 -7 q 107 60 140 28 q 55 138 74 93 q 36 240 36 183 l 36 683 l 217 683 l 217 267 q 332 139 217 139 q 433 175 394 139 q 471 267 471 211 l 471 683 l 651 683 l 651 -18 q 627 -147 651 -90 q 560 -243 603 -204 q 460 -303 518 -282 q 338 -324 403 -324 q 111 -247 186 -324 q 36 -37 36 -171 l 204 -37 q 240 -133 204 -99 q 346 -168 275 -168 q 393 -158 371 -168 q 433 -128 415 -147 q 460 -82 450 -110 q 471 -21 471 -54 l 471 90 m 125 804 l 125 976 l 306 976 l 306 804 l 125 804 m 403 804 l 403 976 l 583 976 l 583 804 l 403 804 z "},"Ā":{"ha":893,"x_min":4,"x_max":882,"o":"m 4 0 m 443 715 l 442 715 l 324 349 l 558 349 l 443 715 m 672 0 l 614 190 l 274 190 l 208 0 l 4 0 l 333 922 l 557 922 l 882 0 l 672 0 m 183 1075 l 183 1201 l 713 1201 l 713 1075 l 183 1075 z "},"ā":{"ha":675,"x_min":18,"x_max":632,"o":"m 18 0 m 451 335 q 411 313 438 321 q 335 294 385 304 q 228 256 257 279 q 199 188 199 232 q 286 111 199 111 q 351 123 321 111 q 402 155 381 135 q 437 202 424 175 q 450 260 450 229 l 451 335 m 464 0 q 453 61 456 26 q 368 3 421 25 q 246 -18 315 -18 q 73 34 128 -18 q 18 169 18 86 q 42 287 18 243 q 107 356 65 331 q 206 392 149 381 q 332 414 264 404 q 424 440 400 424 q 447 492 447 456 q 416 544 447 525 q 332 563 385 563 q 242 535 269 563 q 208 461 215 507 l 40 461 q 58 558 42 514 q 109 635 74 603 q 201 684 144 667 q 340 701 258 701 q 477 683 421 701 q 567 631 533 665 q 617 547 601 597 q 632 432 632 496 l 632 0 l 464 0 m 75 836 l 75 963 l 604 963 l 604 836 l 75 836 z "},"Ă":{"ha":893,"x_min":4,"x_max":882,"o":"m 4 0 m 443 715 l 442 715 l 324 349 l 558 349 l 443 715 m 672 0 l 614 190 l 274 190 l 208 0 l 4 0 l 333 922 l 557 922 l 882 0 l 672 0 m 674 1275 q 655 1174 674 1217 q 605 1102 636 1131 q 533 1059 574 1074 q 449 1044 492 1044 q 365 1059 406 1044 q 292 1102 324 1074 q 242 1174 261 1131 q 224 1275 224 1217 l 338 1275 q 369 1185 340 1217 q 449 1154 397 1154 q 528 1185 500 1154 q 560 1275 557 1217 l 674 1275 z "},"ă":{"ha":675,"x_min":18,"x_max":632,"o":"m 18 0 m 451 335 q 411 313 438 321 q 335 294 385 304 q 228 256 257 279 q 199 188 199 232 q 286 111 199 111 q 351 123 321 111 q 402 155 381 135 q 437 202 424 175 q 450 260 450 229 l 451 335 m 464 0 q 453 61 456 26 q 368 3 421 25 q 246 -18 315 -18 q 73 34 128 -18 q 18 169 18 86 q 42 287 18 243 q 107 356 65 331 q 206 392 149 381 q 332 414 264 404 q 424 440 400 424 q 447 492 447 456 q 416 544 447 525 q 332 563 385 563 q 242 535 269 563 q 208 461 215 507 l 40 461 q 58 558 42 514 q 109 635 74 603 q 201 684 144 667 q 340 701 258 701 q 477 683 421 701 q 567 631 533 665 q 617 547 601 597 q 632 432 632 496 l 632 0 l 464 0 m 564 1036 q 545 935 564 978 q 495 863 526 892 q 423 820 464 835 q 339 806 382 806 q 255 820 296 806 q 183 863 214 835 q 133 935 151 892 q 114 1036 114 978 l 228 1036 q 259 947 231 978 q 339 915 288 915 q 419 947 390 915 q 450 1036 447 978 l 564 1036 z "},"Ą":{"ha":893,"x_min":4,"x_max":882,"o":"m 882 -287 q 828 -313 863 -303 q 736 -324 793 -324 q 622 -292 661 -324 q 583 -206 583 -260 q 649 -85 583 -137 q 822 0 714 -33 l 672 0 l 614 190 l 274 190 l 208 0 l 4 0 l 333 922 l 557 922 l 882 0 q 798 -41 829 -24 q 751 -73 767 -58 q 730 -101 735 -87 q 725 -128 725 -114 q 749 -162 725 -151 q 814 -174 774 -174 q 851 -170 833 -174 q 882 -162 869 -167 l 882 -287 m 443 715 l 442 715 l 324 349 l 558 349 l 443 715 z "},"ą":{"ha":675,"x_min":18,"x_max":632,"o":"m 632 -287 q 578 -313 613 -303 q 486 -324 543 -324 q 372 -292 411 -324 q 333 -206 333 -260 q 399 -85 333 -137 q 572 0 464 -33 l 464 0 q 453 61 456 26 q 368 3 421 25 q 246 -18 315 -18 q 73 34 128 -18 q 18 169 18 86 q 42 287 18 243 q 107 356 65 331 q 206 392 149 381 q 332 414 264 404 q 424 440 400 424 q 447 492 447 456 q 416 544 447 525 q 332 563 385 563 q 242 535 269 563 q 208 461 215 507 l 40 461 q 58 558 42 514 q 109 635 74 603 q 201 684 144 667 q 340 701 258 701 q 477 683 421 701 q 567 631 533 665 q 617 547 601 597 q 632 432 632 496 l 632 0 q 548 -41 579 -24 q 501 -73 517 -58 q 480 -101 485 -87 q 475 -128 475 -114 q 499 -162 475 -151 q 564 -174 524 -174 q 601 -170 583 -174 q 632 -162 619 -167 l 632 -287 m 451 335 q 411 313 438 321 q 335 294 385 304 q 228 256 257 279 q 199 188 199 232 q 286 111 199 111 q 351 123 321 111 q 402 155 381 135 q 437 202 424 175 q 450 260 450 229 l 451 335 z "},"Ć":{"ha":851,"x_min":21,"x_max":844,"o":"m 21 0 m 844 317 q 796 174 829 238 q 712 64 763 110 q 594 -7 661 18 q 447 -32 528 -32 q 278 -1 357 -32 q 143 90 200 29 q 53 241 86 151 q 21 450 21 331 q 51 660 21 567 q 136 819 81 754 q 272 918 192 883 q 450 953 351 953 q 606 927 536 953 q 727 856 676 901 q 808 750 778 811 q 844 619 838 689 l 651 619 q 576 742 632 699 q 451 786 521 786 q 274 699 331 786 q 217 461 217 613 q 273 222 217 307 q 442 136 329 136 q 580 183 528 136 q 651 317 632 229 l 844 317 m 335 1008 l 292 1085 l 579 1253 l 644 1139 l 335 1008 z "},"ć":{"ha":668,"x_min":24,"x_max":653,"o":"m 24 0 m 651 247 q 617 139 644 188 q 549 56 590 90 q 453 1 507 21 q 338 -18 400 -18 q 210 5 268 -18 q 111 74 153 28 q 47 190 69 121 q 24 350 24 258 q 47 508 24 442 q 111 617 69 575 q 212 681 153 660 q 343 701 271 701 q 465 683 410 701 q 560 631 519 665 q 625 547 601 596 q 653 439 649 499 l 471 439 q 428 522 464 492 q 342 551 393 551 q 288 542 313 551 q 244 509 263 532 q 214 448 225 486 q 203 354 203 410 q 243 188 203 242 q 336 133 283 133 q 426 163 389 133 q 469 247 464 192 l 651 247 m 243 769 l 200 846 l 488 1014 l 553 900 l 243 769 z "},"Ċ":{"ha":851,"x_min":21,"x_max":844,"o":"m 21 0 m 844 317 q 796 174 829 238 q 712 64 763 110 q 594 -7 661 18 q 447 -32 528 -32 q 278 -1 357 -32 q 143 90 200 29 q 53 241 86 151 q 21 450 21 331 q 51 660 21 567 q 136 819 81 754 q 272 918 192 883 q 450 953 351 953 q 606 927 536 953 q 727 856 676 901 q 808 750 778 811 q 844 619 838 689 l 651 619 q 576 742 632 699 q 451 786 521 786 q 274 699 331 786 q 217 461 217 613 q 273 222 217 307 q 442 136 329 136 q 580 183 528 136 q 651 317 632 229 l 844 317 m 363 1043 l 363 1215 l 543 1215 l 543 1043 l 363 1043 z "},"ċ":{"ha":668,"x_min":24,"x_max":653,"o":"m 24 0 m 651 247 q 617 139 644 188 q 549 56 590 90 q 453 1 507 21 q 338 -18 400 -18 q 210 5 268 -18 q 111 74 153 28 q 47 190 69 121 q 24 350 24 258 q 47 508 24 442 q 111 617 69 575 q 212 681 153 660 q 343 701 271 701 q 465 683 410 701 q 560 631 519 665 q 625 547 601 596 q 653 439 649 499 l 471 439 q 428 522 464 492 q 342 551 393 551 q 288 542 313 551 q 244 509 263 532 q 214 448 225 486 q 203 354 203 410 q 243 188 203 242 q 336 133 283 133 q 426 163 389 133 q 469 247 464 192 l 651 247 m 260 804 l 260 976 l 440 976 l 440 804 l 260 804 z "},"Č":{"ha":851,"x_min":21,"x_max":844,"o":"m 21 0 m 844 317 q 796 174 829 238 q 712 64 763 110 q 594 -7 661 18 q 447 -32 528 -32 q 278 -1 357 -32 q 143 90 200 29 q 53 241 86 151 q 21 450 21 331 q 51 660 21 567 q 136 819 81 754 q 272 918 192 883 q 450 953 351 953 q 606 927 536 953 q 727 856 676 901 q 808 750 778 811 q 844 619 838 689 l 651 619 q 576 742 632 699 q 451 786 521 786 q 274 699 331 786 q 217 461 217 613 q 273 222 217 307 q 442 136 329 136 q 580 183 528 136 q 651 317 632 229 l 844 317 m 368 1018 l 190 1204 l 254 1275 l 442 1111 l 629 1275 l 693 1204 l 515 1018 l 368 1018 z "},"č":{"ha":668,"x_min":24,"x_max":653,"o":"m 24 0 m 651 247 q 617 139 644 188 q 549 56 590 90 q 453 1 507 21 q 338 -18 400 -18 q 210 5 268 -18 q 111 74 153 28 q 47 190 69 121 q 24 350 24 258 q 47 508 24 442 q 111 617 69 575 q 212 681 153 660 q 343 701 271 701 q 465 683 410 701 q 560 631 519 665 q 625 547 601 596 q 653 439 649 499 l 471 439 q 428 522 464 492 q 342 551 393 551 q 288 542 313 551 q 244 509 263 532 q 214 448 225 486 q 203 354 203 410 q 243 188 203 242 q 336 133 283 133 q 426 163 389 133 q 469 247 464 192 l 651 247 m 265 779 l 88 965 l 151 1036 l 339 872 l 526 1036 l 590 965 l 413 779 l 265 779 z "},"Ď":{"ha":843,"x_min":32,"x_max":817,"o":"m 32 0 m 379 157 q 563 235 506 157 q 619 471 619 314 q 606 604 619 549 q 560 695 592 660 q 481 747 529 731 q 363 763 432 763 l 219 763 l 219 157 l 379 157 m 32 0 l 32 922 l 389 922 q 561 891 482 922 q 697 801 640 860 q 785 660 753 743 q 817 471 817 576 q 788 278 817 365 q 707 130 760 192 q 581 34 654 68 q 418 0 507 0 l 32 0 m 297 1018 l 119 1204 l 183 1275 l 371 1111 l 558 1275 l 622 1204 l 444 1018 l 297 1018 z "},"ď":{"ha":908,"x_min":22,"x_max":913,"o":"m 22 0 m 360 129 q 469 183 425 129 q 513 325 513 238 q 361 547 513 547 q 206 336 206 547 q 249 187 206 244 q 360 129 292 129 m 510 0 l 508 83 q 318 -18 446 -18 q 199 7 253 -18 q 106 79 144 32 q 44 194 67 126 q 22 349 22 263 q 41 491 22 426 q 96 603 60 556 q 184 676 132 650 q 303 701 236 701 q 506 594 429 701 l 506 933 l 683 933 l 683 0 l 510 0 m 721 625 q 800 672 774 639 q 828 772 826 706 l 721 772 l 721 960 l 913 960 l 913 818 q 903 715 913 760 q 871 640 893 671 q 812 588 849 608 q 721 556 775 567 l 721 625 z "},"đ":{"ha":726,"x_min":26,"x_max":725,"o":"m 517 0 l 514 113 q 478 51 500 76 q 431 11 457 26 q 376 -11 404 -4 q 322 -18 349 -18 q 203 7 257 -18 q 110 79 149 32 q 49 194 71 126 q 26 349 26 263 q 45 491 26 426 q 100 603 64 556 q 188 676 136 650 q 307 701 240 701 q 367 696 336 701 q 425 675 397 690 q 476 634 453 660 q 511 569 499 608 l 511 743 l 286 743 l 286 860 l 511 860 l 511 933 l 685 933 l 685 860 l 725 860 l 725 743 l 685 743 l 685 0 l 517 0 m 358 125 q 474 176 429 125 q 518 339 518 228 q 476 495 518 440 q 358 550 435 550 q 246 501 288 550 q 204 339 204 451 q 246 176 204 226 q 358 125 288 125 z "},"Ē":{"ha":739,"x_min":32,"x_max":732,"o":"m 32 0 m 32 0 l 32 922 l 710 922 l 710 761 l 219 761 l 219 564 l 671 564 l 671 401 l 219 401 l 219 164 l 732 164 l 732 0 l 32 0 m 106 1075 l 106 1201 l 635 1201 l 635 1075 l 106 1075 z "},"ē":{"ha":699,"x_min":21,"x_max":672,"o":"m 21 0 m 486 408 q 473 474 485 446 q 442 522 461 503 q 397 549 422 540 q 346 558 372 558 q 252 519 292 558 q 207 408 213 479 l 486 408 m 201 294 q 247 171 206 217 q 354 125 288 125 q 433 145 399 125 q 476 201 467 165 l 663 201 q 551 39 631 96 q 363 -18 472 -18 q 21 354 21 -18 q 43 497 21 433 q 108 607 65 561 q 211 677 150 653 q 351 701 272 701 q 591 600 510 701 q 672 294 672 499 l 201 294 m 86 836 l 86 963 l 615 963 l 615 836 l 86 836 z "},"Ĕ":{"ha":739,"x_min":32,"x_max":732,"o":"m 32 0 m 32 0 l 32 922 l 710 922 l 710 761 l 219 761 l 219 564 l 671 564 l 671 401 l 219 401 l 219 164 l 732 164 l 732 0 l 32 0 m 608 1275 q 590 1174 608 1217 q 540 1102 571 1131 q 467 1059 508 1074 q 383 1044 426 1044 q 299 1059 340 1044 q 227 1102 258 1074 q 177 1174 196 1131 q 158 1275 158 1217 l 272 1275 q 303 1185 275 1217 q 383 1154 332 1154 q 463 1185 435 1154 q 494 1275 492 1217 l 608 1275 z "},"ĕ":{"ha":699,"x_min":21,"x_max":672,"o":"m 21 0 m 486 408 q 473 474 485 446 q 442 522 461 503 q 397 549 422 540 q 346 558 372 558 q 252 519 292 558 q 207 408 213 479 l 486 408 m 201 294 q 247 171 206 217 q 354 125 288 125 q 433 145 399 125 q 476 201 467 165 l 663 201 q 551 39 631 96 q 363 -18 472 -18 q 21 354 21 -18 q 43 497 21 433 q 108 607 65 561 q 211 677 150 653 q 351 701 272 701 q 591 600 510 701 q 672 294 672 499 l 201 294 m 575 1036 q 556 935 575 978 q 506 863 538 892 q 434 820 475 835 q 350 806 393 806 q 266 820 307 806 q 194 863 225 835 q 144 935 163 892 q 125 1036 125 978 l 239 1036 q 270 947 242 978 q 350 915 299 915 q 430 947 401 915 q 461 1036 458 978 l 575 1036 z "},"Ė":{"ha":739,"x_min":32,"x_max":732,"o":"m 32 0 m 32 0 l 32 922 l 710 922 l 710 761 l 219 761 l 219 564 l 671 564 l 671 401 l 219 401 l 219 164 l 732 164 l 732 0 l 32 0 m 296 1043 l 296 1215 l 476 1215 l 476 1043 l 296 1043 z "},"ė":{"ha":699,"x_min":21,"x_max":672,"o":"m 21 0 m 486 408 q 473 474 485 446 q 442 522 461 503 q 397 549 422 540 q 346 558 372 558 q 252 519 292 558 q 207 408 213 479 l 486 408 m 201 294 q 247 171 206 217 q 354 125 288 125 q 433 145 399 125 q 476 201 467 165 l 663 201 q 551 39 631 96 q 363 -18 472 -18 q 21 354 21 -18 q 43 497 21 433 q 108 607 65 561 q 211 677 150 653 q 351 701 272 701 q 591 600 510 701 q 672 294 672 499 l 201 294 m 265 804 l 265 976 l 446 976 l 446 804 l 265 804 z "},"Ę":{"ha":739,"x_min":32,"x_max":732,"o":"m 732 -287 q 678 -313 713 -303 q 586 -324 643 -324 q 472 -292 511 -324 q 433 -206 433 -260 q 499 -85 433 -137 q 672 0 564 -33 l 32 0 l 32 922 l 710 922 l 710 761 l 219 761 l 219 564 l 671 564 l 671 401 l 219 401 l 219 164 l 732 164 l 732 0 q 648 -41 679 -24 q 601 -73 617 -58 q 580 -101 585 -87 q 575 -128 575 -114 q 599 -162 575 -151 q 664 -174 624 -174 q 701 -170 683 -174 q 732 -162 719 -167 l 732 -287 z "},"ę":{"ha":699,"x_min":21,"x_max":672,"o":"m 476 -287 q 422 -313 457 -303 q 331 -324 388 -324 q 217 -292 256 -324 q 178 -206 178 -260 q 227 -99 178 -146 q 364 -18 276 -51 l 363 -18 q 21 354 21 -18 q 43 497 21 433 q 108 607 65 561 q 211 677 150 653 q 351 701 272 701 q 591 600 510 701 q 672 294 672 499 l 201 294 q 247 171 206 217 q 354 125 288 125 q 433 145 399 125 q 476 201 467 165 l 663 201 q 591 74 639 125 q 476 0 543 24 q 392 -41 424 -24 q 345 -73 361 -58 q 324 -101 329 -87 q 319 -128 319 -114 q 344 -162 319 -151 q 408 -174 368 -174 q 446 -170 428 -174 q 476 -162 464 -167 l 476 -287 m 486 408 q 473 474 485 446 q 442 522 461 503 q 397 549 422 540 q 346 558 372 558 q 252 519 292 558 q 207 408 213 479 l 486 408 z "},"Ě":{"ha":739,"x_min":32,"x_max":732,"o":"m 32 0 m 32 0 l 32 922 l 710 922 l 710 761 l 219 761 l 219 564 l 671 564 l 671 401 l 219 401 l 219 164 l 732 164 l 732 0 l 32 0 m 297 1018 l 119 1204 l 183 1275 l 371 1111 l 558 1275 l 622 1204 l 444 1018 l 297 1018 z "},"ě":{"ha":699,"x_min":21,"x_max":672,"o":"m 21 0 m 486 408 q 473 474 485 446 q 442 522 461 503 q 397 549 422 540 q 346 558 372 558 q 252 519 292 558 q 207 408 213 479 l 486 408 m 201 294 q 247 171 206 217 q 354 125 288 125 q 433 145 399 125 q 476 201 467 165 l 663 201 q 551 39 631 96 q 363 -18 472 -18 q 21 354 21 -18 q 43 497 21 433 q 108 607 65 561 q 211 677 150 653 q 351 701 272 701 q 591 600 510 701 q 672 294 672 499 l 201 294 m 278 779 l 100 965 l 164 1036 l 351 872 l 539 1036 l 603 965 l 425 779 l 278 779 z "},"Ğ":{"ha":914,"x_min":21,"x_max":879,"o":"m 21 0 m 719 0 l 715 92 q 608 1 682 33 q 439 -32 535 -32 q 266 9 343 -32 q 134 119 189 50 q 50 277 79 188 q 21 463 21 367 q 50 653 21 564 q 136 810 79 743 q 278 915 193 876 q 475 953 363 953 q 628 929 557 953 q 753 864 700 906 q 840 765 807 822 q 878 638 872 707 l 683 638 q 661 698 679 669 q 615 747 643 726 q 551 781 588 768 q 475 793 514 793 q 288 706 358 793 q 218 454 218 619 q 233 340 218 397 q 278 235 247 282 q 358 160 310 189 q 474 131 407 131 q 562 147 521 131 q 633 193 603 164 q 681 260 664 222 q 699 342 699 299 l 494 342 l 494 496 l 879 496 l 879 0 l 719 0 m 694 1275 q 676 1174 694 1217 q 626 1102 657 1131 q 553 1059 594 1074 q 469 1044 513 1044 q 385 1059 426 1044 q 313 1102 344 1074 q 263 1174 282 1131 q 244 1275 244 1217 l 358 1275 q 390 1185 361 1217 q 469 1154 418 1154 q 549 1185 521 1154 q 581 1275 578 1217 l 694 1275 z "},"ğ":{"ha":736,"x_min":22,"x_max":693,"o":"m 22 0 m 364 136 q 474 187 431 136 q 518 325 518 238 q 364 544 518 544 q 210 336 210 544 q 253 190 210 244 q 364 136 297 136 m 513 92 q 442 20 493 46 q 325 -6 392 -6 q 183 24 240 -6 q 90 103 125 54 q 38 215 54 151 q 22 346 22 279 q 46 491 22 425 q 110 603 69 557 q 204 676 150 650 q 321 701 258 701 q 513 599 449 701 l 513 683 l 693 683 l 693 -7 q 667 -144 693 -85 q 594 -242 640 -203 q 486 -303 549 -282 q 353 -324 424 -324 q 221 -303 282 -324 q 116 -247 160 -283 q 47 -157 72 -210 q 22 -37 22 -104 l 190 -37 q 231 -134 190 -100 q 340 -168 272 -168 q 463 -128 413 -168 q 513 -21 513 -89 l 513 92 m 592 1036 q 573 935 592 978 q 523 863 554 892 q 451 820 492 835 q 367 806 410 806 q 283 820 324 806 q 210 863 242 835 q 160 935 179 892 q 142 1036 142 978 l 256 1036 q 287 947 258 978 q 367 915 315 915 q 447 947 418 915 q 478 1036 475 978 l 592 1036 z "},"Ġ":{"ha":914,"x_min":21,"x_max":879,"o":"m 21 0 m 719 0 l 715 92 q 608 1 682 33 q 439 -32 535 -32 q 266 9 343 -32 q 134 119 189 50 q 50 277 79 188 q 21 463 21 367 q 50 653 21 564 q 136 810 79 743 q 278 915 193 876 q 475 953 363 953 q 628 929 557 953 q 753 864 700 906 q 840 765 807 822 q 878 638 872 707 l 683 638 q 661 698 679 669 q 615 747 643 726 q 551 781 588 768 q 475 793 514 793 q 288 706 358 793 q 218 454 218 619 q 233 340 218 397 q 278 235 247 282 q 358 160 310 189 q 474 131 407 131 q 562 147 521 131 q 633 193 603 164 q 681 260 664 222 q 699 342 699 299 l 494 342 l 494 496 l 879 496 l 879 0 l 719 0 m 392 1043 l 392 1215 l 572 1215 l 572 1043 l 392 1043 z "},"ġ":{"ha":736,"x_min":22,"x_max":693,"o":"m 22 0 m 364 136 q 474 187 431 136 q 518 325 518 238 q 364 544 518 544 q 210 336 210 544 q 253 190 210 244 q 364 136 297 136 m 513 92 q 442 20 493 46 q 325 -6 392 -6 q 183 24 240 -6 q 90 103 125 54 q 38 215 54 151 q 22 346 22 279 q 46 491 22 425 q 110 603 69 557 q 204 676 150 650 q 321 701 258 701 q 513 599 449 701 l 513 683 l 693 683 l 693 -7 q 667 -144 693 -85 q 594 -242 640 -203 q 486 -303 549 -282 q 353 -324 424 -324 q 221 -303 282 -324 q 116 -247 160 -283 q 47 -157 72 -210 q 22 -37 22 -104 l 190 -37 q 231 -134 190 -100 q 340 -168 272 -168 q 463 -128 413 -168 q 513 -21 513 -89 l 513 92 m 271 804 l 271 976 l 451 976 l 451 804 l 271 804 z "},"Ģ":{"ha":914,"x_min":21,"x_max":879,"o":"m 21 0 m 719 0 l 715 92 q 608 1 682 33 q 439 -32 535 -32 q 266 9 343 -32 q 134 119 189 50 q 50 277 79 188 q 21 463 21 367 q 50 653 21 564 q 136 810 79 743 q 278 915 193 876 q 475 953 363 953 q 628 929 557 953 q 753 864 700 906 q 840 765 807 822 q 878 638 872 707 l 683 638 q 661 698 679 669 q 615 747 643 726 q 551 781 588 768 q 475 793 514 793 q 288 706 358 793 q 218 454 218 619 q 233 340 218 397 q 278 235 247 282 q 358 160 310 189 q 474 131 407 131 q 562 147 521 131 q 633 193 603 164 q 681 260 664 222 q 699 342 699 299 l 494 342 l 494 496 l 879 496 l 879 0 l 719 0 m 382 -264 q 471 -174 468 -257 l 382 -174 l 382 -60 l 542 -60 l 542 -135 q 534 -205 542 -172 q 508 -262 526 -237 q 459 -303 490 -287 q 382 -324 428 -319 l 382 -264 z "},"ģ":{"ha":736,"x_min":22,"x_max":693,"o":"m 22 0 m 364 136 q 474 187 431 136 q 518 325 518 238 q 364 544 518 544 q 210 336 210 544 q 253 190 210 244 q 364 136 297 136 m 513 92 q 442 20 493 46 q 325 -6 392 -6 q 183 24 240 -6 q 90 103 125 54 q 38 215 54 151 q 22 346 22 279 q 46 491 22 425 q 110 603 69 557 q 204 676 150 650 q 321 701 258 701 q 513 599 449 701 l 513 683 l 693 683 l 693 -7 q 667 -144 693 -85 q 594 -242 640 -203 q 486 -303 549 -282 q 353 -324 424 -324 q 221 -303 282 -324 q 116 -247 160 -283 q 47 -157 72 -210 q 22 -37 22 -104 l 190 -37 q 231 -134 190 -100 q 340 -168 272 -168 q 463 -128 413 -168 q 513 -21 513 -89 l 513 92 m 442 971 q 353 881 356 964 l 442 881 l 442 767 l 282 767 l 282 842 q 290 912 282 879 q 315 969 297 944 q 365 1010 333 994 q 442 1031 396 1026 l 442 971 z "},"Ħ":{"ha":815,"x_min":32,"x_max":779,"o":"m 585 0 l 585 414 l 225 414 l 225 0 l 32 0 l 32 922 l 225 922 l 225 811 l 585 811 l 585 922 l 779 922 l 779 0 l 585 0 m 585 575 l 585 685 l 225 685 l 225 575 l 585 575 z "},"ħ":{"ha":699,"x_min":0,"x_max":656,"o":"m 217 747 l 217 594 q 247 637 226 617 q 293 671 267 657 q 351 693 319 685 q 418 701 383 701 q 590 644 524 701 q 656 483 656 586 l 656 0 l 474 0 l 474 424 q 447 530 474 501 q 357 558 419 558 q 297 545 324 558 q 253 509 271 532 q 226 456 235 486 q 217 392 217 426 l 217 0 l 36 0 l 36 747 l 0 747 l 0 874 l 36 874 l 36 933 l 217 933 l 217 874 l 446 874 l 446 747 l 217 747 z "},"Ĩ":{"ha":260,"x_min":-108,"x_max":371,"o":"m 0 0 m 32 0 l 32 922 l 225 922 l 225 0 l 32 0 m 371 1175 q 306 1069 347 1100 q 219 1039 264 1039 q 170 1049 193 1039 q 126 1070 147 1058 q 85 1092 106 1082 q 42 1101 64 1101 q 17 1090 33 1101 q -12 1040 0 1079 l -108 1092 q -51 1187 -86 1160 q 26 1214 -17 1214 q 83 1203 58 1214 q 131 1181 108 1193 q 172 1158 153 1168 q 211 1147 192 1147 q 242 1162 224 1147 q 267 1213 260 1176 l 371 1175 z "},"ĩ":{"ha":378,"x_min":-49,"x_max":431,"o":"m 0 0 m 431 936 q 365 831 407 861 q 279 800 324 800 q 230 810 253 800 q 186 831 207 819 q 144 853 165 843 q 101 863 124 863 q 76 851 93 863 q 47 801 60 840 l -49 853 q 8 948 -26 921 q 86 975 43 975 q 143 965 118 975 q 190 942 168 954 q 232 919 213 929 q 271 908 251 908 q 301 923 283 908 q 326 974 319 938 l 431 936 m 96 0 l 96 683 l 276 683 l 276 0 l 96 0 z "},"Ī":{"ha":260,"x_min":-132,"x_max":397,"o":"m 0 0 m 32 0 l 32 922 l 225 922 l 225 0 l 32 0 m -132 1075 l -132 1201 l 397 1201 l 397 1075 l -132 1075 z "},"ī":{"ha":378,"x_min":-74,"x_max":456,"o":"m 0 0 m -74 836 l -74 963 l 456 963 l 456 836 l -74 836 m 96 0 l 96 683 l 276 683 l 276 0 l 96 0 z "},"Ĭ":{"ha":260,"x_min":-93,"x_max":357,"o":"m 0 0 m 32 0 l 32 922 l 225 922 l 225 0 l 32 0 m 357 1275 q 338 1174 357 1217 q 288 1102 319 1131 q 216 1059 257 1074 q 132 1044 175 1044 q 48 1059 89 1044 q -24 1102 7 1074 q -74 1174 -56 1131 q -93 1275 -93 1217 l 21 1275 q 52 1185 24 1217 q 132 1154 81 1154 q 212 1185 183 1154 q 243 1275 240 1217 l 357 1275 z "},"ĭ":{"ha":378,"x_min":-35,"x_max":415,"o":"m 0 0 m 415 1036 q 397 935 415 978 q 347 863 378 892 q 274 820 315 835 q 190 806 233 806 q 106 820 147 806 q 34 863 65 835 q -16 935 3 892 q -35 1036 -35 978 l 79 1036 q 110 947 82 978 q 190 915 139 915 q 270 947 242 915 q 301 1036 299 978 l 415 1036 m 96 0 l 96 683 l 276 683 l 276 0 l 96 0 z "},"Į":{"ha":260,"x_min":-74,"x_max":225,"o":"m 225 -287 q 171 -313 206 -303 q 79 -324 136 -324 q -35 -292 4 -324 q -74 -206 -74 -260 q -8 -85 -74 -137 q 165 0 57 -33 l 32 0 l 32 922 l 225 922 l 225 0 q 141 -41 172 -24 q 94 -73 110 -58 q 73 -101 78 -87 q 68 -128 68 -114 q 92 -162 68 -151 q 157 -174 117 -174 q 194 -170 176 -174 q 225 -162 213 -167 l 225 -287 z "},"į":{"ha":267,"x_min":-78,"x_max":221,"o":"m 221 -287 q 167 -313 201 -303 q 75 -324 132 -324 q -39 -292 0 -324 q -78 -206 -78 -260 q -12 -85 -78 -137 q 161 0 53 -33 l 40 0 l 40 683 l 221 683 l 221 0 q 137 -41 168 -24 q 90 -73 106 -58 q 69 -101 74 -87 q 64 -128 64 -114 q 88 -162 64 -151 q 153 -174 113 -174 q 190 -170 172 -174 q 221 -162 208 -167 l 221 -287 m 40 765 l 40 933 l 221 933 l 221 765 l 40 765 z "},"İ":{"ha":260,"x_min":32,"x_max":228,"o":"m 32 0 m 32 0 l 32 922 l 225 922 l 225 0 l 32 0 m 47 1043 l 47 1215 l 228 1215 l 228 1043 l 47 1043 z "},"ı":{"ha":267,"x_min":40,"x_max":221,"o":"m 40 0 l 40 683 l 221 683 l 221 0 l 40 0 z "},"Ĳ":{"ha":890,"x_min":32,"x_max":853,"o":"m 32 0 m 32 0 l 32 922 l 225 922 l 225 0 l 32 0 m 660 922 l 853 922 l 853 249 q 776 45 853 122 q 550 -32 700 -32 q 340 40 415 -32 q 265 254 265 111 l 265 349 l 440 349 l 440 264 q 465 159 440 193 q 550 125 490 125 q 638 158 617 125 q 660 267 660 190 l 660 922 z "},"ĳ":{"ha":540,"x_min":-57,"x_max":488,"o":"m 0 0 m 40 0 l 40 683 l 221 683 l 221 0 l 40 0 m 40 765 l 40 933 l 221 933 l 221 765 l 40 765 m 306 683 l 488 683 l 488 -46 q 467 -159 488 -108 q 410 -247 446 -210 q 324 -303 374 -283 q 218 -324 275 -324 q 10 -247 78 -324 q -57 -37 -57 -169 l 113 -37 q 134 -130 113 -96 q 208 -164 156 -164 q 284 -131 263 -164 q 306 -39 306 -97 l 306 683 m 306 765 l 306 933 l 488 933 l 488 765 l 306 765 z "},"Ķ":{"ha":839,"x_min":32,"x_max":833,"o":"m 32 0 m 599 0 l 325 415 l 222 314 l 222 0 l 32 0 l 32 922 l 222 922 l 222 547 l 575 922 l 825 922 l 461 558 l 833 0 l 599 0 m 357 -264 q 446 -174 443 -257 l 357 -174 l 357 -60 l 517 -60 l 517 -135 q 509 -205 517 -172 q 483 -262 501 -237 q 434 -303 465 -287 q 357 -324 403 -319 l 357 -264 z "},"ķ":{"ha":671,"x_min":36,"x_max":664,"o":"m 36 0 m 456 0 l 306 307 l 218 217 l 218 0 l 36 0 l 36 933 l 218 933 l 218 424 l 443 683 l 664 683 l 435 432 l 658 0 l 456 0 m 261 -264 q 350 -174 347 -257 l 261 -174 l 261 -60 l 421 -60 l 421 -135 q 413 -205 421 -172 q 388 -262 406 -237 q 338 -303 369 -287 q 261 -324 307 -319 l 261 -264 z "},"Ĺ":{"ha":696,"x_min":7,"x_max":682,"o":"m 7 0 m 32 0 l 32 922 l 225 922 l 225 168 l 682 168 l 682 0 l 32 0 m 50 1008 l 7 1085 l 294 1253 l 360 1139 l 50 1008 z "},"ĺ":{"ha":257,"x_min":-4,"x_max":349,"o":"m 0 0 m 36 0 l 36 933 l 217 933 l 217 0 l 36 0 m 39 1008 l -4 1085 l 283 1253 l 349 1139 l 39 1008 z "},"Ļ":{"ha":696,"x_min":32,"x_max":682,"o":"m 32 0 m 32 0 l 32 922 l 225 922 l 225 168 l 682 168 l 682 0 l 32 0 m 293 -264 q 382 -174 379 -257 l 293 -174 l 293 -60 l 453 -60 l 453 -135 q 445 -205 453 -172 q 419 -262 438 -237 q 370 -303 401 -287 q 293 -324 339 -319 l 293 -264 z "},"ļ":{"ha":257,"x_min":36,"x_max":217,"o":"m 36 0 m 36 0 l 36 933 l 217 933 l 217 0 l 36 0 m 54 -264 q 143 -174 140 -257 l 54 -174 l 54 -60 l 214 -60 l 214 -135 q 206 -205 214 -172 q 181 -262 199 -237 q 131 -303 163 -287 q 54 -324 100 -319 l 54 -264 z "},"Ľ":{"ha":696,"x_min":32,"x_max":682,"o":"m 32 0 m 32 0 l 32 922 l 225 922 l 225 168 l 682 168 l 682 0 l 32 0 m 275 625 q 354 672 328 639 q 382 772 381 706 l 275 772 l 275 960 l 467 960 l 467 818 q 457 715 467 760 q 425 640 447 671 q 366 588 403 608 q 275 556 329 567 l 275 625 z "},"ľ":{"ha":444,"x_min":36,"x_max":444,"o":"m 36 0 m 36 0 l 36 933 l 217 933 l 217 0 l 36 0 m 253 622 q 332 669 306 636 q 360 769 358 703 l 253 769 l 253 957 l 444 957 l 444 815 q 435 713 444 757 q 403 637 425 668 q 344 585 381 606 q 253 553 307 564 l 253 622 z "},"Ł":{"ha":696,"x_min":32,"x_max":682,"o":"m 32 0 l 32 922 l 225 922 l 225 524 l 421 611 l 421 488 l 225 400 l 225 168 l 682 168 l 682 0 l 32 0 z "},"ł":{"ha":363,"x_min":0,"x_max":354,"o":"m 86 0 l 86 369 l 0 332 l 0 454 l 86 492 l 86 933 l 267 933 l 267 571 l 354 611 l 354 488 l 267 449 l 267 0 l 86 0 z "},"Ń":{"ha":821,"x_min":32,"x_max":783,"o":"m 32 0 m 606 0 l 211 619 l 211 0 l 32 0 l 32 922 l 236 922 l 603 329 l 603 922 l 783 922 l 783 0 l 606 0 m 319 1008 l 276 1085 l 564 1253 l 629 1139 l 319 1008 z "},"ń":{"ha":699,"x_min":36,"x_max":656,"o":"m 36 0 m 474 0 l 474 414 q 447 521 474 493 q 357 549 421 549 q 217 392 217 549 l 217 0 l 36 0 l 36 683 l 208 683 l 208 583 q 293 672 240 642 q 429 701 346 701 q 519 687 478 701 q 591 643 561 672 q 638 572 621 614 q 656 474 656 529 l 656 0 l 474 0 m 258 769 l 215 846 l 503 1014 l 568 900 l 258 769 z "},"Ņ":{"ha":821,"x_min":32,"x_max":783,"o":"m 32 0 m 606 0 l 211 619 l 211 0 l 32 0 l 32 922 l 236 922 l 603 329 l 603 922 l 783 922 l 783 0 l 606 0 m 346 -264 q 435 -174 432 -257 l 346 -174 l 346 -60 l 506 -60 l 506 -135 q 498 -205 506 -172 q 472 -262 490 -237 q 423 -303 454 -287 q 346 -324 392 -319 l 346 -264 z "},"ņ":{"ha":699,"x_min":36,"x_max":656,"o":"m 36 0 m 474 0 l 474 414 q 447 521 474 493 q 357 549 421 549 q 217 392 217 549 l 217 0 l 36 0 l 36 683 l 208 683 l 208 583 q 293 672 240 642 q 429 701 346 701 q 519 687 478 701 q 591 643 561 672 q 638 572 621 614 q 656 474 656 529 l 656 0 l 474 0 m 279 -264 q 368 -174 365 -257 l 279 -174 l 279 -60 l 439 -60 l 439 -135 q 431 -205 439 -172 q 406 -262 424 -237 q 356 -303 388 -287 q 279 -324 325 -319 l 279 -264 z "},"Ň":{"ha":821,"x_min":32,"x_max":783,"o":"m 32 0 m 606 0 l 211 619 l 211 0 l 32 0 l 32 922 l 236 922 l 603 329 l 603 922 l 783 922 l 783 0 l 606 0 m 349 1018 l 171 1204 l 235 1275 l 422 1111 l 610 1275 l 674 1204 l 496 1018 l 349 1018 z "},"ň":{"ha":699,"x_min":36,"x_max":656,"o":"m 36 0 m 474 0 l 474 414 q 447 521 474 493 q 357 549 421 549 q 217 392 217 549 l 217 0 l 36 0 l 36 683 l 208 683 l 208 583 q 293 672 240 642 q 429 701 346 701 q 519 687 478 701 q 591 643 561 672 q 638 572 621 614 q 656 474 656 529 l 656 0 l 474 0 m 303 779 l 125 965 l 189 1036 l 376 872 l 564 1036 l 628 965 l 450 779 l 303 779 z "},"Ŋ":{"ha":821,"x_min":32,"x_max":783,"o":"m 603 4 l 211 619 l 211 0 l 32 0 l 32 922 l 236 922 l 603 329 l 603 922 l 783 922 l 783 -46 q 763 -159 783 -108 q 706 -247 742 -210 q 620 -303 669 -283 q 514 -324 571 -324 q 497 -323 504 -324 q 481 -322 489 -322 l 481 -161 q 504 -164 494 -164 q 581 -131 558 -164 q 603 -39 603 -97 l 603 4 z "},"ŋ":{"ha":699,"x_min":36,"x_max":656,"o":"m 474 429 q 444 524 471 499 q 357 549 418 549 q 217 392 217 549 l 217 0 l 36 0 l 36 683 l 208 683 l 208 583 q 293 672 240 642 q 429 701 346 701 q 519 687 478 701 q 591 643 561 672 q 638 572 621 614 q 656 474 656 529 l 656 -46 q 635 -159 656 -108 q 578 -247 614 -210 q 492 -303 542 -283 q 386 -324 443 -324 q 370 -323 378 -324 q 356 -322 363 -322 l 356 -162 q 365 -163 360 -162 q 376 -164 369 -164 q 452 -131 431 -164 q 474 -39 474 -97 l 474 429 z "},"Ō":{"ha":931,"x_min":21,"x_max":904,"o":"m 21 0 m 464 133 q 561 152 515 133 q 641 209 607 171 q 694 307 675 247 q 714 449 714 367 q 650 697 714 613 q 464 782 586 782 q 276 697 342 782 q 211 449 211 613 q 277 209 211 285 q 464 133 343 133 m 464 -32 q 135 93 250 -32 q 21 453 21 218 q 50 663 21 569 q 136 820 79 756 q 275 919 193 885 q 464 953 357 953 q 652 919 569 953 q 790 819 735 885 q 875 660 846 754 q 904 449 904 567 q 791 89 904 210 q 464 -32 678 -32 m 203 1075 l 203 1201 l 732 1201 l 732 1075 l 203 1075 z "},"ō":{"ha":749,"x_min":21,"x_max":719,"o":"m 21 0 m 372 133 q 538 342 538 133 q 372 549 538 549 q 207 342 207 549 q 372 133 207 133 m 372 -18 q 224 8 289 -18 q 113 82 158 35 q 44 196 68 129 q 21 342 21 263 q 45 489 21 422 q 115 603 69 556 q 226 676 161 650 q 372 701 290 701 q 517 676 453 701 q 626 603 581 650 q 695 490 671 557 q 719 342 719 424 q 695 194 719 260 q 626 81 671 128 q 516 8 581 33 q 372 -18 451 -18 m 111 836 l 111 963 l 640 963 l 640 836 l 111 836 z "},"Ŏ":{"ha":931,"x_min":21,"x_max":904,"o":"m 21 0 m 464 133 q 561 152 515 133 q 641 209 607 171 q 694 307 675 247 q 714 449 714 367 q 650 697 714 613 q 464 782 586 782 q 276 697 342 782 q 211 449 211 613 q 277 209 211 285 q 464 133 343 133 m 464 -32 q 135 93 250 -32 q 21 453 21 218 q 50 663 21 569 q 136 820 79 756 q 275 919 193 885 q 464 953 357 953 q 652 919 569 953 q 790 819 735 885 q 875 660 846 754 q 904 449 904 567 q 791 89 904 210 q 464 -32 678 -32 m 692 1275 q 673 1174 692 1217 q 623 1102 654 1131 q 551 1059 592 1074 q 467 1044 510 1044 q 383 1059 424 1044 q 310 1102 342 1074 q 260 1174 279 1131 q 242 1275 242 1217 l 356 1275 q 387 1185 358 1217 q 467 1154 415 1154 q 547 1185 518 1154 q 578 1275 575 1217 l 692 1275 z "},"ŏ":{"ha":749,"x_min":21,"x_max":719,"o":"m 21 0 m 372 133 q 538 342 538 133 q 372 549 538 549 q 207 342 207 549 q 372 133 207 133 m 372 -18 q 224 8 289 -18 q 113 82 158 35 q 44 196 68 129 q 21 342 21 263 q 45 489 21 422 q 115 603 69 556 q 226 676 161 650 q 372 701 290 701 q 517 676 453 701 q 626 603 581 650 q 695 490 671 557 q 719 342 719 424 q 695 194 719 260 q 626 81 671 128 q 516 8 581 33 q 372 -18 451 -18 m 601 1036 q 583 935 601 978 q 533 863 564 892 q 460 820 501 835 q 376 806 419 806 q 292 820 333 806 q 220 863 251 835 q 170 935 189 892 q 151 1036 151 978 l 265 1036 q 297 947 268 978 q 376 915 325 915 q 456 947 428 915 q 488 1036 485 978 l 601 1036 z "},"Ő":{"ha":931,"x_min":21,"x_max":904,"o":"m 21 0 m 464 133 q 561 152 515 133 q 641 209 607 171 q 694 307 675 247 q 714 449 714 367 q 650 697 714 613 q 464 782 586 782 q 276 697 342 782 q 211 449 211 613 q 277 209 211 285 q 464 133 343 133 m 464 -32 q 135 93 250 -32 q 21 453 21 218 q 50 663 21 569 q 136 820 79 756 q 275 919 193 885 q 464 953 357 953 q 652 919 569 953 q 790 819 735 885 q 875 660 846 754 q 904 449 904 567 q 791 89 904 210 q 464 -32 678 -32 m 311 1075 l 500 1279 l 561 1228 l 363 1029 l 311 1075 m 529 1029 l 478 1075 l 675 1275 l 738 1224 l 529 1029 z "},"ő":{"ha":749,"x_min":21,"x_max":719,"o":"m 21 0 m 372 133 q 538 342 538 133 q 372 549 538 549 q 207 342 207 549 q 372 133 207 133 m 372 -18 q 224 8 289 -18 q 113 82 158 35 q 44 196 68 129 q 21 342 21 263 q 45 489 21 422 q 115 603 69 556 q 226 676 161 650 q 372 701 290 701 q 517 676 453 701 q 626 603 581 650 q 695 490 671 557 q 719 342 719 424 q 695 194 719 260 q 626 81 671 128 q 516 8 581 33 q 372 -18 451 -18 m 210 836 l 399 1040 l 460 989 l 261 790 l 210 836 m 428 790 l 376 836 l 574 1036 l 636 985 l 428 790 z "},"Œ":{"ha":1339,"x_min":21,"x_max":1418,"o":"m 717 0 l 717 33 q 607 -15 668 1 q 475 -32 546 -32 q 281 3 365 -32 q 138 106 196 39 q 51 268 81 172 q 21 485 21 364 q 53 674 21 588 q 143 822 85 760 q 283 918 201 883 q 465 953 365 953 q 601 933 538 953 q 717 876 664 913 l 717 922 l 1394 922 l 1394 761 l 904 761 l 904 564 l 1356 564 l 1356 401 l 904 401 l 904 164 l 1418 164 l 1418 0 l 717 0 m 479 133 q 574 156 531 133 q 649 221 618 179 q 697 319 679 263 q 714 444 714 376 q 458 782 714 782 q 356 759 401 782 q 278 694 310 736 q 228 596 246 653 q 211 472 211 539 q 231 340 211 401 q 285 232 250 278 q 370 160 321 186 q 479 133 419 133 z "},"œ":{"ha":1204,"x_min":21,"x_max":1175,"o":"m 704 294 q 749 171 708 217 q 857 125 790 125 q 935 145 901 125 q 979 201 969 165 l 1165 201 q 1054 39 1133 96 q 865 -18 975 -18 q 614 69 699 -18 q 372 -18 522 -18 q 224 8 289 -18 q 113 82 158 35 q 44 196 68 129 q 21 342 21 263 q 45 489 21 422 q 115 603 69 556 q 226 676 161 650 q 372 701 290 701 q 510 678 449 701 q 615 613 571 656 q 718 678 658 656 q 854 701 778 701 q 1094 600 1013 701 q 1175 294 1175 499 l 704 294 m 372 133 q 538 342 538 133 q 372 549 538 549 q 207 342 207 549 q 372 133 207 133 m 989 408 q 976 474 988 446 q 944 522 964 503 q 900 549 925 540 q 849 558 875 558 q 755 519 794 558 q 710 408 715 479 l 989 408 z "},"Ŕ":{"ha":803,"x_min":32,"x_max":783,"o":"m 32 0 m 219 763 l 219 517 l 461 517 q 571 551 539 517 q 603 639 603 586 q 572 728 603 693 q 468 763 540 763 l 219 763 m 569 0 l 569 238 q 539 333 569 304 q 425 361 508 361 l 219 361 l 219 0 l 32 0 l 32 922 l 500 922 q 616 902 564 922 q 706 847 668 882 q 763 762 743 811 q 783 656 783 713 q 748 523 783 581 q 646 442 713 465 q 733 382 707 422 q 758 261 758 342 l 758 0 l 569 0 m 311 1008 l 268 1085 l 556 1253 l 621 1139 l 311 1008 z "},"ŕ":{"ha":446,"x_min":36,"x_max":457,"o":"m 36 0 m 36 0 l 36 683 l 206 683 l 206 601 q 252 656 228 636 q 302 685 276 675 q 354 699 328 696 q 408 701 381 701 l 432 701 l 432 517 q 382 521 407 521 q 217 356 217 521 l 217 0 l 36 0 m 147 769 l 104 846 l 392 1014 l 457 900 l 147 769 z "},"Ŗ":{"ha":803,"x_min":32,"x_max":783,"o":"m 32 0 m 219 763 l 219 517 l 461 517 q 571 551 539 517 q 603 639 603 586 q 572 728 603 693 q 468 763 540 763 l 219 763 m 569 0 l 569 238 q 539 333 569 304 q 425 361 508 361 l 219 361 l 219 0 l 32 0 l 32 922 l 500 922 q 616 902 564 922 q 706 847 668 882 q 763 762 743 811 q 783 656 783 713 q 748 523 783 581 q 646 442 713 465 q 733 382 707 422 q 758 261 758 342 l 758 0 l 569 0 m 326 -264 q 415 -174 413 -257 l 326 -174 l 326 -60 l 486 -60 l 486 -135 q 478 -205 486 -172 q 453 -262 471 -237 q 403 -303 435 -287 q 326 -324 372 -319 l 326 -264 z "},"ŗ":{"ha":446,"x_min":36,"x_max":432,"o":"m 36 0 m 36 0 l 36 683 l 206 683 l 206 601 q 252 656 228 636 q 302 685 276 675 q 354 699 328 696 q 408 701 381 701 l 432 701 l 432 517 q 382 521 407 521 q 217 356 217 521 l 217 0 l 36 0 m 56 -264 q 144 -174 142 -257 l 56 -174 l 56 -60 l 215 -60 l 215 -135 q 208 -205 215 -172 q 182 -262 200 -237 q 133 -303 164 -287 q 56 -324 101 -319 l 56 -264 z "},"Ř":{"ha":803,"x_min":32,"x_max":783,"o":"m 32 0 m 219 763 l 219 517 l 461 517 q 571 551 539 517 q 603 639 603 586 q 572 728 603 693 q 468 763 540 763 l 219 763 m 569 0 l 569 238 q 539 333 569 304 q 425 361 508 361 l 219 361 l 219 0 l 32 0 l 32 922 l 500 922 q 616 902 564 922 q 706 847 668 882 q 763 762 743 811 q 783 656 783 713 q 748 523 783 581 q 646 442 713 465 q 733 382 707 422 q 758 261 758 342 l 758 0 l 569 0 m 304 1018 l 126 1204 l 190 1275 l 378 1111 l 565 1275 l 629 1204 l 451 1018 l 304 1018 z "},"ř":{"ha":446,"x_min":-26,"x_max":476,"o":"m 0 0 m 36 0 l 36 683 l 206 683 l 206 601 q 252 656 228 636 q 302 685 276 675 q 354 699 328 696 q 408 701 381 701 l 432 701 l 432 517 q 382 521 407 521 q 217 356 217 521 l 217 0 l 36 0 m 151 779 l -26 965 l 38 1036 l 225 872 l 413 1036 l 476 965 l 299 779 l 151 779 z "},"Ś":{"ha":782,"x_min":8,"x_max":767,"o":"m 8 0 m 554 650 q 503 756 547 721 q 371 790 458 790 q 247 763 289 790 q 206 682 206 735 q 238 611 206 638 q 349 565 271 585 q 499 527 428 546 q 622 485 571 508 q 679 453 653 471 q 725 408 706 435 q 756 346 744 382 q 767 261 767 310 q 740 130 767 185 q 663 39 713 75 q 547 -15 614 3 q 399 -32 479 -32 q 242 -13 313 -32 q 119 44 171 6 q 39 141 68 83 q 8 276 10 199 l 194 276 q 252 165 197 206 q 400 124 307 124 q 533 158 486 124 q 579 254 579 192 q 573 292 579 275 q 551 323 567 308 q 507 349 535 338 q 436 371 479 361 q 291 405 350 390 q 183 442 232 419 q 69 528 108 475 q 29 669 29 582 q 50 784 29 732 q 113 874 71 836 q 219 932 156 911 q 367 953 282 953 q 522 931 454 953 q 637 868 590 908 q 709 772 683 828 q 738 650 735 717 l 554 650 m 300 1008 l 257 1085 l 544 1253 l 610 1139 l 300 1008 z "},"ś":{"ha":656,"x_min":13,"x_max":640,"o":"m 13 0 m 447 476 q 411 547 440 526 q 319 567 382 567 q 240 553 268 567 q 213 510 213 540 q 240 463 213 479 q 324 432 268 447 q 435 402 382 415 q 528 374 488 389 q 611 313 582 351 q 640 208 640 275 q 565 42 640 101 q 342 -18 489 -18 q 99 49 183 -18 q 13 219 15 115 l 199 219 q 236 144 199 171 q 340 118 274 118 q 425 134 389 118 q 461 189 461 150 q 428 240 461 225 q 351 267 396 256 q 213 304 265 288 q 124 344 160 321 q 56 414 75 375 q 38 499 38 453 q 53 579 38 542 q 103 644 68 617 q 192 686 138 671 q 325 701 247 701 q 544 644 474 701 q 621 476 614 588 l 447 476 m 238 769 l 194 846 l 482 1014 l 547 900 l 238 769 z "},"Ş":{"ha":782,"x_min":8,"x_max":767,"o":"m 8 0 m 554 650 q 503 756 547 721 q 371 790 458 790 q 247 763 289 790 q 206 682 206 735 q 238 611 206 638 q 349 565 271 585 q 499 527 428 546 q 622 485 571 508 q 679 453 653 471 q 725 408 706 435 q 756 346 744 382 q 767 261 767 310 q 740 130 767 185 q 663 39 713 75 q 547 -15 614 3 q 399 -32 479 -32 q 242 -13 313 -32 q 119 44 171 6 q 39 141 68 83 q 8 276 10 199 l 194 276 q 252 165 197 206 q 400 124 307 124 q 533 158 486 124 q 579 254 579 192 q 573 292 579 275 q 551 323 567 308 q 507 349 535 338 q 436 371 479 361 q 291 405 350 390 q 183 442 232 419 q 69 528 108 475 q 29 669 29 582 q 50 784 29 732 q 113 874 71 836 q 219 932 156 911 q 367 953 282 953 q 522 931 454 953 q 637 868 590 908 q 709 772 683 828 q 738 650 735 717 l 554 650 m 317 -264 q 406 -174 403 -257 l 317 -174 l 317 -60 l 476 -60 l 476 -135 q 469 -205 476 -172 q 443 -262 461 -237 q 394 -303 425 -287 q 317 -324 363 -319 l 317 -264 z "},"ş":{"ha":656,"x_min":13,"x_max":640,"o":"m 13 0 m 447 476 q 411 547 440 526 q 319 567 382 567 q 240 553 268 567 q 213 510 213 540 q 240 463 213 479 q 324 432 268 447 q 435 402 382 415 q 528 374 488 389 q 611 313 582 351 q 640 208 640 275 q 565 42 640 101 q 342 -18 489 -18 q 99 49 183 -18 q 13 219 15 115 l 199 219 q 236 144 199 171 q 340 118 274 118 q 425 134 389 118 q 461 189 461 150 q 428 240 461 225 q 351 267 396 256 q 213 304 265 288 q 124 344 160 321 q 56 414 75 375 q 38 499 38 453 q 53 579 38 542 q 103 644 68 617 q 192 686 138 671 q 325 701 247 701 q 544 644 474 701 q 621 476 614 588 l 447 476 m 268 -264 q 357 -174 354 -257 l 268 -174 l 268 -60 l 428 -60 l 428 -135 q 420 -205 428 -172 q 394 -262 413 -237 q 345 -303 376 -287 q 268 -324 314 -319 l 268 -264 z "},"Š":{"ha":782,"x_min":8,"x_max":767,"o":"m 8 0 m 554 650 q 503 756 547 721 q 371 790 458 790 q 247 763 289 790 q 206 682 206 735 q 238 611 206 638 q 349 565 271 585 q 499 527 428 546 q 622 485 571 508 q 679 453 653 471 q 725 408 706 435 q 756 346 744 382 q 767 261 767 310 q 740 130 767 185 q 663 39 713 75 q 547 -15 614 3 q 399 -32 479 -32 q 242 -13 313 -32 q 119 44 171 6 q 39 141 68 83 q 8 276 10 199 l 194 276 q 252 165 197 206 q 400 124 307 124 q 533 158 486 124 q 579 254 579 192 q 573 292 579 275 q 551 323 567 308 q 507 349 535 338 q 436 371 479 361 q 291 405 350 390 q 183 442 232 419 q 69 528 108 475 q 29 669 29 582 q 50 784 29 732 q 113 874 71 836 q 219 932 156 911 q 367 953 282 953 q 522 931 454 953 q 637 868 590 908 q 709 772 683 828 q 738 650 735 717 l 554 650 m 310 1018 l 132 1204 l 196 1275 l 383 1111 l 571 1275 l 635 1204 l 457 1018 l 310 1018 z "},"š":{"ha":656,"x_min":13,"x_max":640,"o":"m 13 0 m 447 476 q 411 547 440 526 q 319 567 382 567 q 240 553 268 567 q 213 510 213 540 q 240 463 213 479 q 324 432 268 447 q 435 402 382 415 q 528 374 488 389 q 611 313 582 351 q 640 208 640 275 q 565 42 640 101 q 342 -18 489 -18 q 99 49 183 -18 q 13 219 15 115 l 199 219 q 236 144 199 171 q 340 118 274 118 q 425 134 389 118 q 461 189 461 150 q 428 240 461 225 q 351 267 396 256 q 213 304 265 288 q 124 344 160 321 q 56 414 75 375 q 38 499 38 453 q 53 579 38 542 q 103 644 68 617 q 192 686 138 671 q 325 701 247 701 q 544 644 474 701 q 621 476 614 588 l 447 476 m 257 779 l 79 965 l 143 1036 l 331 872 l 518 1036 l 582 965 l 404 779 l 257 779 z "},"Ţ":{"ha":769,"x_min":6,"x_max":756,"o":"m 6 0 m 283 0 l 283 761 l 6 761 l 6 922 l 756 922 l 756 761 l 476 761 l 476 0 l 283 0 m 310 -264 q 399 -174 396 -257 l 310 -174 l 310 -60 l 469 -60 l 469 -135 q 462 -205 469 -172 q 436 -262 454 -237 q 387 -303 418 -287 q 310 -324 356 -319 l 310 -264 z "},"ţ":{"ha":629,"x_min":36,"x_max":592,"o":"m 36 0 m 424 450 l 592 450 l 592 256 q 576 152 592 201 q 526 65 560 103 q 440 4 492 26 q 315 -18 388 -18 q 188 4 240 -18 q 101 64 135 26 q 51 151 67 101 q 36 257 36 201 l 36 868 l 214 868 l 214 683 l 592 683 l 592 556 l 214 556 l 214 275 q 238 174 214 210 q 318 139 263 139 q 398 174 372 139 q 424 272 424 208 l 424 450 m 240 -264 q 329 -174 326 -257 l 240 -174 l 240 -60 l 400 -60 l 400 -135 q 392 -205 400 -172 q 367 -262 385 -237 q 317 -303 349 -287 q 240 -324 286 -319 l 240 -264 z "},"Ť":{"ha":769,"x_min":6,"x_max":756,"o":"m 6 0 m 283 0 l 283 761 l 6 761 l 6 922 l 756 922 l 756 761 l 476 761 l 476 0 l 283 0 m 313 1018 l 135 1204 l 199 1275 l 386 1111 l 574 1275 l 638 1204 l 460 1018 l 313 1018 z "},"ť":{"ha":806,"x_min":36,"x_max":807,"o":"m 36 0 m 424 450 l 592 450 l 592 256 q 576 152 592 201 q 526 65 560 103 q 440 4 492 26 q 315 -18 388 -18 q 188 4 240 -18 q 101 64 135 26 q 51 151 67 101 q 36 257 36 201 l 36 868 l 214 868 l 214 683 l 592 683 l 592 556 l 214 556 l 214 275 q 238 174 214 210 q 318 139 263 139 q 398 174 372 139 q 424 272 424 208 l 424 450 m 615 625 q 694 672 668 639 q 722 772 721 706 l 615 772 l 615 960 l 807 960 l 807 818 q 797 715 807 760 q 765 640 788 671 q 706 588 743 608 q 615 556 669 567 l 615 625 z "},"Ŧ":{"ha":769,"x_min":6,"x_max":756,"o":"m 283 0 l 283 344 l 153 344 l 153 485 l 283 485 l 283 761 l 6 761 l 6 922 l 756 922 l 756 761 l 476 761 l 476 485 l 608 485 l 608 344 l 476 344 l 476 0 l 283 0 z "},"ŧ":{"ha":629,"x_min":36,"x_max":592,"o":"m 214 363 l 214 275 q 238 174 214 210 q 318 139 263 139 q 398 174 372 139 q 424 272 424 208 l 424 297 l 592 297 l 592 256 q 576 152 592 201 q 526 65 560 103 q 440 4 492 26 q 315 -18 388 -18 q 188 4 240 -18 q 101 64 135 26 q 51 151 67 101 q 36 257 36 201 l 36 868 l 214 868 l 214 683 l 592 683 l 592 556 l 214 556 l 214 483 l 582 483 l 582 363 l 214 363 z "},"Ũ":{"ha":814,"x_min":32,"x_max":775,"o":"m 32 0 m 578 922 l 775 922 l 775 307 q 676 53 775 139 q 396 -32 578 -32 q 130 49 228 -32 q 32 296 32 129 l 32 922 l 228 922 l 228 314 q 271 178 228 228 q 393 128 314 128 q 578 307 578 128 l 578 922 m 649 1175 q 583 1069 625 1100 q 497 1039 542 1039 q 448 1049 471 1039 q 404 1070 425 1058 q 363 1092 383 1082 q 319 1101 342 1101 q 294 1090 311 1101 q 265 1040 278 1079 l 169 1092 q 226 1187 192 1160 q 304 1214 261 1214 q 361 1203 336 1214 q 408 1181 386 1193 q 450 1158 431 1168 q 489 1147 469 1147 q 519 1162 501 1147 q 544 1213 538 1176 l 649 1175 z "},"ũ":{"ha":694,"x_min":36,"x_max":651,"o":"m 36 0 m 481 0 l 481 96 q 268 -18 411 -18 q 174 0 217 -18 q 101 51 132 18 q 53 131 71 85 q 36 233 36 176 l 36 683 l 217 683 l 217 261 q 332 133 217 133 q 437 177 401 133 q 472 289 472 221 l 472 683 l 651 683 l 651 0 l 481 0 m 600 936 q 535 831 576 861 q 449 800 493 800 q 399 810 422 800 q 356 831 376 819 q 314 853 335 843 q 271 863 293 863 q 246 851 263 863 q 217 801 229 840 l 121 853 q 178 948 143 921 q 256 975 213 975 q 313 965 288 975 q 360 942 338 954 q 401 919 382 929 q 440 908 421 908 q 471 923 453 908 q 496 974 489 938 l 600 936 z "},"Ū":{"ha":814,"x_min":32,"x_max":775,"o":"m 32 0 m 578 922 l 775 922 l 775 307 q 676 53 775 139 q 396 -32 578 -32 q 130 49 228 -32 q 32 296 32 129 l 32 922 l 228 922 l 228 314 q 271 178 228 228 q 393 128 314 128 q 578 307 578 128 l 578 922 m 144 1075 l 144 1201 l 674 1201 l 674 1075 l 144 1075 z "},"ū":{"ha":694,"x_min":36,"x_max":651,"o":"m 36 0 m 481 0 l 481 96 q 268 -18 411 -18 q 174 0 217 -18 q 101 51 132 18 q 53 131 71 85 q 36 233 36 176 l 36 683 l 217 683 l 217 261 q 332 133 217 133 q 437 177 401 133 q 472 289 472 221 l 472 683 l 651 683 l 651 0 l 481 0 m 85 836 l 85 963 l 614 963 l 614 836 l 85 836 z "},"Ŭ":{"ha":814,"x_min":32,"x_max":775,"o":"m 32 0 m 578 922 l 775 922 l 775 307 q 676 53 775 139 q 396 -32 578 -32 q 130 49 228 -32 q 32 296 32 129 l 32 922 l 228 922 l 228 314 q 271 178 228 228 q 393 128 314 128 q 578 307 578 128 l 578 922 m 633 1275 q 615 1174 633 1217 q 565 1102 596 1131 q 492 1059 533 1074 q 408 1044 451 1044 q 324 1059 365 1044 q 252 1102 283 1074 q 202 1174 221 1131 q 183 1275 183 1217 l 297 1275 q 328 1185 300 1217 q 408 1154 357 1154 q 488 1185 460 1154 q 519 1275 517 1217 l 633 1275 z "},"ŭ":{"ha":694,"x_min":36,"x_max":651,"o":"m 36 0 m 481 0 l 481 96 q 268 -18 411 -18 q 174 0 217 -18 q 101 51 132 18 q 53 131 71 85 q 36 233 36 176 l 36 683 l 217 683 l 217 261 q 332 133 217 133 q 437 177 401 133 q 472 289 472 221 l 472 683 l 651 683 l 651 0 l 481 0 m 574 1036 q 555 935 574 978 q 505 863 536 892 q 433 820 474 835 q 349 806 392 806 q 265 820 306 806 q 192 863 224 835 q 142 935 161 892 q 124 1036 124 978 l 238 1036 q 269 947 240 978 q 349 915 297 915 q 428 947 400 915 q 460 1036 457 978 l 574 1036 z "},"Ů":{"ha":814,"x_min":32,"x_max":775,"o":"m 32 0 m 578 922 l 775 922 l 775 307 q 676 53 775 139 q 396 -32 578 -32 q 130 49 228 -32 q 32 296 32 129 l 32 922 l 228 922 l 228 314 q 271 178 228 228 q 393 128 314 128 q 578 307 578 128 l 578 922 m 553 1142 q 519 1042 553 1076 q 408 1008 486 1008 q 264 1142 264 1008 q 299 1240 264 1206 q 408 1275 335 1275 q 519 1240 486 1275 q 553 1142 553 1206 m 481 1142 q 408 1213 481 1213 q 339 1142 339 1213 q 408 1074 339 1074 q 481 1142 481 1074 z "},"ů":{"ha":694,"x_min":36,"x_max":651,"o":"m 36 0 m 481 0 l 481 96 q 268 -18 411 -18 q 174 0 217 -18 q 101 51 132 18 q 53 131 71 85 q 36 233 36 176 l 36 683 l 217 683 l 217 261 q 332 133 217 133 q 437 177 401 133 q 472 289 472 221 l 472 683 l 651 683 l 651 0 l 481 0 m 493 903 q 460 803 493 838 q 349 769 426 769 q 204 903 204 769 q 240 1001 204 967 q 349 1036 275 1036 q 460 1001 426 1036 q 493 903 493 967 m 421 903 q 349 974 421 974 q 279 903 279 974 q 349 835 279 835 q 421 903 421 835 z "},"Ű":{"ha":814,"x_min":32,"x_max":775,"o":"m 32 0 m 578 922 l 775 922 l 775 307 q 676 53 775 139 q 396 -32 578 -32 q 130 49 228 -32 q 32 296 32 129 l 32 922 l 228 922 l 228 314 q 271 178 228 228 q 393 128 314 128 q 578 307 578 128 l 578 922 m 242 1075 l 431 1279 l 492 1228 l 293 1029 l 242 1075 m 460 1029 l 408 1075 l 606 1275 l 668 1224 l 460 1029 z "},"ű":{"ha":694,"x_min":36,"x_max":651,"o":"m 36 0 m 481 0 l 481 96 q 268 -18 411 -18 q 174 0 217 -18 q 101 51 132 18 q 53 131 71 85 q 36 233 36 176 l 36 683 l 217 683 l 217 261 q 332 133 217 133 q 437 177 401 133 q 472 289 472 221 l 472 683 l 651 683 l 651 0 l 481 0 m 182 836 l 371 1040 l 432 989 l 233 790 l 182 836 m 400 790 l 349 836 l 546 1036 l 608 985 l 400 790 z "},"Ų":{"ha":814,"x_min":32,"x_max":775,"o":"m 586 -287 q 532 -313 567 -303 q 440 -324 497 -324 q 326 -292 365 -324 q 288 -206 288 -260 q 329 -107 288 -151 q 444 -29 371 -62 q 421 -31 433 -31 q 396 -32 408 -32 q 130 49 228 -32 q 32 296 32 129 l 32 922 l 228 922 l 228 314 q 271 178 228 228 q 393 128 314 128 q 578 307 578 128 l 578 922 l 775 922 l 775 307 q 726 111 775 188 q 582 -1 676 35 q 500 -42 531 -25 q 454 -74 469 -60 q 434 -101 439 -87 q 429 -128 429 -114 q 453 -162 429 -151 q 518 -174 478 -174 q 556 -170 538 -174 q 586 -162 574 -167 l 586 -287 z "},"ų":{"ha":694,"x_min":36,"x_max":651,"o":"m 651 -287 q 597 -313 632 -303 q 506 -324 563 -324 q 392 -292 431 -324 q 353 -206 353 -260 q 418 -85 353 -137 q 592 0 483 -33 l 481 0 l 481 96 q 268 -18 411 -18 q 174 0 217 -18 q 101 51 132 18 q 53 131 71 85 q 36 233 36 176 l 36 683 l 217 683 l 217 261 q 332 133 217 133 q 437 177 401 133 q 472 289 472 221 l 472 683 l 651 683 l 651 0 q 567 -41 599 -24 q 520 -73 536 -58 q 499 -101 504 -87 q 494 -128 494 -114 q 519 -162 494 -151 q 583 -174 543 -174 q 621 -170 603 -174 q 651 -162 639 -167 l 651 -287 z "},"Ŵ":{"ha":1189,"x_min":4,"x_max":1179,"o":"m 4 0 m 735 0 l 592 600 l 446 0 l 265 0 l 4 922 l 210 922 l 361 325 l 489 922 l 692 922 l 832 325 l 982 922 l 1179 922 l 921 0 l 735 0 m 596 1182 l 408 1018 l 344 1089 l 522 1275 l 669 1275 l 847 1089 l 783 1018 l 596 1182 z "},"ŵ":{"ha":992,"x_min":4,"x_max":981,"o":"m 4 0 m 600 0 l 492 397 l 383 0 l 199 0 l 4 683 l 194 683 l 306 244 l 400 683 l 583 683 l 690 244 l 794 683 l 981 683 l 785 0 l 600 0 m 497 943 l 310 779 l 246 850 l 424 1036 l 571 1036 l 749 850 l 685 779 l 497 943 z "},"Ŷ":{"ha":836,"x_min":4,"x_max":825,"o":"m 4 0 m 324 0 l 324 349 l 4 922 l 229 922 l 424 547 l 603 922 l 825 922 l 517 346 l 517 0 l 324 0 m 431 1182 l 243 1018 l 179 1089 l 357 1275 l 504 1275 l 682 1089 l 618 1018 l 431 1182 z "},"ŷ":{"ha":697,"x_min":36,"x_max":651,"o":"m 36 0 m 471 90 q 401 19 451 44 q 286 -7 350 -7 q 186 10 232 -7 q 107 60 140 28 q 55 138 74 93 q 36 240 36 183 l 36 683 l 217 683 l 217 267 q 332 139 217 139 q 433 175 394 139 q 471 267 471 211 l 471 683 l 651 683 l 651 -18 q 627 -147 651 -90 q 560 -243 603 -204 q 460 -303 518 -282 q 338 -324 403 -324 q 111 -247 186 -324 q 36 -37 36 -171 l 204 -37 q 240 -133 204 -99 q 346 -168 275 -168 q 393 -158 371 -168 q 433 -128 415 -147 q 460 -82 450 -110 q 471 -21 471 -54 l 471 90 m 350 943 l 163 779 l 99 850 l 276 1036 l 424 1036 l 601 850 l 538 779 l 350 943 z "},"Ÿ":{"ha":836,"x_min":4,"x_max":825,"o":"m 4 0 m 324 0 l 324 349 l 4 922 l 229 922 l 424 547 l 603 922 l 825 922 l 517 346 l 517 0 l 324 0 m 194 1043 l 194 1215 l 375 1215 l 375 1043 l 194 1043 m 472 1043 l 472 1215 l 653 1215 l 653 1043 l 472 1043 z "},"Ź":{"ha":739,"x_min":6,"x_max":726,"o":"m 6 0 m 6 0 l 6 164 l 485 761 l 19 761 l 19 922 l 726 922 l 726 771 l 244 164 l 726 164 l 726 0 l 6 0 m 279 1008 l 236 1085 l 524 1253 l 589 1139 l 279 1008 z "},"ź":{"ha":618,"x_min":13,"x_max":601,"o":"m 13 0 m 13 0 l 13 139 l 361 540 l 36 540 l 36 683 l 592 683 l 592 538 l 243 147 l 601 147 l 601 0 l 13 0 m 219 769 l 176 846 l 464 1014 l 529 900 l 219 769 z "},"Ż":{"ha":739,"x_min":6,"x_max":726,"o":"m 6 0 m 6 0 l 6 164 l 485 761 l 19 761 l 19 922 l 726 922 l 726 771 l 244 164 l 726 164 l 726 0 l 6 0 m 288 1043 l 288 1215 l 468 1215 l 468 1043 l 288 1043 z "},"ż":{"ha":618,"x_min":13,"x_max":601,"o":"m 13 0 m 13 0 l 13 139 l 361 540 l 36 540 l 36 683 l 592 683 l 592 538 l 243 147 l 601 147 l 601 0 l 13 0 m 226 804 l 226 976 l 407 976 l 407 804 l 226 804 z "},"Ž":{"ha":739,"x_min":6,"x_max":726,"o":"m 6 0 m 6 0 l 6 164 l 485 761 l 19 761 l 19 922 l 726 922 l 726 771 l 244 164 l 726 164 l 726 0 l 6 0 m 299 1018 l 121 1204 l 185 1275 l 372 1111 l 560 1275 l 624 1204 l 446 1018 l 299 1018 z "},"ž":{"ha":618,"x_min":13,"x_max":601,"o":"m 13 0 m 13 0 l 13 139 l 361 540 l 36 540 l 36 683 l 592 683 l 592 538 l 243 147 l 601 147 l 601 0 l 13 0 m 238 779 l 60 965 l 124 1036 l 311 872 l 499 1036 l 563 965 l 385 779 l 238 779 z "},"Ǝ":{"ha":739,"x_min":4,"x_max":701,"o":"m 4 0 l 4 160 l 519 160 l 519 403 l 65 403 l 65 563 l 519 563 l 519 765 l 26 765 l 26 922 l 701 922 l 701 0 l 4 0 z "},"Ə":{"ha":931,"x_min":35,"x_max":906,"o":"m 469 -32 q 267 6 350 -32 q 132 113 183 44 q 58 276 81 182 q 35 483 35 371 q 35 503 35 493 q 36 525 35 514 l 719 525 q 645 721 708 656 q 471 786 582 786 q 328 745 383 786 q 246 624 274 704 l 50 624 q 190 867 86 781 q 467 953 294 953 q 654 919 572 953 q 792 820 736 885 q 877 662 849 756 q 906 450 906 568 q 792 89 906 210 q 469 -32 678 -32 m 467 129 q 564 144 519 129 q 642 192 608 160 q 695 272 675 224 q 719 389 715 321 l 213 389 q 294 191 226 253 q 467 129 363 129 z "},"ƒ":{"ha":747,"x_min":31,"x_max":708,"o":"m 31 -240 l 31 -85 l 131 -85 q 190 -58 167 -85 q 221 26 213 -32 l 290 506 l 193 506 l 193 646 l 310 646 l 315 679 q 354 799 325 750 q 425 877 383 847 q 519 920 467 907 q 629 933 572 933 l 708 933 l 708 778 l 607 778 q 548 751 571 778 q 517 667 525 725 l 514 646 l 635 646 l 635 506 l 493 506 l 422 14 q 383 -106 411 -57 q 313 -184 354 -154 q 218 -227 271 -214 q 108 -240 165 -240 l 31 -240 z "},"Ɣ":{"ha":824,"x_min":8,"x_max":813,"o":"m 411 -324 q 254 -282 306 -324 q 203 -133 203 -240 q 206 -90 203 -114 q 222 -24 210 -65 q 259 82 235 18 q 325 246 283 146 l 8 922 l 210 922 l 411 447 l 613 922 l 813 922 l 496 247 q 563 83 539 147 q 600 -23 588 18 q 615 -88 613 -64 q 618 -132 618 -112 q 567 -281 618 -239 q 411 -324 517 -324 m 411 64 q 377 -12 390 21 q 356 -69 364 -44 q 344 -115 347 -94 q 340 -151 340 -135 q 357 -210 340 -190 q 411 -229 374 -229 q 465 -210 449 -229 q 481 -151 481 -190 q 477 -115 481 -135 q 466 -70 474 -96 q 445 -12 458 -44 q 411 64 432 21 z "},"Ɲ":{"ha":821,"x_min":-112,"x_max":786,"o":"m 611 0 l 211 628 l 211 -46 q 190 -159 211 -108 q 133 -247 169 -210 q 48 -303 97 -283 q -60 -324 -1 -324 q -112 -319 -87 -324 l -112 -154 q -65 -167 -96 -167 q 12 -132 -12 -167 q 36 -39 36 -97 l 36 922 l 236 922 l 610 321 l 610 922 l 786 922 l 786 0 l 611 0 z "},"Ơ":{"ha":1068,"x_min":21,"x_max":1074,"o":"m 1044 975 q 1066 930 1058 960 q 1074 867 1074 900 q 1038 753 1074 788 q 946 718 1003 718 q 843 739 897 718 q 904 449 904 621 q 791 89 904 210 q 464 -32 678 -32 q 135 93 250 -32 q 21 453 21 218 q 50 663 21 569 q 136 820 79 756 q 275 919 193 885 q 464 953 357 953 q 750 858 639 953 q 819 820 783 831 q 893 810 856 810 q 947 837 933 810 q 960 897 960 864 q 956 942 960 921 q 947 975 953 963 l 1044 975 m 464 133 q 561 152 515 133 q 641 209 607 171 q 694 307 675 247 q 714 449 714 367 q 650 697 714 613 q 464 782 586 782 q 276 697 342 782 q 211 449 211 613 q 277 209 211 285 q 464 133 343 133 z "},"ơ":{"ha":904,"x_min":21,"x_max":910,"o":"m 881 754 q 902 709 894 739 q 910 646 910 679 q 904 592 910 618 q 885 544 899 565 q 851 510 872 524 q 799 497 829 497 q 683 517 731 497 q 719 342 719 440 q 695 194 719 260 q 626 81 671 128 q 516 8 581 33 q 372 -18 451 -18 q 224 8 289 -18 q 113 82 158 35 q 44 196 68 129 q 21 342 21 263 q 45 489 21 422 q 115 603 69 556 q 226 676 161 650 q 372 701 290 701 q 586 638 499 701 q 662 598 628 607 q 729 589 696 589 q 783 616 769 589 q 796 676 796 643 q 792 721 796 700 q 783 754 789 742 l 881 754 m 372 133 q 538 342 538 133 q 372 549 538 549 q 207 342 207 549 q 372 133 207 133 z "},"Ư":{"ha":1039,"x_min":32,"x_max":1032,"o":"m 578 922 l 775 922 l 775 821 q 813 812 794 814 q 844 810 832 810 q 900 829 882 810 q 918 897 918 849 q 915 942 918 921 q 906 975 911 963 l 1003 975 q 1024 930 1017 960 q 1032 865 1032 900 q 995 752 1032 788 q 901 717 958 717 q 775 753 840 717 l 775 307 q 676 53 775 139 q 399 -32 578 -32 q 130 49 228 -32 q 32 296 32 129 l 32 922 l 228 922 l 228 314 q 270 178 228 228 q 403 128 313 128 q 531 172 485 128 q 578 307 578 215 l 578 922 z "},"ư":{"ha":886,"x_min":36,"x_max":890,"o":"m 481 0 l 481 96 q 390 9 444 36 q 272 -18 336 -18 q 175 0 218 -18 q 101 51 132 18 q 53 131 69 85 q 36 233 36 176 l 36 683 l 217 683 l 217 261 q 331 133 217 133 q 437 176 401 133 q 472 289 472 219 l 472 683 l 651 683 l 651 594 q 681 590 667 592 q 704 589 696 589 q 763 614 749 589 q 776 675 776 639 q 773 720 776 699 q 764 754 769 742 l 861 754 q 883 709 875 739 q 890 644 890 679 q 854 532 890 567 q 761 497 818 497 q 651 522 710 497 l 651 0 l 481 0 z "},"ǝ":{"ha":699,"x_min":26,"x_max":678,"o":"m 213 275 q 226 209 214 238 q 257 162 238 181 q 301 134 276 143 q 353 125 326 125 q 447 165 407 125 q 492 275 486 204 l 213 275 m 497 389 q 452 513 493 467 q 344 558 411 558 q 266 538 300 558 q 222 482 232 518 l 36 482 q 147 644 68 588 q 336 701 226 701 q 678 329 678 701 q 656 186 678 250 q 591 76 633 122 q 488 6 549 31 q 347 -18 426 -18 q 108 83 189 -18 q 26 389 26 185 l 497 389 z "},"Ǧ":{"ha":914,"x_min":21,"x_max":879,"o":"m 21 0 m 719 0 l 715 92 q 608 1 682 33 q 439 -32 535 -32 q 266 9 343 -32 q 134 119 189 50 q 50 277 79 188 q 21 463 21 367 q 50 653 21 564 q 136 810 79 743 q 278 915 193 876 q 475 953 363 953 q 628 929 557 953 q 753 864 700 906 q 840 765 807 822 q 878 638 872 707 l 683 638 q 661 698 679 669 q 615 747 643 726 q 551 781 588 768 q 475 793 514 793 q 288 706 358 793 q 218 454 218 619 q 233 340 218 397 q 278 235 247 282 q 358 160 310 189 q 474 131 407 131 q 562 147 521 131 q 633 193 603 164 q 681 260 664 222 q 699 342 699 299 l 494 342 l 494 496 l 879 496 l 879 0 l 719 0 m 385 1018 l 207 1204 l 271 1275 l 458 1111 l 646 1275 l 710 1204 l 532 1018 l 385 1018 z "},"ǧ":{"ha":736,"x_min":22,"x_max":693,"o":"m 22 0 m 364 136 q 474 187 431 136 q 518 325 518 238 q 364 544 518 544 q 210 336 210 544 q 253 190 210 244 q 364 136 297 136 m 513 92 q 442 20 493 46 q 325 -6 392 -6 q 183 24 240 -6 q 90 103 125 54 q 38 215 54 151 q 22 346 22 279 q 46 491 22 425 q 110 603 69 557 q 204 676 150 650 q 321 701 258 701 q 513 599 449 701 l 513 683 l 693 683 l 693 -7 q 667 -144 693 -85 q 594 -242 640 -203 q 486 -303 549 -282 q 353 -324 424 -324 q 221 -303 282 -324 q 116 -247 160 -283 q 47 -157 72 -210 q 22 -37 22 -104 l 190 -37 q 231 -134 190 -100 q 340 -168 272 -168 q 463 -128 413 -168 q 513 -21 513 -89 l 513 92 m 286 779 l 108 965 l 172 1036 l 360 872 l 547 1036 l 611 965 l 433 779 l 286 779 z "},"Ǵ":{"ha":914,"x_min":21,"x_max":879,"o":"m 21 0 m 719 0 l 715 92 q 608 1 682 33 q 439 -32 535 -32 q 266 9 343 -32 q 134 119 189 50 q 50 277 79 188 q 21 463 21 367 q 50 653 21 564 q 136 810 79 743 q 278 915 193 876 q 475 953 363 953 q 628 929 557 953 q 753 864 700 906 q 840 765 807 822 q 878 638 872 707 l 683 638 q 661 698 679 669 q 615 747 643 726 q 551 781 588 768 q 475 793 514 793 q 288 706 358 793 q 218 454 218 619 q 233 340 218 397 q 278 235 247 282 q 358 160 310 189 q 474 131 407 131 q 562 147 521 131 q 633 193 603 164 q 681 260 664 222 q 699 342 699 299 l 494 342 l 494 496 l 879 496 l 879 0 l 719 0 m 367 1008 l 324 1085 l 611 1253 l 676 1139 l 367 1008 z "},"ǵ":{"ha":736,"x_min":22,"x_max":693,"o":"m 22 0 m 364 136 q 474 187 431 136 q 518 325 518 238 q 364 544 518 544 q 210 336 210 544 q 253 190 210 244 q 364 136 297 136 m 513 92 q 442 20 493 46 q 325 -6 392 -6 q 183 24 240 -6 q 90 103 125 54 q 38 215 54 151 q 22 346 22 279 q 46 491 22 425 q 110 603 69 557 q 204 676 150 650 q 321 701 258 701 q 513 599 449 701 l 513 683 l 693 683 l 693 -7 q 667 -144 693 -85 q 594 -242 640 -203 q 486 -303 549 -282 q 353 -324 424 -324 q 221 -303 282 -324 q 116 -247 160 -283 q 47 -157 72 -210 q 22 -37 22 -104 l 190 -37 q 231 -134 190 -100 q 340 -168 272 -168 q 463 -128 413 -168 q 513 -21 513 -89 l 513 92 m 267 769 l 224 846 l 511 1014 l 576 900 l 267 769 z "},"Ǹ":{"ha":821,"x_min":32,"x_max":783,"o":"m 32 0 m 606 0 l 211 619 l 211 0 l 32 0 l 32 922 l 236 922 l 603 329 l 603 922 l 783 922 l 783 0 l 606 0 m 193 1139 l 258 1253 l 546 1085 l 503 1008 l 193 1139 z "},"ǹ":{"ha":699,"x_min":36,"x_max":656,"o":"m 36 0 m 474 0 l 474 414 q 447 521 474 493 q 357 549 421 549 q 217 392 217 549 l 217 0 l 36 0 l 36 683 l 208 683 l 208 583 q 293 672 240 642 q 429 701 346 701 q 519 687 478 701 q 591 643 561 672 q 638 572 621 614 q 656 474 656 529 l 656 0 l 474 0 m 132 900 l 197 1014 l 485 846 l 442 769 l 132 900 z "},"ȷ":{"ha":271,"x_min":-312,"x_max":232,"o":"m 50 683 l 232 683 l 232 -46 q 211 -159 232 -108 q 154 -247 190 -210 q 69 -303 118 -283 q -37 -324 19 -324 q -245 -247 -178 -324 q -312 -37 -312 -169 l -143 -37 q -122 -130 -143 -96 q -47 -164 -100 -164 q 28 -131 7 -164 q 50 -39 50 -97 l 50 683 z "},"Ɂ":{"ha":682,"x_min":26,"x_max":660,"o":"m 246 0 l 246 274 q 268 413 246 349 q 360 525 290 476 q 397 549 376 536 q 437 581 418 563 q 468 624 456 599 q 481 686 481 649 q 469 743 481 719 q 438 781 457 767 q 394 802 419 796 q 342 808 368 808 q 276 797 303 808 q 233 765 250 786 q 207 716 215 744 q 197 654 199 688 l 26 654 q 103 872 26 792 q 349 953 181 953 q 578 886 497 953 q 660 688 660 819 q 651 614 660 644 q 625 560 642 583 q 585 515 608 536 q 531 472 561 494 q 483 431 501 450 q 453 390 464 413 q 439 340 443 368 q 435 274 435 313 l 435 0 l 246 0 z "},"ɂ":{"ha":682,"x_min":29,"x_max":654,"o":"m 253 0 l 253 108 q 281 240 253 192 q 363 328 308 289 q 414 365 393 349 q 449 397 435 382 q 469 426 463 411 q 475 461 475 442 q 442 533 475 511 q 353 554 408 554 q 283 544 311 554 q 238 519 256 535 q 214 483 221 503 q 207 442 207 463 l 29 442 q 106 631 29 561 q 347 701 182 701 q 574 643 494 701 q 654 467 654 585 q 646 405 654 431 q 622 359 638 379 q 582 321 606 339 q 526 281 558 303 q 480 246 499 261 q 450 213 461 231 q 434 170 439 194 q 429 108 429 146 l 429 0 l 253 0 z "},"Ɍ":{"ha":972,"x_min":0,"x_max":953,"o":"m 739 0 l 739 238 q 708 333 739 304 q 594 361 678 361 l 389 361 l 389 0 l 201 0 l 201 361 l 0 361 l 0 517 l 201 517 l 201 922 l 669 922 q 785 902 733 922 q 875 847 838 882 q 933 762 913 811 q 953 656 953 713 q 917 523 953 581 q 815 442 882 465 q 902 382 876 422 q 928 261 928 342 l 928 0 l 739 0 m 389 763 l 389 517 l 631 517 q 740 551 708 517 q 772 639 772 586 q 741 728 772 693 q 638 763 710 763 l 389 763 z "},"ɍ":{"ha":542,"x_min":0,"x_max":529,"o":"m 133 0 l 133 240 l 0 240 l 0 367 l 133 367 l 133 683 l 303 683 l 303 601 q 349 656 325 636 q 399 685 374 675 q 451 699 425 696 q 506 701 478 701 l 529 701 l 529 517 q 479 521 504 521 q 314 367 318 521 l 529 367 l 529 240 l 314 240 l 314 0 l 133 0 z "},"ɣ":{"ha":696,"x_min":8,"x_max":686,"o":"m 347 -324 q 261 -315 300 -324 q 195 -287 222 -307 q 153 -235 168 -268 q 139 -151 139 -201 q 142 -119 139 -137 q 157 -67 144 -101 q 194 26 169 -33 q 264 182 219 85 l 8 683 l 200 683 l 346 361 l 493 683 l 686 683 l 428 181 q 498 25 472 83 q 536 -68 524 -33 q 551 -120 549 -103 q 554 -151 554 -137 q 540 -235 554 -201 q 498 -287 525 -268 q 433 -315 471 -307 q 347 -324 394 -324 m 346 19 q 300 -87 313 -49 q 288 -153 288 -125 q 301 -199 288 -183 q 346 -215 314 -215 q 392 -199 378 -215 q 407 -160 407 -183 q 401 -117 407 -143 q 385 -65 394 -92 q 366 -16 376 -39 q 347 18 356 7 l 346 19 z "},"ɲ":{"ha":699,"x_min":-93,"x_max":656,"o":"m 217 -46 q 196 -159 217 -108 q 140 -247 175 -210 q 55 -303 104 -283 q -50 -324 6 -324 q -73 -323 -62 -324 q -93 -321 -83 -322 l -93 -160 q -78 -165 -86 -162 q -58 -167 -71 -167 q -4 -151 -24 -167 q 24 -110 15 -136 q 35 -47 33 -83 q 36 32 36 -11 l 36 683 l 208 683 l 208 583 q 424 701 272 701 q 592 644 528 701 q 656 474 656 586 l 656 0 l 474 0 l 474 414 q 449 520 474 492 q 363 549 424 549 q 252 510 288 549 q 217 392 217 472 l 217 -46 z "},"ˆ":{"ha":639,"x_min":69,"x_max":572,"o":"m 321 943 l 133 779 l 69 850 l 247 1036 l 394 1036 l 572 850 l 508 779 l 321 943 z "},"ˇ":{"ha":638,"x_min":69,"x_max":572,"o":"m 247 779 l 69 965 l 133 1036 l 321 872 l 508 1036 l 572 965 l 394 779 l 247 779 z "},"ˉ":{"ha":664,"x_min":69,"x_max":599,"o":"m 69 836 m 69 836 l 69 963 l 599 963 l 599 836 l 69 836 z "},"˘":{"ha":586,"x_min":69,"x_max":519,"o":"m 519 1036 q 501 935 519 978 q 451 863 482 892 q 378 820 419 835 q 294 806 338 806 q 210 820 251 806 q 138 863 169 835 q 88 935 107 892 q 69 1036 69 978 l 183 1036 q 215 947 186 978 q 294 915 243 915 q 374 947 346 915 q 406 1036 403 978 l 519 1036 z "},"˙":{"ha":306,"x_min":69,"x_max":250,"o":"m 69 804 l 69 976 l 250 976 l 250 804 l 69 804 z "},"˚":{"ha":425,"x_min":69,"x_max":358,"o":"m 358 903 q 325 803 358 838 q 214 769 292 769 q 69 903 69 769 q 105 1001 69 967 q 214 1036 140 1036 q 325 1001 292 1036 q 358 903 358 967 m 286 903 q 214 974 286 974 q 144 903 144 974 q 214 835 144 835 q 286 903 286 835 z "},"˛":{"ha":435,"x_min":69,"x_max":368,"o":"m 368 -287 q 314 -313 349 -303 q 222 -324 279 -324 q 108 -292 147 -324 q 69 -206 69 -260 q 135 -85 69 -137 q 308 0 200 -33 l 368 0 q 284 -41 315 -24 q 237 -73 253 -58 q 216 -101 221 -87 q 211 -128 211 -114 q 235 -162 211 -151 q 300 -174 260 -174 q 338 -170 319 -174 q 368 -162 356 -167 l 368 -287 z "},"˜":{"ha":615,"x_min":69,"x_max":549,"o":"m 549 936 q 483 831 525 861 q 397 800 442 800 q 348 810 371 800 q 304 831 325 819 q 263 853 283 843 q 219 863 242 863 q 194 851 211 863 q 165 801 178 840 l 69 853 q 126 948 92 921 q 204 975 161 975 q 261 965 236 975 q 308 942 286 954 q 350 919 331 929 q 389 908 369 908 q 419 923 401 908 q 444 974 438 938 l 549 936 z "},"˝":{"ha":551,"x_min":69,"x_max":496,"o":"m 69 836 l 258 1040 l 319 989 l 121 790 l 69 836 m 288 790 l 236 836 l 433 1036 l 496 985 l 288 790 z "},"̀":{"ha":0,"x_min":-564,"x_max":-211,"o":"m -211 769 m -564 900 l -499 1014 l -211 846 l -254 769 l -564 900 z "},"́":{"ha":0,"x_min":-481,"x_max":-128,"o":"m -128 769 m -437 769 l -481 846 l -193 1014 l -128 900 l -437 769 z "},"̂":{"ha":0,"x_min":-597,"x_max":-94,"o":"m -94 779 m -346 943 l -533 779 l -597 850 l -419 1036 l -272 1036 l -94 850 l -158 779 l -346 943 z "},"̃":{"ha":514,"x_min":69,"x_max":447,"o":"m 438 1017 q 394 949 425 967 q 329 932 363 932 q 293 936 313 932 q 255 946 274 940 q 219 956 236 951 q 190 960 203 960 q 151 915 168 960 l 83 943 q 122 1010 96 990 q 181 1031 149 1031 q 225 1026 206 1031 q 262 1015 244 1021 q 295 1003 279 1008 q 328 999 311 999 q 353 1006 343 999 q 367 1036 363 1014 l 438 1017 m 400 769 l 258 867 l 118 769 l 69 811 l 203 922 l 314 922 l 447 811 l 400 769 z "},"̄":{"ha":0,"x_min":-611,"x_max":-82,"o":"m -82 836 m -611 836 l -611 963 l -82 963 l -82 836 l -611 836 z "},"̆":{"ha":0,"x_min":-572,"x_max":-122,"o":"m -122 806 m -122 1036 q -141 935 -122 978 q -191 863 -160 892 q -263 820 -222 835 q -347 806 -304 806 q -431 820 -390 806 q -503 863 -472 835 q -553 935 -535 892 q -572 1036 -572 978 l -458 1036 q -427 947 -456 978 q -347 915 -399 915 q -267 947 -296 915 q -236 1036 -239 978 l -122 1036 z "},"̇":{"ha":0,"x_min":-432,"x_max":-251,"o":"m -251 804 m -432 804 l -432 976 l -251 976 l -251 804 l -432 804 z "},"̈":{"ha":0,"x_min":-571,"x_max":-112,"o":"m -112 804 m -571 804 l -571 976 l -390 976 l -390 804 l -571 804 m -293 804 l -293 976 l -112 976 l -112 804 l -293 804 z "},"̉":{"ha":338,"x_min":69,"x_max":269,"o":"m 118 807 q 125 849 118 831 q 153 881 132 868 q 176 897 168 889 q 185 922 185 906 q 151 946 185 946 q 126 942 140 946 q 94 925 113 938 l 69 1001 q 119 1028 90 1019 q 167 1036 147 1036 q 242 1013 215 1036 q 269 951 269 990 q 257 905 269 922 q 228 874 244 888 q 200 847 213 861 q 188 807 188 832 l 118 807 z "},"̊":{"ha":0,"x_min":-492,"x_max":-203,"o":"m -203 769 m -203 903 q -236 803 -203 838 q -347 769 -269 769 q -492 903 -492 769 q -456 1001 -492 967 q -347 1036 -421 1036 q -236 1001 -269 1036 q -203 903 -203 967 m -275 903 q -347 974 -275 974 q -417 903 -417 974 q -347 835 -417 835 q -275 903 -275 835 z "},"̋":{"ha":0,"x_min":-521,"x_max":-94,"o":"m -94 790 m -521 836 l -332 1040 l -271 989 l -469 790 l -521 836 m -303 790 l -354 836 l -157 1036 l -94 985 l -303 790 z "},"̌":{"ha":0,"x_min":-597,"x_max":-94,"o":"m -94 779 m -419 779 l -597 965 l -533 1036 l -346 872 l -158 1036 l -94 965 l -272 779 l -419 779 z "},"̓":{"ha":0,"x_min":-435,"x_max":-275,"o":"m -275 765 m -275 971 q -364 881 -361 964 l -275 881 l -275 767 l -435 767 l -435 842 q -427 912 -435 879 q -401 969 -419 944 q -352 1010 -383 994 q -275 1031 -321 1026 l -275 971 z "},"̛":{"ha":210,"x_min":-43,"x_max":210,"o":"m -43 597 q -7 588 -25 590 q 24 586 11 586 q 85 613 71 586 q 99 671 99 639 q 94 720 99 699 q 85 754 89 742 l 179 754 q 202 709 194 739 q 210 644 210 679 q 172 531 210 567 q 78 496 135 496 q -43 529 19 496 l -43 597 z "},"̣":{"ha":306,"x_min":69,"x_max":250,"o":"m 69 -286 l 69 -114 l 250 -114 l 250 -286 l 69 -286 z "},"̦":{"ha":0,"x_min":-422,"x_max":-262,"o":"m -262 -60 m -422 -264 q -333 -174 -336 -257 l -422 -174 l -422 -60 l -262 -60 l -262 -135 q -270 -205 -262 -172 q -296 -262 -278 -237 q -345 -303 -314 -287 q -422 -324 -376 -319 l -422 -264 z "},"̨":{"ha":0,"x_min":-497,"x_max":-199,"o":"m -199 0 m -199 -287 q -253 -313 -218 -303 q -344 -324 -287 -324 q -458 -292 -419 -324 q -497 -206 -497 -260 q -432 -85 -497 -137 q -258 0 -367 -33 l -199 0 q -283 -41 -251 -24 q -330 -73 -314 -58 q -351 -101 -346 -87 q -356 -128 -356 -114 q -331 -162 -356 -151 q -267 -174 -307 -174 q -229 -170 -247 -174 q -199 -162 -211 -167 l -199 -287 z "},"̭":{"ha":0,"x_min":-599,"x_max":-96,"o":"m -96 -58 m -347 -151 l -535 -315 l -599 -244 l -421 -58 l -274 -58 l -96 -244 l -160 -315 l -347 -151 z "},"΄":{"ha":208,"x_min":32,"x_max":200,"o":"m 32 575 q 34 749 33 663 q 38 922 35 835 l 200 922 l 144 575 l 32 575 z "},"΅":{"ha":0,"x_min":-617,"x_max":-42,"o":"m -42 756 m -406 756 q -403 929 -404 843 q -400 1103 -403 1015 l -237 1103 l -293 756 l -406 756 m -222 804 l -222 976 l -42 976 l -42 804 l -222 804 m -617 804 l -617 976 l -436 976 l -436 804 l -617 804 z "},"Ά":{"ha":933,"x_min":32,"x_max":922,"o":"m 32 0 m 483 715 l 482 715 l 364 349 l 599 349 l 483 715 m 713 0 l 654 190 l 314 190 l 249 0 l 44 0 l 374 922 l 597 922 l 922 0 l 713 0 m 32 575 q 34 749 33 663 q 38 922 35 835 l 200 922 l 144 575 l 32 575 z "},"·":{"ha":260,"x_min":32,"x_max":225,"o":"m 32 496 m 32 496 l 32 683 l 225 683 l 225 496 l 32 496 z "},"Έ":{"ha":946,"x_min":32,"x_max":940,"o":"m 32 0 m 240 0 l 240 922 l 918 922 l 918 761 l 428 761 l 428 564 l 879 564 l 879 401 l 428 401 l 428 164 l 940 164 l 940 0 l 240 0 m 32 575 q 34 749 33 663 q 38 922 35 835 l 200 922 l 144 575 l 32 575 z "},"Ή":{"ha":1024,"x_min":32,"x_max":988,"o":"m 32 0 m 793 0 l 793 414 l 433 414 l 433 0 l 240 0 l 240 922 l 433 922 l 433 575 l 793 575 l 793 922 l 988 922 l 988 0 l 793 0 m 32 575 q 34 749 33 663 q 38 922 35 835 l 200 922 l 144 575 l 32 575 z "},"Ί":{"ha":468,"x_min":32,"x_max":433,"o":"m 32 0 m 240 0 l 240 922 l 433 922 l 433 0 l 240 0 m 32 575 q 34 749 33 663 q 38 922 35 835 l 200 922 l 144 575 l 32 575 z "},"Ό":{"ha":1078,"x_min":32,"x_max":1051,"o":"m 32 0 m 611 133 q 708 152 663 133 q 788 209 754 171 q 842 307 822 247 q 861 449 861 367 q 797 697 861 613 q 611 782 733 782 q 424 697 489 782 q 358 449 358 613 q 424 209 358 285 q 611 133 490 133 m 611 -32 q 283 93 397 -32 q 168 453 168 218 q 197 663 168 569 q 283 820 226 756 q 422 919 340 885 q 611 953 504 953 q 799 919 717 953 q 938 819 882 885 q 1022 660 993 754 q 1051 449 1051 567 q 938 89 1051 210 q 611 -32 825 -32 m 32 575 q 34 749 33 663 q 38 922 35 835 l 200 922 l 144 575 l 32 575 z "},"Ύ":{"ha":1042,"x_min":32,"x_max":1031,"o":"m 32 0 m 529 0 l 529 349 l 210 922 l 435 922 l 629 547 l 808 922 l 1031 922 l 722 346 l 722 0 l 529 0 m 32 575 q 34 749 33 663 q 38 922 35 835 l 200 922 l 144 575 l 32 575 z "},"Ώ":{"ha":1065,"x_min":32,"x_max":1042,"o":"m 32 0 m 693 0 l 693 139 q 797 300 760 203 q 833 546 833 397 q 776 738 833 676 q 610 799 719 799 q 444 738 500 799 q 388 546 388 676 q 399 411 388 472 q 428 300 410 350 q 472 210 447 250 q 526 139 497 169 l 526 0 l 194 0 l 194 153 l 332 153 q 272 215 300 176 q 224 306 244 254 q 190 418 203 357 q 178 547 178 479 q 203 717 178 642 q 283 844 229 792 q 417 925 336 897 q 610 953 499 953 q 937 844 832 953 q 1042 547 1042 736 q 1029 418 1042 479 q 996 306 1017 357 q 947 215 975 254 q 888 153 918 176 l 1025 153 l 1025 0 l 693 0 m 32 575 q 34 749 33 663 q 38 922 35 835 l 200 922 l 144 575 l 32 575 z "},"ΐ":{"ha":551,"x_min":-14,"x_max":561,"o":"m 0 0 m 172 683 l 344 683 l 344 221 q 364 161 344 181 q 419 142 383 142 l 460 142 l 460 0 l 371 0 q 172 199 172 0 l 172 683 m 196 756 q 198 929 197 843 q 201 1103 199 1015 l 364 1103 l 308 756 l 196 756 m 381 804 l 381 976 l 561 976 l 561 804 l 381 804 m -14 804 l -14 976 l 167 976 l 167 804 l -14 804 z "},"Γ":{"ha":696,"x_min":31,"x_max":679,"o":"m 679 922 l 679 765 l 219 765 l 219 0 l 31 0 l 31 922 l 679 922 z "},"Δ":{"ha":893,"x_min":4,"x_max":882,"o":"m 4 0 l 333 922 l 557 922 l 882 0 l 4 0 m 260 158 l 621 158 l 443 715 l 442 715 l 260 158 z "},"Θ":{"ha":931,"x_min":25,"x_max":906,"o":"m 461 131 q 569 149 519 131 q 654 206 618 167 q 711 306 690 244 q 732 456 732 368 q 664 701 732 615 q 467 786 596 786 q 268 701 338 786 q 199 451 199 615 q 269 208 199 285 q 461 131 340 131 m 469 -32 q 139 93 253 -32 q 25 453 25 218 q 54 663 25 569 q 140 820 83 756 q 278 919 196 885 q 467 953 360 953 q 654 919 572 953 q 792 819 736 885 q 877 660 849 754 q 906 449 906 567 q 793 89 906 210 q 469 -32 681 -32 m 278 543 l 654 543 l 654 403 l 278 403 l 278 543 z "},"Λ":{"ha":824,"x_min":11,"x_max":818,"o":"m 506 922 l 818 0 l 613 0 l 411 647 l 211 0 l 11 0 l 324 922 l 506 922 z "},"Ξ":{"ha":739,"x_min":4,"x_max":733,"o":"m 65 403 l 65 563 l 674 563 l 674 403 l 65 403 m 26 765 l 26 922 l 713 922 l 713 765 l 26 765 m 4 0 l 4 160 l 733 160 l 733 0 l 4 0 z "},"Π":{"ha":815,"x_min":36,"x_max":782,"o":"m 592 0 l 592 765 l 225 765 l 225 0 l 36 0 l 36 922 l 782 922 l 782 0 l 592 0 z "},"Σ":{"ha":739,"x_min":8,"x_max":731,"o":"m 8 775 l 8 922 l 711 922 l 711 765 l 236 765 l 483 468 l 235 160 l 731 160 l 731 0 l 10 0 l 10 160 l 263 465 l 8 775 z "},"Φ":{"ha":989,"x_min":18,"x_max":969,"o":"m 404 0 l 404 131 q 117 229 215 146 q 18 460 18 313 q 117 696 18 608 q 404 800 217 783 l 404 922 l 586 922 l 586 800 q 871 695 772 782 q 969 460 969 608 q 871 228 969 311 q 586 129 772 144 l 586 0 l 404 0 m 197 461 q 255 313 197 363 q 404 249 313 264 l 404 678 q 253 610 308 663 q 197 461 197 557 m 790 460 q 735 608 790 556 q 586 678 681 661 l 586 249 q 668 272 631 256 q 733 313 706 288 q 775 374 760 338 q 790 460 790 411 z "},"Ψ":{"ha":914,"x_min":28,"x_max":886,"o":"m 367 0 l 367 229 q 206 259 271 236 q 101 321 140 282 q 44 415 61 360 q 28 542 28 471 l 28 922 l 214 922 l 214 560 q 249 440 214 485 q 367 381 283 396 l 367 922 l 546 922 l 546 381 q 663 441 629 396 q 697 561 697 486 l 697 922 l 886 922 l 886 544 q 868 418 886 474 q 810 323 850 363 q 704 260 769 283 q 546 229 639 236 l 546 0 l 367 0 z "},"Ω":{"ha":904,"x_min":17,"x_max":881,"o":"m 532 0 l 532 139 q 635 300 599 203 q 672 546 672 397 q 615 738 672 676 q 449 799 558 799 q 283 738 339 799 q 226 546 226 676 q 238 411 226 472 q 267 300 249 350 q 311 210 286 250 q 365 139 336 169 l 365 0 l 33 0 l 33 153 l 171 153 q 111 215 139 176 q 63 306 83 254 q 29 418 42 357 q 17 547 17 479 q 42 717 17 642 q 122 844 68 792 q 256 925 175 897 q 449 953 338 953 q 776 844 671 953 q 881 547 881 736 q 868 418 881 479 q 835 306 856 357 q 785 215 814 254 q 726 153 757 176 l 864 153 l 864 0 l 532 0 z "},"ά":{"ha":810,"x_min":26,"x_max":800,"o":"m 26 0 m 526 113 q 492 61 511 85 q 447 20 472 38 q 387 -8 421 3 q 310 -18 353 -18 q 189 8 242 -18 q 100 80 136 33 q 45 191 64 126 q 26 333 26 256 q 49 488 26 419 q 110 604 71 557 q 201 676 149 651 q 315 701 254 701 q 433 671 379 701 q 514 569 486 640 l 514 683 l 685 683 l 685 218 q 758 142 685 142 l 800 142 l 800 0 l 711 0 q 526 113 561 0 m 357 132 q 477 186 436 132 q 518 343 518 240 q 473 506 518 454 q 358 557 428 557 q 246 506 288 557 q 204 343 204 456 q 246 181 204 229 q 357 132 288 132 m 325 756 q 327 929 326 843 q 331 1103 328 1015 l 493 1103 l 438 756 l 325 756 z "},"έ":{"ha":651,"x_min":14,"x_max":639,"o":"m 14 0 m 317 301 q 221 281 251 301 q 190 210 190 260 q 227 131 190 153 q 321 108 264 108 q 427 139 396 108 q 461 228 458 169 l 639 228 q 616 135 635 179 q 558 56 597 90 q 461 2 519 22 q 319 -18 403 -18 q 192 -3 249 -18 q 97 40 136 13 q 35 108 57 68 q 14 199 14 149 q 57 314 14 272 q 158 367 100 356 q 69 419 101 382 q 36 515 36 457 q 106 649 36 597 q 319 701 176 701 q 459 683 401 701 q 554 634 517 665 q 610 560 592 603 q 633 471 629 518 l 456 471 q 426 554 456 528 q 325 581 396 581 q 206 501 206 581 q 238 438 206 457 q 321 418 271 418 l 379 418 l 379 301 l 317 301 m 268 756 q 270 929 269 843 q 274 1103 271 1015 l 436 1103 l 381 756 l 268 756 z "},"ή":{"ha":699,"x_min":36,"x_max":656,"o":"m 36 0 m 474 -324 l 474 414 q 447 521 474 493 q 357 549 421 549 q 217 392 217 549 l 217 0 l 36 0 l 36 683 l 208 683 l 208 583 q 293 672 240 642 q 429 701 346 701 q 519 687 478 701 q 591 643 561 672 q 638 572 621 614 q 656 474 656 529 l 656 -324 l 474 -324 m 296 756 q 298 929 297 843 q 301 1103 299 1015 l 464 1103 l 408 756 l 296 756 z "},"ί":{"ha":338,"x_min":40,"x_max":328,"o":"m 40 0 m 40 683 l 213 683 l 213 221 q 232 161 213 181 q 288 142 251 142 l 328 142 l 328 0 l 239 0 q 40 199 40 0 l 40 683 m 60 756 q 62 929 61 843 q 65 1103 63 1015 l 228 1103 l 172 756 l 60 756 z "},"ΰ":{"ha":690,"x_min":40,"x_max":651,"o":"m 40 0 m 275 756 q 277 929 276 843 q 281 1103 278 1015 l 443 1103 l 388 756 l 275 756 m 346 -18 q 118 37 196 -18 q 40 226 40 92 l 40 683 l 217 683 l 217 254 q 247 156 217 186 q 347 126 276 126 q 449 156 419 126 q 479 254 479 186 l 479 683 l 651 683 l 651 226 q 573 37 651 92 q 346 -18 494 -18 m 458 804 l 458 976 l 639 976 l 639 804 l 458 804 m 64 804 l 64 976 l 244 976 l 244 804 l 64 804 z "},"α":{"ha":810,"x_min":26,"x_max":800,"o":"m 526 113 q 492 61 511 85 q 447 20 472 38 q 387 -8 421 3 q 310 -18 353 -18 q 189 8 242 -18 q 100 80 136 33 q 45 191 64 126 q 26 333 26 256 q 49 488 26 419 q 110 604 71 557 q 201 676 149 651 q 315 701 254 701 q 433 671 379 701 q 514 569 486 640 l 514 683 l 685 683 l 685 218 q 758 142 685 142 l 800 142 l 800 0 l 711 0 q 526 113 561 0 m 357 132 q 477 186 436 132 q 518 343 518 240 q 473 506 518 454 q 358 557 428 557 q 246 506 288 557 q 204 343 204 456 q 246 181 204 229 q 357 132 288 132 z "},"β":{"ha":708,"x_min":40,"x_max":693,"o":"m 390 -17 q 293 -6 338 -17 q 214 25 249 6 l 214 -324 l 40 -324 l 40 692 q 56 793 40 747 q 108 872 72 839 q 201 924 143 906 q 343 943 258 943 q 483 926 426 943 q 574 877 539 908 q 625 803 610 846 q 640 713 640 761 q 630 638 640 668 q 603 585 619 607 q 565 551 586 564 q 522 529 543 538 q 653 435 614 501 q 693 279 693 368 q 671 156 693 210 q 609 63 649 101 q 514 3 569 24 q 390 -17 458 -17 m 214 172 q 278 140 242 153 q 358 128 314 128 q 482 172 444 128 q 519 288 519 217 q 506 365 519 333 q 467 416 492 396 q 407 445 442 436 q 331 454 372 454 l 318 454 l 318 565 l 329 565 q 394 574 368 565 q 435 599 421 583 q 456 636 450 615 q 463 681 463 657 q 428 775 463 747 q 340 803 393 803 q 249 774 285 803 q 214 683 214 746 l 214 172 z "},"δ":{"ha":749,"x_min":25,"x_max":721,"o":"m 25 333 q 68 509 25 442 q 179 614 111 576 q 120 672 143 638 q 97 761 97 707 q 110 830 97 797 q 157 888 124 863 q 247 928 190 913 q 392 943 304 943 q 510 937 451 943 q 601 921 568 931 l 601 788 q 512 810 565 803 q 400 818 458 818 q 287 805 322 818 q 251 760 251 792 q 278 713 251 728 q 335 690 306 697 q 411 670 379 679 q 469 653 443 661 q 518 635 496 644 q 564 614 540 626 q 678 514 635 576 q 721 339 721 451 q 697 192 721 257 q 628 79 672 126 q 519 7 583 32 q 375 -18 456 -18 q 228 8 293 -18 q 117 81 163 35 q 49 192 72 128 q 25 333 25 257 m 483 474 q 408 517 451 499 q 317 551 364 535 q 231 475 263 526 q 200 338 200 424 q 247 181 200 233 q 375 129 294 129 q 501 181 458 129 q 543 328 543 232 q 530 411 543 376 q 483 474 517 446 z "},"ε":{"ha":651,"x_min":14,"x_max":639,"o":"m 317 301 q 221 281 251 301 q 190 210 190 260 q 227 131 190 153 q 321 108 264 108 q 427 139 396 108 q 461 228 458 169 l 639 228 q 616 135 635 179 q 558 56 597 90 q 461 2 519 22 q 319 -18 403 -18 q 192 -3 249 -18 q 97 40 136 13 q 35 108 57 68 q 14 199 14 149 q 57 314 14 272 q 158 367 100 356 q 69 419 101 382 q 36 515 36 457 q 106 649 36 597 q 319 701 176 701 q 459 683 401 701 q 554 634 517 665 q 610 560 592 603 q 633 471 629 518 l 456 471 q 426 554 456 528 q 325 581 396 581 q 206 501 206 581 q 238 438 206 457 q 321 418 271 418 l 379 418 l 379 301 l 317 301 z "},"ζ":{"ha":668,"x_min":28,"x_max":615,"o":"m 346 554 q 271 480 299 513 q 228 419 243 447 q 208 365 213 390 q 203 313 203 339 q 245 181 203 218 q 365 144 288 144 l 400 144 q 534 107 492 144 q 576 -17 576 69 l 576 -324 l 400 -324 l 400 -64 q 388 -15 400 -29 q 338 0 375 0 l 296 0 q 182 22 232 0 q 98 81 132 43 q 46 172 64 119 q 28 285 28 224 q 77 469 28 385 q 228 642 126 554 l 404 794 l 81 794 l 81 933 l 615 933 l 615 790 l 346 554 z "},"η":{"ha":699,"x_min":36,"x_max":656,"o":"m 474 -324 l 474 414 q 447 521 474 493 q 357 549 421 549 q 217 392 217 549 l 217 0 l 36 0 l 36 683 l 208 683 l 208 583 q 293 672 240 642 q 429 701 346 701 q 519 687 478 701 q 591 643 561 672 q 638 572 621 614 q 656 474 656 529 l 656 -324 l 474 -324 z "},"θ":{"ha":761,"x_min":32,"x_max":728,"o":"m 382 -21 q 221 8 288 -21 q 113 97 154 38 q 51 249 71 157 q 32 464 32 340 q 51 679 32 588 q 111 831 69 771 q 219 919 153 890 q 382 949 286 949 q 542 919 476 949 q 649 831 608 890 q 709 680 690 771 q 728 465 728 589 q 709 250 728 342 q 649 98 690 158 q 542 8 608 38 q 382 -21 476 -21 m 382 128 q 507 188 467 128 q 554 393 547 249 l 211 393 q 225 270 214 321 q 256 188 236 219 q 307 142 276 157 q 382 128 338 128 m 382 799 q 307 785 338 799 q 256 741 276 772 q 225 660 236 710 q 211 538 214 610 l 554 538 q 507 740 547 681 q 382 799 467 799 z "},"ι":{"ha":338,"x_min":40,"x_max":328,"o":"m 40 683 l 213 683 l 213 221 q 232 161 213 181 q 288 142 251 142 l 328 142 l 328 0 l 239 0 q 40 199 40 0 l 40 683 z "},"κ":{"ha":671,"x_min":36,"x_max":664,"o":"m 456 0 l 306 307 l 218 217 l 218 0 l 36 0 l 36 683 l 218 683 l 218 424 l 443 683 l 664 683 l 435 432 l 658 0 l 456 0 z "},"λ":{"ha":742,"x_min":8,"x_max":731,"o":"m 168 933 q 265 924 225 933 q 335 894 306 914 q 383 844 364 875 q 417 772 401 814 l 614 218 q 650 159 629 176 q 714 142 671 142 l 731 142 l 731 0 l 633 0 q 513 39 557 0 q 440 161 468 78 l 349 442 l 194 0 l 8 0 l 278 660 l 260 715 q 244 752 253 738 q 222 776 235 767 q 192 788 210 785 q 149 792 175 792 l 111 792 l 111 933 l 168 933 z "},"μ":{"ha":694,"x_min":36,"x_max":651,"o":"m 481 0 l 481 96 q 268 -18 411 -18 q 241 -17 254 -18 q 217 -12 228 -15 l 217 -324 l 36 -324 l 36 683 l 217 683 l 217 261 q 332 133 217 133 q 437 177 401 133 q 472 289 472 221 l 472 683 l 651 683 l 651 0 l 481 0 z "},"ξ":{"ha":668,"x_min":28,"x_max":650,"o":"m 392 467 l 331 467 q 231 430 261 467 q 201 318 201 393 q 213 234 201 268 q 247 180 225 200 q 297 151 268 160 q 361 143 326 143 l 400 143 q 534 107 492 143 q 576 -15 576 71 l 576 -324 l 400 -324 l 400 -64 q 387 -14 400 -28 q 338 0 374 0 l 294 0 q 100 80 172 0 q 28 299 28 160 q 40 395 28 354 q 72 465 51 436 q 117 510 92 493 q 172 533 143 526 q 84 601 114 557 q 54 717 54 644 q 122 881 54 821 q 339 940 190 940 q 477 922 419 940 q 572 873 535 904 q 627 799 608 842 q 650 710 646 757 l 474 710 q 347 819 474 819 q 252 792 282 819 q 222 704 222 764 q 247 617 222 651 q 335 583 272 583 l 392 583 l 392 467 z "},"π":{"ha":800,"x_min":10,"x_max":789,"o":"m 494 543 l 286 543 l 286 0 l 111 0 l 111 543 l 10 543 l 10 683 l 789 683 l 789 543 l 668 543 l 668 221 q 742 142 668 142 l 783 142 l 783 0 l 694 0 q 494 199 494 0 l 494 543 z "},"ρ":{"ha":726,"x_min":40,"x_max":699,"o":"m 40 343 q 67 506 40 439 q 138 617 93 574 q 242 681 182 661 q 372 701 303 701 q 614 606 529 701 q 699 338 699 510 q 680 193 699 258 q 626 81 661 128 q 538 8 590 33 q 419 -18 486 -18 q 358 -12 389 -18 q 299 9 326 -6 q 249 49 272 24 q 213 110 226 74 l 213 -324 l 40 -324 l 40 343 m 207 344 q 249 187 207 242 q 368 132 290 132 q 478 181 438 132 q 519 343 519 231 q 478 506 519 456 q 367 557 438 557 q 250 503 293 557 q 207 344 207 450 z "},"ς":{"ha":668,"x_min":28,"x_max":654,"o":"m 294 0 q 187 21 236 0 q 102 85 138 42 q 47 192 67 128 q 28 344 28 257 q 51 506 28 438 q 115 617 74 574 q 215 681 157 660 q 342 701 272 701 q 466 683 410 701 q 563 631 522 665 q 627 547 604 596 q 654 439 650 499 l 476 439 q 434 524 469 493 q 342 554 399 554 q 285 544 311 554 q 241 509 260 533 q 212 444 222 485 q 201 344 201 404 q 240 190 201 238 q 374 143 279 143 l 394 143 q 533 106 490 143 q 576 -15 576 69 l 576 -324 l 400 -324 l 400 -64 q 387 -14 400 -28 q 338 0 374 0 l 294 0 z "},"σ":{"ha":806,"x_min":25,"x_max":794,"o":"m 607 558 q 684 461 658 522 q 710 324 710 400 q 686 186 710 249 q 619 78 663 124 q 512 8 575 33 q 369 -18 449 -18 q 225 8 289 -18 q 117 80 161 33 q 49 192 72 126 q 25 335 25 257 q 49 478 25 414 q 119 588 74 543 q 228 658 164 633 q 375 683 293 683 l 794 683 l 794 558 l 607 558 m 375 126 q 543 333 543 126 q 378 542 543 542 q 251 490 294 542 q 207 333 207 438 q 375 126 207 126 z "},"τ":{"ha":665,"x_min":10,"x_max":654,"o":"m 414 558 l 414 222 q 488 142 414 142 l 529 142 l 529 0 l 440 0 q 240 199 240 0 l 240 558 l 10 558 l 10 683 l 654 683 l 654 558 l 414 558 z "},"υ":{"ha":690,"x_min":40,"x_max":651,"o":"m 346 -18 q 118 37 196 -18 q 40 226 40 92 l 40 683 l 217 683 l 217 254 q 247 156 217 186 q 347 126 276 126 q 449 156 419 126 q 479 254 479 186 l 479 683 l 651 683 l 651 226 q 573 37 651 92 q 346 -18 494 -18 z "},"φ":{"ha":999,"x_min":22,"x_max":975,"o":"m 413 -324 l 413 -12 q 117 98 213 3 q 22 342 22 193 q 118 585 22 490 q 413 696 214 681 l 413 933 l 585 933 l 585 696 q 878 585 782 681 q 975 342 975 490 q 879 97 975 192 q 585 -12 783 3 l 585 -324 l 413 -324 m 200 343 q 249 194 200 249 q 413 128 299 139 l 413 553 q 250 490 300 542 q 200 343 200 438 m 799 343 q 748 490 799 438 q 585 553 697 542 l 585 128 q 748 194 697 139 q 799 343 799 249 z "},"χ":{"ha":689,"x_min":8,"x_max":681,"o":"m 481 -324 l 340 26 l 203 -324 l 8 -324 l 239 190 l 15 683 l 214 683 l 347 344 l 483 683 l 674 683 l 446 190 l 681 -324 l 481 -324 z "},"ψ":{"ha":914,"x_min":40,"x_max":872,"o":"m 371 933 l 542 933 l 542 122 q 665 154 629 125 q 700 247 700 183 l 700 683 l 872 683 l 872 233 q 856 126 872 172 q 800 48 839 79 q 698 1 761 17 q 542 -15 635 -15 l 542 -324 l 371 -324 l 371 -15 q 215 1 278 -15 q 113 48 151 17 q 57 126 74 79 q 40 233 40 172 l 40 683 l 213 683 l 213 247 q 254 153 213 183 q 371 122 296 122 l 371 933 z "},"ω":{"ha":978,"x_min":25,"x_max":951,"o":"m 553 353 q 578 182 553 235 q 660 129 604 129 q 743 182 715 129 q 771 356 771 235 q 765 455 771 411 q 749 537 760 499 q 724 610 739 575 q 692 683 710 646 l 869 683 q 929 547 907 628 q 951 360 951 465 q 885 83 951 183 q 688 -18 819 -18 q 560 18 607 -18 q 488 113 513 54 q 412 15 460 49 q 289 -18 364 -18 q 90 81 156 -18 q 25 358 25 181 q 47 547 25 467 q 107 683 69 628 l 285 683 q 252 610 267 646 q 227 537 238 575 q 211 454 217 499 q 206 354 206 410 q 233 182 206 235 q 317 129 260 129 q 398 181 372 129 q 424 353 424 233 l 424 478 l 553 478 l 553 353 z "},"ϊ":{"ha":418,"x_min":-10,"x_max":419,"o":"m 0 0 m 100 683 l 272 683 l 272 221 q 292 161 272 181 q 347 142 311 142 l 388 142 l 388 0 l 299 0 q 100 199 100 0 l 100 683 m 239 804 l 239 976 l 419 976 l 419 804 l 239 804 m -10 804 l -10 976 l 171 976 l 171 804 l -10 804 z "},"ϋ":{"ha":690,"x_min":40,"x_max":651,"o":"m 40 0 m 346 -18 q 118 37 196 -18 q 40 226 40 92 l 40 683 l 217 683 l 217 254 q 247 156 217 186 q 347 126 276 126 q 449 156 419 126 q 479 254 479 186 l 479 683 l 651 683 l 651 226 q 573 37 651 92 q 346 -18 494 -18 m 122 804 l 122 976 l 303 976 l 303 804 l 122 804 m 400 804 l 400 976 l 581 976 l 581 804 l 400 804 z "},"ό":{"ha":749,"x_min":21,"x_max":719,"o":"m 21 0 m 372 133 q 538 342 538 133 q 372 549 538 549 q 207 342 207 549 q 372 133 207 133 m 372 -18 q 224 8 289 -18 q 113 82 158 35 q 44 196 68 129 q 21 342 21 263 q 45 489 21 422 q 115 603 69 556 q 226 676 161 650 q 372 701 290 701 q 517 676 453 701 q 626 603 581 650 q 695 490 671 557 q 719 342 719 424 q 695 194 719 260 q 626 81 671 128 q 516 8 581 33 q 372 -18 451 -18 m 314 756 q 316 929 315 843 q 319 1103 317 1015 l 482 1103 l 426 756 l 314 756 z "},"ύ":{"ha":690,"x_min":40,"x_max":651,"o":"m 40 0 m 285 756 q 287 929 286 843 q 290 1103 288 1015 l 453 1103 l 397 756 l 285 756 m 346 -18 q 118 37 196 -18 q 40 226 40 92 l 40 683 l 217 683 l 217 254 q 247 156 217 186 q 347 126 276 126 q 449 156 419 126 q 479 254 479 186 l 479 683 l 651 683 l 651 226 q 573 37 651 92 q 346 -18 494 -18 z "},"ώ":{"ha":978,"x_min":25,"x_max":951,"o":"m 25 0 m 553 353 q 578 182 553 235 q 660 129 604 129 q 743 182 715 129 q 771 356 771 235 q 765 455 771 411 q 749 537 760 499 q 724 610 739 575 q 692 683 710 646 l 869 683 q 929 547 907 628 q 951 360 951 465 q 885 83 951 183 q 688 -18 819 -18 q 560 18 607 -18 q 488 113 513 54 q 412 15 460 49 q 289 -18 364 -18 q 90 81 156 -18 q 25 358 25 181 q 47 547 25 467 q 107 683 69 628 l 285 683 q 252 610 267 646 q 227 537 238 575 q 211 454 217 499 q 206 354 206 410 q 233 182 206 235 q 317 129 260 129 q 398 181 372 129 q 424 353 424 233 l 424 478 l 553 478 l 553 353 m 428 756 q 430 929 429 843 q 433 1103 431 1015 l 596 1103 l 540 756 l 428 756 z "},"Ђ":{"ha":1047,"x_min":11,"x_max":1017,"o":"m 826 222 q 819 331 826 289 q 794 398 813 374 q 745 432 776 422 q 665 442 714 442 q 565 433 613 442 q 479 406 517 424 l 479 14 l 290 14 l 290 765 l 11 765 l 11 922 l 782 922 l 782 765 l 479 765 l 479 556 q 592 587 528 575 q 728 599 657 599 q 847 586 793 599 q 938 540 900 574 q 996 449 975 507 q 1017 300 1017 390 l 1017 18 q 919 -237 1017 -150 q 644 -324 821 -324 q 410 -261 499 -324 q 301 -60 321 -199 l 479 -60 q 537 -144 489 -118 q 646 -169 585 -169 q 778 -123 731 -169 q 826 18 826 -76 l 826 222 z "},"Ѓ":{"ha":696,"x_min":31,"x_max":679,"o":"m 31 0 m 271 1008 l 228 1085 l 515 1253 l 581 1139 l 271 1008 m 679 922 l 679 765 l 219 765 l 219 0 l 31 0 l 31 922 l 679 922 z "},"Є":{"ha":851,"x_min":21,"x_max":844,"o":"m 844 317 q 796 174 829 238 q 712 64 763 110 q 594 -7 661 18 q 447 -32 528 -32 q 278 -1 357 -32 q 143 90 200 29 q 53 241 86 151 q 21 450 21 331 q 51 660 21 567 q 136 819 81 754 q 272 918 192 883 q 450 953 351 953 q 606 927 536 953 q 727 856 676 901 q 808 750 778 811 q 844 619 838 689 l 651 619 q 576 742 632 699 q 451 786 521 786 q 296 727 351 786 q 224 561 240 668 l 528 561 l 528 403 l 218 403 q 284 206 229 275 q 442 136 339 136 q 580 183 528 136 q 651 317 632 229 l 844 317 z "},"Љ":{"ha":1353,"x_min":11,"x_max":1349,"o":"m 1024 582 q 1158 565 1097 582 q 1260 512 1218 547 q 1326 422 1303 476 q 1349 293 1349 368 q 1269 76 1349 151 q 1050 0 1189 0 l 647 0 l 647 765 l 397 765 l 385 547 q 354 263 375 371 q 294 97 333 156 q 194 19 254 39 q 44 0 133 0 l 11 0 l 11 164 l 33 164 q 111 176 79 164 q 165 230 143 189 q 199 350 186 271 q 219 563 213 429 l 239 922 l 836 922 l 836 582 l 1024 582 m 836 432 l 836 156 l 1036 156 q 1142 194 1103 156 q 1182 294 1182 232 q 1144 394 1182 356 q 1036 432 1106 432 l 836 432 z "},"Њ":{"ha":1185,"x_min":36,"x_max":1179,"o":"m 881 582 q 1099 507 1019 582 q 1179 292 1179 432 q 1099 76 1179 151 q 881 0 1019 0 l 513 0 l 513 431 l 224 431 l 224 0 l 36 0 l 36 922 l 224 922 l 224 588 l 513 588 l 513 922 l 701 922 l 701 582 l 881 582 m 701 432 l 701 156 l 868 156 q 974 194 935 156 q 1014 294 1014 232 q 975 394 1014 356 q 868 432 936 432 l 701 432 z "},"Ћ":{"ha":1047,"x_min":11,"x_max":1017,"o":"m 11 922 l 782 922 l 782 765 l 479 765 l 479 556 q 592 587 528 575 q 728 599 657 599 q 847 586 793 599 q 938 540 900 574 q 996 449 975 507 q 1017 300 1017 390 l 1017 0 l 826 0 l 826 296 q 815 369 826 340 q 782 413 803 397 q 731 435 761 429 q 664 442 701 442 q 565 433 614 442 q 479 406 517 424 l 479 0 l 290 0 l 290 765 l 11 765 l 11 922 z "},"Ќ":{"ha":839,"x_min":32,"x_max":833,"o":"m 32 0 m 599 0 l 325 415 l 222 314 l 222 0 l 32 0 l 32 922 l 222 922 l 222 547 l 575 922 l 825 922 l 461 558 l 833 0 l 599 0 m 329 1008 l 286 1085 l 574 1253 l 639 1139 l 329 1008 z "},"Ѝ":{"ha":815,"x_min":36,"x_max":782,"o":"m 36 0 m 190 1139 l 256 1253 l 543 1085 l 500 1008 l 190 1139 m 36 0 l 36 922 l 219 922 l 219 321 l 581 922 l 782 922 l 782 0 l 600 0 l 600 628 l 217 0 l 36 0 z "},"Ў":{"ha":799,"x_min":36,"x_max":761,"o":"m 36 0 m 625 1275 q 606 1174 625 1217 q 556 1102 588 1131 q 484 1059 525 1074 q 400 1044 443 1044 q 316 1059 357 1044 q 244 1102 275 1074 q 194 1174 213 1131 q 175 1275 175 1217 l 289 1275 q 320 1185 292 1217 q 400 1154 349 1154 q 480 1185 451 1154 q 511 1275 508 1217 l 625 1275 m 761 304 q 665 52 761 136 q 390 -32 568 -32 q 138 44 228 -32 q 47 297 49 121 l 218 297 q 267 163 219 206 q 394 121 314 121 q 526 165 478 121 q 574 304 574 208 l 574 464 q 475 375 542 406 q 324 344 408 344 q 206 364 258 344 q 115 425 153 383 q 57 531 78 467 q 36 683 36 594 l 36 922 l 226 922 l 226 685 q 274 546 226 589 q 393 503 322 503 q 524 551 475 503 q 574 683 574 600 l 574 922 l 761 922 l 761 304 l 761 304 z "},"Џ":{"ha":801,"x_min":36,"x_max":782,"o":"m 339 -235 l 339 0 l 36 0 l 36 922 l 225 922 l 225 164 l 592 164 l 592 922 l 782 922 l 782 0 l 476 0 l 476 -235 l 339 -235 z "},"Б":{"ha":742,"x_min":36,"x_max":736,"o":"m 438 582 q 656 507 576 582 q 736 292 736 432 q 656 76 736 151 q 438 0 576 0 l 36 0 l 36 922 l 574 922 l 574 757 l 224 757 l 224 582 l 438 582 m 224 432 l 224 156 l 425 156 q 531 194 492 156 q 571 294 571 232 q 533 394 571 356 q 425 432 494 432 l 224 432 z "},"Д":{"ha":990,"x_min":15,"x_max":975,"o":"m 15 -235 l 15 164 l 75 164 q 143 178 114 164 q 193 235 172 192 q 226 356 214 278 q 246 563 239 433 l 265 922 l 863 922 l 863 164 l 975 164 l 975 -235 l 836 -235 l 836 0 l 154 0 l 154 -235 l 15 -235 m 424 765 l 414 563 q 388 318 407 415 q 339 164 368 221 l 674 164 l 674 765 l 424 765 z "},"Ж":{"ha":1233,"x_min":10,"x_max":1222,"o":"m 993 0 l 707 379 l 707 0 l 526 0 l 526 379 l 240 0 l 10 0 l 397 469 l 28 922 l 251 922 l 526 581 l 526 922 l 707 922 l 707 581 l 982 922 l 1206 922 l 835 469 l 1222 0 l 993 0 z "},"З":{"ha":783,"x_min":8,"x_max":779,"o":"m 313 404 l 313 564 l 399 564 q 521 598 478 564 q 564 688 564 632 q 523 768 564 740 q 393 796 482 796 q 251 760 296 796 q 207 642 207 724 l 25 642 q 45 765 25 708 q 109 864 65 822 q 223 929 153 906 q 394 953 293 953 q 552 934 485 953 q 663 882 619 915 q 728 802 707 849 q 750 700 750 756 q 711 569 750 622 q 597 496 672 515 q 728 422 676 481 q 779 264 779 364 q 677 47 779 126 q 392 -32 575 -32 q 217 -7 289 -32 q 98 63 144 18 q 30 167 51 107 q 8 299 8 228 l 194 299 q 246 172 200 215 q 397 128 292 128 q 539 163 489 128 q 589 275 589 199 q 541 377 589 350 q 406 404 493 404 l 313 404 z "},"И":{"ha":815,"x_min":36,"x_max":782,"o":"m 36 0 l 36 922 l 219 922 l 219 321 l 581 922 l 782 922 l 782 0 l 600 0 l 600 628 l 217 0 l 36 0 z "},"Й":{"ha":815,"x_min":36,"x_max":782,"o":"m 36 0 m 633 1275 q 615 1174 633 1217 q 565 1102 596 1131 q 492 1059 533 1074 q 408 1044 451 1044 q 324 1059 365 1044 q 252 1102 283 1074 q 202 1174 221 1131 q 183 1275 183 1217 l 297 1275 q 328 1185 300 1217 q 408 1154 357 1154 q 488 1185 460 1154 q 519 1275 517 1217 l 633 1275 m 36 0 l 36 922 l 219 922 l 219 321 l 581 922 l 782 922 l 782 0 l 600 0 l 600 628 l 217 0 l 36 0 z "},"Л":{"ha":872,"x_min":11,"x_max":838,"o":"m 647 0 l 647 765 l 399 765 l 388 563 q 356 269 378 381 q 294 99 333 158 q 194 19 254 39 q 46 0 133 0 l 11 0 l 11 164 l 33 164 q 113 176 81 164 q 166 231 144 189 q 199 351 188 272 q 219 563 211 431 l 240 922 l 838 922 l 838 0 l 647 0 z "},"У":{"ha":799,"x_min":36,"x_max":761,"o":"m 761 304 q 665 52 761 136 q 390 -32 568 -32 q 138 44 228 -32 q 47 297 49 121 l 218 297 q 267 163 219 206 q 394 121 314 121 q 526 165 478 121 q 574 304 574 208 l 574 464 q 475 375 542 406 q 324 344 408 344 q 206 364 258 344 q 115 425 153 383 q 57 531 78 467 q 36 683 36 594 l 36 922 l 226 922 l 226 685 q 274 546 226 589 q 393 503 322 503 q 524 551 475 503 q 574 683 574 600 l 574 922 l 761 922 l 761 304 l 761 304 z "},"Ц":{"ha":908,"x_min":36,"x_max":893,"o":"m 756 -235 l 756 0 l 36 0 l 36 922 l 225 922 l 225 164 l 592 164 l 592 922 l 782 922 l 782 164 l 893 164 l 893 -235 l 756 -235 z "},"Ч":{"ha":792,"x_min":31,"x_max":756,"o":"m 568 0 l 568 367 q 455 334 519 346 q 319 322 390 322 q 201 335 254 322 q 110 382 147 349 q 51 473 72 415 q 31 621 31 531 l 31 922 l 221 922 l 221 625 q 263 508 221 538 q 382 479 306 479 q 481 488 432 479 q 568 517 531 497 l 568 922 l 756 922 l 756 0 l 568 0 z "},"Ш":{"ha":1139,"x_min":36,"x_max":1101,"o":"m 36 0 l 36 922 l 225 922 l 225 164 l 475 164 l 475 922 l 664 922 l 664 164 l 914 164 l 914 922 l 1101 922 l 1101 0 l 36 0 z "},"Щ":{"ha":1229,"x_min":36,"x_max":1215,"o":"m 1076 -235 l 1076 0 l 36 0 l 36 922 l 225 922 l 225 164 l 475 164 l 475 922 l 664 922 l 664 164 l 914 164 l 914 922 l 1101 922 l 1101 164 l 1215 164 l 1215 -235 l 1076 -235 z "},"Ъ":{"ha":997,"x_min":11,"x_max":992,"o":"m 667 582 q 801 565 742 582 q 903 512 861 547 q 969 422 946 476 q 992 293 992 368 q 912 75 992 150 q 693 0 832 0 l 292 0 l 292 765 l 11 765 l 11 922 l 479 922 l 479 582 l 667 582 m 479 432 l 479 156 l 681 156 q 787 194 747 156 q 826 294 826 232 q 788 394 826 356 q 681 432 750 432 l 479 432 z "},"Ы":{"ha":1001,"x_min":36,"x_max":967,"o":"m 36 0 m 774 0 l 774 922 l 967 922 l 967 0 l 774 0 m 224 432 l 224 156 l 425 156 q 531 194 492 156 q 571 294 571 232 q 533 394 571 356 q 425 432 494 432 l 224 432 m 438 582 q 656 507 576 582 q 736 292 736 432 q 656 76 736 151 q 438 0 576 0 l 36 0 l 36 922 l 224 922 l 224 582 l 438 582 z "},"Ь":{"ha":742,"x_min":36,"x_max":736,"o":"m 224 432 l 224 156 l 425 156 q 531 194 492 156 q 571 294 571 232 q 533 394 571 356 q 425 432 494 432 l 224 432 m 438 582 q 656 507 576 582 q 736 292 736 432 q 656 76 736 151 q 438 0 576 0 l 36 0 l 36 922 l 224 922 l 224 582 l 438 582 z "},"Э":{"ha":851,"x_min":7,"x_max":831,"o":"m 200 317 q 272 183 219 229 q 410 136 324 136 q 567 206 513 136 q 633 403 622 275 l 324 403 l 324 561 l 628 561 q 556 727 611 668 q 400 786 500 786 q 275 742 331 786 q 200 619 219 699 l 7 619 q 44 750 14 689 q 124 856 74 811 q 245 927 175 901 q 401 953 315 953 q 580 918 500 953 q 715 819 660 883 q 801 660 771 754 q 831 450 831 567 q 798 241 831 331 q 708 90 765 151 q 572 -1 650 29 q 404 -32 494 -32 q 257 -7 324 -32 q 140 64 190 18 q 55 174 89 110 q 7 317 21 238 l 200 317 z "},"Ю":{"ha":1192,"x_min":32,"x_max":1164,"o":"m 32 0 l 32 922 l 225 922 l 225 546 l 286 546 q 420 846 308 739 q 724 953 532 953 q 912 919 829 953 q 1050 819 994 885 q 1135 660 1106 754 q 1164 449 1164 567 q 1051 89 1164 210 q 724 -32 938 -32 q 410 78 524 -32 q 282 394 297 188 l 225 394 l 225 0 l 32 0 m 724 133 q 821 152 775 133 q 901 209 867 171 q 954 307 935 247 q 974 449 974 367 q 910 697 974 613 q 724 782 846 782 q 536 697 601 782 q 471 449 471 613 q 537 209 471 285 q 724 133 603 133 z "},"Я":{"ha":803,"x_min":10,"x_max":765,"o":"m 442 361 l 229 0 l 10 0 l 244 368 q 81 456 139 386 q 22 642 22 525 q 102 850 22 778 q 321 922 182 922 l 765 922 l 765 0 l 578 0 l 578 361 l 442 361 m 578 507 l 578 765 l 339 765 q 233 731 271 765 q 194 638 194 697 q 233 542 194 578 q 339 507 271 507 l 578 507 z "},"б":{"ha":749,"x_min":25,"x_max":721,"o":"m 374 -18 q 117 83 208 -18 q 25 361 25 183 l 25 476 q 43 688 25 601 q 99 828 61 775 q 199 906 138 882 q 349 931 261 931 l 426 931 q 469 934 450 931 q 502 948 488 938 q 527 978 517 958 q 542 1029 538 997 l 649 1029 q 625 931 643 976 q 578 854 607 886 q 508 804 549 822 q 417 786 467 786 l 328 786 q 216 727 251 786 q 181 574 181 668 q 228 623 201 603 q 286 655 256 643 q 349 672 317 667 q 413 676 382 676 q 542 653 485 676 q 640 585 600 629 q 700 478 679 540 q 721 339 721 415 q 697 190 721 256 q 627 77 672 124 q 518 6 582 31 q 374 -18 454 -18 m 371 129 q 543 342 543 129 q 372 551 543 551 q 200 340 200 551 q 371 129 200 129 z "},"в":{"ha":700,"x_min":40,"x_max":688,"o":"m 40 0 l 40 683 l 447 683 q 550 670 508 683 q 618 635 592 657 q 656 582 644 613 q 667 518 667 551 q 635 420 667 457 q 556 369 604 383 q 604 351 581 364 q 647 317 628 338 q 676 266 665 296 q 688 196 688 236 q 672 117 688 153 q 625 55 657 81 q 541 15 593 29 q 417 0 489 0 l 40 0 m 390 128 q 508 221 508 128 q 401 313 508 313 l 213 313 l 213 128 l 390 128 m 394 407 q 464 426 439 407 q 489 483 489 444 q 390 561 489 561 l 213 561 l 213 407 l 394 407 z "},"г":{"ha":486,"x_min":42,"x_max":476,"o":"m 42 0 l 42 683 l 476 683 l 476 539 l 218 539 l 218 0 l 42 0 z "},"д":{"ha":817,"x_min":15,"x_max":801,"o":"m 15 -207 l 15 144 l 44 144 q 103 154 79 144 q 145 194 128 164 q 172 280 163 225 q 188 426 182 335 l 203 683 l 696 683 l 696 144 l 801 144 l 801 -207 l 671 -207 l 671 0 l 146 0 l 146 -207 l 15 -207 m 332 539 l 325 417 q 318 342 322 382 q 307 266 314 303 q 291 197 300 229 q 271 144 282 165 l 519 144 l 519 539 l 332 539 z "},"ж":{"ha":951,"x_min":8,"x_max":942,"o":"m 558 422 l 726 683 l 932 683 l 685 349 l 942 0 l 729 0 l 558 256 l 558 0 l 392 0 l 392 256 l 221 0 l 8 0 l 265 349 l 18 683 l 224 683 l 392 422 l 392 683 l 558 683 l 558 422 z "},"з":{"ha":651,"x_min":13,"x_max":638,"o":"m 272 301 l 272 418 l 331 418 q 413 438 381 418 q 446 501 446 457 q 326 581 446 581 q 226 554 256 581 q 196 471 196 528 l 18 471 q 41 560 22 518 q 97 634 60 603 q 192 683 135 665 q 332 701 250 701 q 545 649 475 701 q 615 515 615 597 q 583 419 615 457 q 493 367 550 382 q 594 314 551 356 q 638 199 638 272 q 616 108 638 149 q 555 40 594 68 q 459 -3 515 13 q 332 -18 403 -18 q 190 2 249 -18 q 93 56 132 22 q 35 135 54 90 q 13 228 17 179 l 190 228 q 224 139 193 169 q 331 108 256 108 q 424 131 388 108 q 461 210 461 153 q 431 281 461 260 q 335 301 400 301 l 272 301 z "},"и":{"ha":708,"x_min":40,"x_max":667,"o":"m 40 0 l 40 683 l 218 683 l 218 239 l 479 683 l 667 683 l 667 0 l 490 0 l 490 464 l 214 0 l 40 0 z "},"й":{"ha":708,"x_min":40,"x_max":667,"o":"m 40 0 m 581 1036 q 562 935 581 978 q 512 863 543 892 q 440 820 481 835 q 356 806 399 806 q 272 820 313 806 q 199 863 231 835 q 149 935 168 892 q 131 1036 131 978 l 244 1036 q 276 947 247 978 q 356 915 304 915 q 435 947 407 915 q 467 1036 464 978 l 581 1036 m 40 0 l 40 683 l 218 683 l 218 239 l 479 683 l 667 683 l 667 0 l 490 0 l 490 464 l 214 0 l 40 0 z "},"л":{"ha":736,"x_min":15,"x_max":696,"o":"m 519 0 l 519 539 l 332 539 l 325 417 q 299 201 317 283 q 249 74 282 119 q 166 15 217 29 q 43 0 115 0 l 15 0 l 15 144 l 33 144 q 97 153 71 144 q 142 192 124 163 q 171 276 160 221 q 188 426 182 332 l 203 683 l 696 683 l 696 0 l 519 0 z "},"м":{"ha":869,"x_min":40,"x_max":829,"o":"m 668 0 l 668 474 l 521 0 l 347 0 l 201 471 l 201 0 l 40 0 l 40 683 l 292 683 l 438 197 l 583 683 l 829 683 l 829 0 l 668 0 z "},"н":{"ha":708,"x_min":40,"x_max":668,"o":"m 40 0 l 40 683 l 217 683 l 217 422 l 492 422 l 492 683 l 668 683 l 668 0 l 492 0 l 492 279 l 217 279 l 217 0 l 40 0 z "},"п":{"ha":708,"x_min":40,"x_max":668,"o":"m 40 0 l 40 683 l 668 683 l 668 0 l 492 0 l 492 539 l 217 539 l 217 0 l 40 0 z "},"т":{"ha":665,"x_min":10,"x_max":654,"o":"m 244 0 l 244 539 l 10 539 l 10 683 l 654 683 l 654 539 l 421 539 l 421 0 l 244 0 z "},"ц":{"ha":789,"x_min":40,"x_max":774,"o":"m 40 683 l 217 683 l 217 143 l 490 143 l 490 683 l 667 683 l 667 143 l 774 143 l 774 -207 l 643 -207 l 643 0 l 40 0 l 40 683 z "},"ч":{"ha":697,"x_min":29,"x_max":656,"o":"m 479 0 l 479 269 q 385 244 439 254 q 271 235 331 235 q 171 245 215 235 q 95 282 126 256 q 47 355 64 308 q 29 474 29 401 l 29 683 l 206 683 l 206 476 q 238 390 206 411 q 331 368 271 368 q 411 375 372 368 q 479 396 450 382 l 479 683 l 656 683 l 656 0 l 479 0 z "},"ш":{"ha":1038,"x_min":40,"x_max":997,"o":"m 40 0 l 40 683 l 217 683 l 217 144 l 433 144 l 433 683 l 604 683 l 604 144 l 821 144 l 821 683 l 997 683 l 997 0 l 40 0 z "},"щ":{"ha":1118,"x_min":40,"x_max":1103,"o":"m 972 -207 l 972 0 l 40 0 l 40 683 l 217 683 l 217 144 l 433 144 l 433 683 l 604 683 l 604 144 l 821 144 l 821 683 l 997 683 l 997 144 l 1103 144 l 1103 -207 l 972 -207 z "},"ъ":{"ha":940,"x_min":10,"x_max":921,"o":"m 443 465 l 644 465 q 759 452 708 465 q 846 411 810 439 q 901 340 882 383 q 921 235 921 296 q 847 56 921 111 q 650 0 774 0 l 267 0 l 267 539 l 10 539 l 10 683 l 443 683 l 443 465 m 443 336 l 443 135 l 660 135 q 737 160 708 135 q 765 235 765 186 q 737 310 765 285 q 660 336 708 336 l 443 336 z "},"ы":{"ha":979,"x_min":40,"x_max":933,"o":"m 40 0 m 217 683 l 217 465 l 444 465 q 628 406 563 465 q 694 235 694 347 q 628 60 694 121 q 444 0 563 0 l 40 0 l 40 683 l 217 683 m 217 336 l 217 135 l 433 135 q 511 160 483 135 q 539 235 539 186 q 511 310 539 285 q 433 336 483 336 l 217 336 m 753 0 l 753 683 l 933 683 l 933 0 l 753 0 z "},"ь":{"ha":713,"x_min":40,"x_max":694,"o":"m 217 683 l 217 465 l 444 465 q 628 406 563 465 q 694 235 694 347 q 628 60 694 121 q 444 0 563 0 l 40 0 l 40 683 l 217 683 m 217 336 l 217 135 l 433 135 q 511 160 483 135 q 539 235 539 186 q 511 310 539 285 q 433 336 483 336 l 217 336 z "},"э":{"ha":678,"x_min":14,"x_max":650,"o":"m 267 299 l 267 401 l 474 401 q 460 468 469 439 q 433 518 450 497 q 391 550 417 539 q 328 561 365 561 q 235 535 269 561 q 194 461 201 510 l 15 461 q 58 575 25 529 q 134 649 90 621 q 229 690 178 678 q 331 701 281 701 q 456 681 397 701 q 557 618 514 661 q 625 507 600 575 q 650 344 650 439 q 563 74 650 167 q 329 -18 476 -18 q 223 -5 275 -18 q 128 38 171 8 q 54 113 85 67 q 14 222 24 158 l 192 222 q 203 181 192 200 q 234 149 215 163 q 278 128 253 136 q 329 121 303 121 q 381 130 356 121 q 426 160 406 139 q 459 215 446 181 q 475 299 472 249 l 267 299 z "},"ю":{"ha":1015,"x_min":40,"x_max":986,"o":"m 40 0 l 40 683 l 221 683 l 221 413 l 293 413 q 403 624 313 546 q 638 701 493 701 q 783 676 718 701 q 892 603 847 650 q 962 490 938 557 q 986 343 986 424 q 962 194 986 261 q 892 81 938 128 q 783 8 847 33 q 638 -18 718 -18 q 505 3 564 -18 q 401 63 446 24 q 329 156 357 101 q 292 276 301 210 l 221 276 l 221 0 l 40 0 m 639 133 q 804 342 804 133 q 639 549 804 549 q 474 342 474 549 q 639 133 474 133 z "},"я":{"ha":685,"x_min":8,"x_max":644,"o":"m 468 0 l 468 231 l 343 231 l 194 0 l 8 0 l 179 244 q 64 315 104 264 q 24 454 24 367 q 90 625 24 567 q 272 683 156 683 l 644 683 l 644 0 l 468 0 m 468 364 l 468 549 l 285 549 q 206 525 235 549 q 178 457 178 501 q 206 388 178 411 q 285 364 235 364 l 468 364 z "},"ђ":{"ha":699,"x_min":0,"x_max":656,"o":"m 656 -46 q 635 -159 656 -108 q 579 -247 615 -210 q 494 -303 543 -283 q 389 -324 446 -324 q 366 -323 376 -324 q 346 -321 356 -322 l 346 -160 q 360 -165 353 -162 q 381 -167 367 -167 q 456 -131 438 -167 q 474 -37 474 -94 l 474 424 q 447 528 474 499 q 367 558 421 558 q 299 545 328 558 q 253 510 271 532 q 226 457 235 488 q 217 392 217 426 l 217 0 l 36 0 l 36 747 l 0 747 l 0 874 l 36 874 l 36 933 l 217 933 l 217 874 l 446 874 l 446 747 l 217 747 l 217 594 q 293 672 238 642 q 422 701 349 701 q 515 686 472 701 q 588 643 557 671 q 638 575 619 615 q 656 483 656 535 l 656 -46 z "},"ѓ":{"ha":486,"x_min":42,"x_max":476,"o":"m 42 0 m 167 769 l 124 846 l 411 1014 l 476 900 l 167 769 m 42 0 l 42 683 l 476 683 l 476 539 l 218 539 l 218 0 l 42 0 z "},"є":{"ha":678,"x_min":28,"x_max":664,"o":"m 203 299 q 219 215 206 249 q 251 160 232 181 q 296 130 271 139 q 349 121 321 121 q 400 128 375 121 q 444 149 425 136 q 474 181 463 163 q 486 222 486 200 l 664 222 q 624 113 654 158 q 550 38 593 67 q 455 -5 507 8 q 349 -18 403 -18 q 115 74 201 -18 q 28 344 28 167 q 53 507 28 439 q 121 618 78 575 q 222 681 164 661 q 347 701 281 701 q 449 690 397 701 q 544 649 500 678 q 619 575 588 621 q 663 461 651 529 l 483 461 q 442 535 476 510 q 350 561 408 561 q 286 550 313 561 q 243 518 260 539 q 217 468 226 497 q 204 401 208 439 l 411 401 l 411 299 l 203 299 z "},"љ":{"ha":1192,"x_min":14,"x_max":1172,"o":"m 518 0 l 518 539 l 331 539 l 325 439 q 301 210 317 297 q 253 77 285 124 q 170 15 221 31 q 43 0 119 0 l 14 0 l 14 143 l 33 143 q 94 154 68 143 q 140 198 121 165 q 169 290 158 231 q 188 444 181 349 l 203 683 l 694 683 l 694 465 l 903 465 q 1014 452 964 465 q 1099 410 1064 439 q 1153 338 1135 382 q 1172 235 1172 294 q 1106 60 1172 121 q 924 0 1040 0 l 518 0 m 694 336 l 694 135 l 911 135 q 990 160 961 135 q 1018 235 1018 186 q 990 310 1018 285 q 911 336 961 336 l 694 336 z "},"њ":{"ha":1071,"x_min":40,"x_max":1053,"o":"m 40 0 l 40 683 l 217 683 l 217 465 l 446 465 l 446 683 l 622 683 l 622 465 l 785 465 q 981 410 908 465 q 1053 233 1053 356 q 981 56 1053 113 q 785 0 910 0 l 446 0 l 446 336 l 217 336 l 217 0 l 40 0 m 622 336 l 622 135 l 792 135 q 869 160 840 135 q 897 235 897 186 q 869 310 897 285 q 792 336 840 336 l 622 336 z "},"ќ":{"ha":671,"x_min":36,"x_max":664,"o":"m 36 0 m 244 769 l 201 846 l 489 1014 l 554 900 l 244 769 m 456 0 l 306 307 l 218 217 l 218 0 l 36 0 l 36 683 l 218 683 l 218 424 l 443 683 l 664 683 l 435 432 l 658 0 l 456 0 z "},"ѝ":{"ha":708,"x_min":40,"x_max":667,"o":"m 40 0 m 138 900 l 203 1014 l 490 846 l 447 769 l 138 900 m 40 0 l 40 683 l 218 683 l 218 239 l 479 683 l 667 683 l 667 0 l 490 0 l 490 464 l 214 0 l 40 0 z "},"ў":{"ha":697,"x_min":36,"x_max":651,"o":"m 36 0 m 471 90 q 401 19 451 44 q 286 -7 350 -7 q 186 10 232 -7 q 107 60 140 28 q 55 138 74 93 q 36 240 36 183 l 36 683 l 217 683 l 217 267 q 332 139 217 139 q 433 175 394 139 q 471 267 471 211 l 471 683 l 651 683 l 651 -18 q 627 -147 651 -90 q 560 -243 603 -204 q 460 -303 518 -282 q 338 -324 403 -324 q 111 -247 186 -324 q 36 -37 36 -171 l 204 -37 q 240 -133 204 -99 q 346 -168 275 -168 q 393 -158 371 -168 q 433 -128 415 -147 q 460 -82 450 -110 q 471 -21 471 -54 l 471 90 m 575 1036 q 556 935 575 978 q 506 863 538 892 q 434 820 475 835 q 350 806 393 806 q 266 820 307 806 q 194 863 225 835 q 144 935 163 892 q 125 1036 125 978 l 239 1036 q 270 947 242 978 q 350 915 299 915 q 430 947 401 915 q 461 1036 458 978 l 575 1036 z "},"џ":{"ha":708,"x_min":40,"x_max":667,"o":"m 40 683 l 217 683 l 217 143 l 490 143 l 490 683 l 667 683 l 667 0 l 418 0 l 418 -207 l 288 -207 l 288 0 l 40 0 l 40 683 z "},"Ґ":{"ha":696,"x_min":31,"x_max":679,"o":"m 540 922 l 540 1157 l 679 1157 l 679 765 l 219 765 l 219 0 l 31 0 l 31 922 l 540 922 z "},"ґ":{"ha":486,"x_min":40,"x_max":475,"o":"m 217 539 l 217 0 l 40 0 l 40 683 l 344 683 l 344 890 l 475 890 l 475 539 l 217 539 z "},"Ғ":{"ha":772,"x_min":4,"x_max":756,"o":"m 296 386 l 296 0 l 108 0 l 108 386 l 4 386 l 4 503 l 108 503 l 108 922 l 756 922 l 756 765 l 296 765 l 296 503 l 529 503 l 529 386 l 296 386 z "},"ғ":{"ha":549,"x_min":0,"x_max":539,"o":"m 104 0 l 104 243 l 0 243 l 0 360 l 104 360 l 104 683 l 539 683 l 539 539 l 281 539 l 281 360 l 525 360 l 525 243 l 281 243 l 281 0 l 104 0 z "},"Җ":{"ha":1321,"x_min":10,"x_max":1306,"o":"m 1168 -235 l 1168 0 l 993 0 l 707 379 l 707 0 l 526 0 l 526 379 l 240 0 l 10 0 l 397 469 l 28 922 l 251 922 l 526 581 l 526 922 l 707 922 l 707 581 l 982 922 l 1206 922 l 835 469 l 1086 164 l 1306 164 l 1306 -235 l 1168 -235 z "},"җ":{"ha":1038,"x_min":8,"x_max":1022,"o":"m 558 422 l 726 683 l 932 683 l 685 349 l 835 144 l 1022 144 l 1022 -207 l 892 -207 l 892 0 l 729 0 l 558 256 l 558 0 l 392 0 l 392 256 l 221 0 l 8 0 l 265 349 l 18 683 l 224 683 l 392 422 l 392 683 l 558 683 l 558 422 z "},"Ҙ":{"ha":783,"x_min":8,"x_max":779,"o":"m 313 404 l 313 564 l 399 564 q 521 598 478 564 q 564 688 564 632 q 523 768 564 740 q 393 796 482 796 q 251 760 296 796 q 207 642 207 724 l 25 642 q 45 765 25 708 q 109 864 65 822 q 223 929 153 906 q 394 953 293 953 q 552 934 485 953 q 663 882 619 915 q 728 802 707 849 q 750 700 750 756 q 711 569 750 622 q 597 496 672 515 q 728 422 676 481 q 779 264 779 364 q 678 48 779 126 q 394 -32 576 -31 q 506 -108 465 -64 q 547 -206 547 -153 q 509 -292 547 -260 q 396 -324 471 -324 q 305 -313 339 -324 q 250 -287 271 -303 l 250 -171 q 283 -181 265 -176 q 324 -185 301 -185 q 344 -178 338 -185 q 397 -164 376 -175 q 417 -133 417 -153 q 413 -108 417 -119 q 398 -83 410 -96 q 365 -57 386 -71 q 311 -26 344 -43 q 174 12 231 -17 q 80 83 117 40 q 26 181 43 125 q 8 299 8 236 l 194 299 q 246 172 200 215 q 397 128 292 128 q 539 163 489 128 q 589 275 589 199 q 541 377 589 350 q 406 404 493 404 l 313 404 z "},"ҙ":{"ha":651,"x_min":13,"x_max":638,"o":"m 272 301 l 272 418 l 331 418 q 413 438 381 418 q 446 501 446 457 q 326 581 446 581 q 226 554 256 581 q 196 471 196 528 l 18 471 q 41 560 22 518 q 97 634 60 603 q 192 683 135 665 q 332 701 250 701 q 545 649 475 701 q 615 515 615 597 q 583 419 615 457 q 493 367 550 382 q 594 314 551 356 q 638 199 638 272 q 616 108 638 149 q 555 40 594 68 q 459 -3 515 13 q 332 -18 403 -18 q 469 -99 419 -51 q 519 -206 519 -146 q 481 -292 519 -260 q 368 -324 443 -324 q 277 -313 311 -324 q 224 -287 243 -303 l 224 -171 q 297 -185 254 -185 q 364 -172 339 -185 q 389 -135 389 -160 q 384 -106 389 -119 q 365 -78 379 -93 q 323 -48 350 -64 q 251 -11 296 -32 q 147 20 190 -3 q 74 75 103 43 q 31 146 46 107 q 13 228 15 185 l 190 228 q 224 139 193 169 q 331 108 256 108 q 424 131 388 108 q 461 210 461 153 q 431 281 461 260 q 335 301 400 301 l 272 301 z "},"Қ":{"ha":933,"x_min":32,"x_max":918,"o":"m 781 -235 l 781 0 l 599 0 l 325 415 l 222 314 l 222 0 l 32 0 l 32 922 l 222 922 l 222 547 l 575 922 l 825 922 l 461 558 l 724 164 l 918 164 l 918 -235 l 781 -235 z "},"қ":{"ha":754,"x_min":36,"x_max":740,"o":"m 610 -207 l 610 0 l 456 0 l 306 307 l 218 217 l 218 0 l 36 0 l 36 683 l 218 683 l 218 424 l 443 683 l 664 683 l 435 432 l 583 144 l 740 144 l 740 -207 l 610 -207 z "},"Ҡ":{"ha":1094,"x_min":11,"x_max":1090,"o":"m 861 0 l 585 418 l 476 313 l 476 0 l 292 0 l 292 765 l 11 765 l 11 922 l 476 922 l 476 542 l 838 922 l 1081 922 l 717 558 l 1090 0 l 861 0 z "},"ҡ":{"ha":897,"x_min":10,"x_max":893,"o":"m 689 0 l 536 310 l 444 217 l 444 0 l 267 0 l 267 539 l 10 539 l 10 683 l 444 683 l 444 419 l 676 683 l 893 683 l 661 432 l 888 0 l 689 0 z "},"Ң":{"ha":908,"x_min":36,"x_max":893,"o":"m 756 -235 l 756 0 l 592 0 l 592 417 l 225 417 l 225 0 l 36 0 l 36 922 l 225 922 l 225 574 l 592 574 l 592 922 l 782 922 l 782 164 l 893 164 l 893 -235 l 756 -235 z "},"ң":{"ha":789,"x_min":40,"x_max":774,"o":"m 643 -207 l 643 0 l 492 0 l 492 279 l 217 279 l 217 0 l 40 0 l 40 683 l 217 683 l 217 422 l 492 422 l 492 683 l 668 683 l 668 144 l 774 144 l 774 -207 l 643 -207 z "},"Ҫ":{"ha":851,"x_min":21,"x_max":844,"o":"m 844 317 q 796 174 829 238 q 711 64 763 110 q 592 -7 660 18 q 442 -32 524 -32 q 554 -108 513 -64 q 596 -208 596 -151 q 557 -292 596 -261 q 438 -324 518 -324 q 356 -313 392 -324 q 300 -287 319 -303 l 300 -171 q 333 -181 314 -178 q 376 -185 351 -185 q 465 -129 465 -185 q 442 -80 465 -104 q 349 -22 419 -56 q 215 31 275 -7 q 112 128 156 68 q 44 269 68 188 q 21 454 21 350 q 51 662 21 569 q 136 819 81 754 q 272 918 192 883 q 450 953 351 953 q 606 927 536 953 q 727 856 676 901 q 808 750 778 811 q 844 619 838 689 l 651 619 q 579 740 632 694 q 443 786 526 786 q 274 699 331 786 q 217 458 217 613 q 273 222 217 307 q 443 136 329 136 q 579 183 526 136 q 651 317 632 229 l 844 317 z "},"ҫ":{"ha":668,"x_min":24,"x_max":653,"o":"m 651 247 q 619 142 644 189 q 553 60 593 94 q 463 5 514 25 q 351 -18 411 -15 q 490 -99 439 -51 q 540 -208 540 -146 q 501 -292 540 -261 q 381 -324 461 -324 q 299 -313 335 -324 q 243 -287 263 -303 l 243 -171 q 276 -181 258 -178 q 319 -185 294 -185 q 408 -129 408 -185 q 403 -103 408 -117 q 382 -77 397 -90 q 340 -48 367 -64 q 272 -12 314 -32 q 92 97 160 7 q 24 350 24 188 q 47 508 24 442 q 111 617 69 575 q 212 681 153 660 q 343 701 271 701 q 465 683 410 701 q 560 631 519 665 q 625 547 601 596 q 653 439 649 499 l 471 439 q 428 522 464 492 q 342 551 393 551 q 288 542 313 551 q 244 509 263 532 q 214 448 225 486 q 203 354 203 410 q 243 188 203 242 q 336 133 283 133 q 426 163 389 133 q 469 247 464 192 l 651 247 z "},"γ":{"ha":696,"x_min":8,"x_max":686,"o":"m 261 -324 l 261 -7 l 8 683 l 206 683 l 351 226 l 500 683 l 686 683 l 433 -7 l 433 -324 l 261 -324 z "},"Ҳ":{"ha":929,"x_min":6,"x_max":914,"o":"m 776 -235 l 776 0 l 593 0 l 417 317 l 231 0 l 6 0 l 304 471 l 22 922 l 250 922 l 417 624 l 585 922 l 808 922 l 528 479 l 725 164 l 914 164 l 914 -235 l 776 -235 z "},"ҳ":{"ha":772,"x_min":4,"x_max":758,"o":"m 628 -207 l 628 0 l 457 0 l 338 206 l 221 0 l 4 0 l 233 349 l 11 683 l 229 683 l 344 485 l 461 683 l 671 683 l 444 349 l 581 144 l 758 144 l 758 -207 l 628 -207 z "},"Ҷ":{"ha":883,"x_min":31,"x_max":868,"o":"m 731 -235 l 731 0 l 568 0 l 568 367 q 455 334 519 346 q 319 322 390 322 q 201 335 254 322 q 110 382 147 349 q 51 473 72 415 q 31 621 31 531 l 31 922 l 221 922 l 221 625 q 263 508 221 538 q 382 479 306 479 q 481 488 432 479 q 568 517 531 497 l 568 922 l 756 922 l 756 164 l 868 164 l 868 -235 l 731 -235 z "},"ҷ":{"ha":778,"x_min":29,"x_max":763,"o":"m 632 -207 l 632 0 l 479 0 l 479 269 q 385 244 439 254 q 271 235 331 235 q 171 245 215 235 q 95 282 126 256 q 47 355 64 308 q 29 474 29 401 l 29 683 l 206 683 l 206 476 q 238 390 206 411 q 331 368 271 368 q 411 375 372 368 q 479 396 450 382 l 479 683 l 656 683 l 656 144 l 763 144 l 763 -207 l 632 -207 z "},"Һ":{"ha":792,"x_min":36,"x_max":761,"o":"m 224 922 l 224 556 q 337 588 272 576 q 472 600 401 600 q 591 587 538 600 q 682 540 644 574 q 740 449 719 507 q 761 301 761 392 l 761 0 l 571 0 l 571 297 q 528 414 571 385 q 410 443 486 443 q 310 434 360 443 q 224 406 261 425 l 224 0 l 36 0 l 36 922 l 224 922 z "},"Ӄ":{"ha":839,"x_min":36,"x_max":825,"o":"m 810 -68 q 793 -169 810 -122 q 743 -250 776 -215 q 661 -304 710 -285 q 549 -324 613 -324 q 353 -247 422 -324 q 285 -37 285 -171 l 450 -37 q 472 -131 451 -96 q 549 -167 493 -167 q 617 -142 593 -167 q 642 -72 642 -118 q 621 9 642 -32 q 554 113 600 50 l 328 418 l 221 313 l 221 0 l 36 0 l 36 922 l 221 922 l 221 540 l 581 922 l 825 922 q 643 740 733 831 q 461 558 553 650 l 711 192 q 785 56 761 117 q 810 -68 810 -4 z "},"ӄ":{"ha":671,"x_min":40,"x_max":667,"o":"m 590 132 q 631 28 617 82 q 646 -79 646 -26 q 627 -184 646 -139 q 575 -260 608 -229 q 495 -308 542 -292 q 394 -324 449 -324 q 209 -253 274 -324 q 142 -58 144 -182 l 293 -58 q 315 -142 296 -111 q 381 -172 335 -172 q 446 -144 424 -172 q 468 -72 468 -117 q 458 -12 468 -44 q 424 72 449 19 l 310 310 l 218 217 l 218 0 l 40 0 l 40 683 l 218 683 l 218 419 l 451 683 l 667 683 l 435 432 l 590 132 z "},"Ӈ":{"ha":815,"x_min":36,"x_max":782,"o":"m 592 417 l 225 417 l 225 0 l 36 0 l 36 922 l 225 922 l 225 574 l 592 574 l 592 922 l 782 922 l 782 -46 q 761 -159 782 -108 q 702 -247 740 -210 q 610 -303 664 -283 q 493 -324 557 -324 q 297 -248 367 -324 q 226 -37 226 -172 l 392 -37 q 415 -133 393 -100 q 492 -167 436 -167 q 569 -133 547 -167 q 592 -39 592 -99 l 592 417 z "},"ӈ":{"ha":708,"x_min":40,"x_max":667,"o":"m 40 0 l 40 683 l 217 683 l 217 422 l 490 422 l 490 683 l 667 683 l 667 -54 q 647 -164 667 -114 q 592 -249 628 -214 q 507 -304 557 -285 q 394 -324 457 -324 q 206 -249 272 -324 q 140 -47 140 -175 l 306 -47 q 326 -135 307 -103 q 397 -167 344 -167 q 470 -135 450 -167 q 490 -47 490 -104 l 490 278 l 217 278 l 217 0 l 40 0 z "},"Ө":{"ha":931,"x_min":21,"x_max":904,"o":"m 464 -32 q 135 93 250 -32 q 21 453 21 218 q 50 663 21 569 q 136 820 79 756 q 275 919 193 885 q 464 953 357 953 q 652 919 569 953 q 790 819 735 885 q 875 660 846 754 q 904 449 904 567 q 791 89 904 210 q 464 -32 678 -32 m 464 133 q 553 149 511 133 q 627 195 594 164 q 681 274 660 226 q 710 388 703 322 l 214 388 q 291 194 226 256 q 464 133 356 133 m 464 782 q 299 723 361 782 q 218 547 238 664 l 706 547 q 464 782 669 782 z "},"ө":{"ha":749,"x_min":21,"x_max":719,"o":"m 372 -18 q 224 8 289 -18 q 113 82 158 35 q 44 196 68 129 q 21 342 21 263 q 45 489 21 422 q 115 603 69 556 q 226 676 161 650 q 372 701 290 701 q 517 676 453 701 q 626 603 581 650 q 695 490 671 557 q 719 342 719 424 q 695 194 719 260 q 626 81 671 128 q 516 8 581 33 q 372 -18 451 -18 m 372 133 q 533 281 511 133 l 211 281 q 372 133 232 133 m 372 549 q 211 407 236 549 l 532 407 q 372 549 508 549 z "},"Ӯ":{"ha":799,"x_min":36,"x_max":761,"o":"m 36 0 m 136 1075 l 136 1201 l 665 1201 l 665 1075 l 136 1075 m 761 304 q 665 52 761 136 q 390 -32 568 -32 q 138 44 228 -32 q 47 297 49 121 l 218 297 q 267 163 219 206 q 394 121 314 121 q 526 165 478 121 q 574 304 574 208 l 574 464 q 475 375 542 406 q 324 344 408 344 q 206 364 258 344 q 115 425 153 383 q 57 531 78 467 q 36 683 36 594 l 36 922 l 226 922 l 226 685 q 274 546 226 589 q 393 503 322 503 q 524 551 475 503 q 574 683 574 600 l 574 922 l 761 922 l 761 304 l 761 304 z "},"ӯ":{"ha":697,"x_min":36,"x_max":651,"o":"m 36 0 m 471 90 q 401 19 451 44 q 286 -7 350 -7 q 186 10 232 -7 q 107 60 140 28 q 55 138 74 93 q 36 240 36 183 l 36 683 l 217 683 l 217 267 q 332 139 217 139 q 433 175 394 139 q 471 267 471 211 l 471 683 l 651 683 l 651 -18 q 627 -147 651 -90 q 560 -243 603 -204 q 460 -303 518 -282 q 338 -324 403 -324 q 111 -247 186 -324 q 36 -37 36 -171 l 204 -37 q 240 -133 204 -99 q 346 -168 275 -168 q 393 -158 371 -168 q 433 -128 415 -147 q 460 -82 450 -110 q 471 -21 471 -54 l 471 90 m 86 836 l 86 963 l 615 963 l 615 836 l 86 836 z "},"Ԓ":{"ha":872,"x_min":11,"x_max":838,"o":"m 647 765 l 399 765 l 388 563 q 356 269 378 381 q 294 99 333 158 q 194 19 254 39 q 46 0 133 0 l 11 0 l 11 164 l 33 164 q 113 176 81 164 q 166 231 144 189 q 199 351 188 272 q 219 563 211 431 l 240 922 l 838 922 l 838 -46 q 815 -159 838 -108 q 754 -247 793 -210 q 661 -303 715 -283 q 543 -324 607 -324 q 349 -247 417 -324 q 282 -37 282 -171 l 447 -37 q 469 -132 449 -97 q 547 -167 490 -167 q 625 -133 603 -167 q 647 -39 647 -99 l 647 765 z "},"ԓ":{"ha":736,"x_min":15,"x_max":696,"o":"m 519 539 l 332 539 l 325 417 q 299 201 317 283 q 249 74 282 119 q 166 15 217 29 q 43 0 115 0 l 15 0 l 15 144 l 33 144 q 97 153 71 144 q 142 192 124 163 q 171 276 160 221 q 188 426 182 332 l 203 683 l 696 683 l 696 -56 q 676 -165 696 -115 q 622 -249 657 -214 q 536 -304 586 -285 q 424 -324 486 -324 q 235 -250 300 -324 q 169 -47 169 -176 l 335 -47 q 354 -135 335 -104 q 425 -167 374 -167 q 499 -135 478 -167 q 519 -47 519 -103 l 519 539 z "},"֏":{"ha":678,"x_min":10,"x_max":671,"o":"m 596 175 l 596 0 l 407 0 l 407 175 l 146 175 l 146 292 l 407 292 l 407 392 l 146 392 l 146 508 l 407 508 l 407 667 q 380 766 407 732 q 293 800 353 800 q 208 767 235 800 q 181 667 181 733 l 181 574 l 10 574 l 10 668 q 85 886 10 818 q 296 954 161 954 q 519 881 443 954 q 596 674 596 807 l 596 508 l 671 508 l 671 392 l 596 392 l 596 292 l 671 292 l 671 175 l 596 175 z "},"Ḍ":{"ha":843,"x_min":32,"x_max":817,"o":"m 32 0 m 379 157 q 563 235 506 157 q 619 471 619 314 q 606 604 619 549 q 560 695 592 660 q 481 747 529 731 q 363 763 432 763 l 219 763 l 219 157 l 379 157 m 32 0 l 32 922 l 389 922 q 561 891 482 922 q 697 801 640 860 q 785 660 753 743 q 817 471 817 576 q 788 278 817 365 q 707 130 760 192 q 581 34 654 68 q 418 0 507 0 l 32 0 m 307 -286 l 307 -114 l 488 -114 l 488 -286 l 307 -286 z "},"ḍ":{"ha":726,"x_min":22,"x_max":683,"o":"m 22 0 m 360 129 q 469 183 425 129 q 513 325 513 238 q 361 547 513 547 q 206 336 206 547 q 249 187 206 244 q 360 129 292 129 m 510 0 l 508 83 q 318 -18 446 -18 q 199 7 253 -18 q 106 79 144 32 q 44 194 67 126 q 22 349 22 263 q 41 491 22 426 q 96 603 60 556 q 184 676 132 650 q 303 701 236 701 q 506 594 429 701 l 506 933 l 683 933 l 683 0 l 510 0 m 265 -286 l 265 -114 l 446 -114 l 446 -286 l 265 -286 z "},"Ḓ":{"ha":843,"x_min":32,"x_max":817,"o":"m 32 0 m 379 157 q 563 235 506 157 q 619 471 619 314 q 606 604 619 549 q 560 695 592 660 q 481 747 529 731 q 363 763 432 763 l 219 763 l 219 157 l 379 157 m 32 0 l 32 922 l 389 922 q 561 891 482 922 q 697 801 640 860 q 785 660 753 743 q 817 471 817 576 q 788 278 817 365 q 707 130 760 192 q 581 34 654 68 q 418 0 507 0 l 32 0 m 392 -151 l 204 -315 l 140 -244 l 318 -58 l 465 -58 l 643 -244 l 579 -315 l 392 -151 z "},"ḓ":{"ha":726,"x_min":22,"x_max":683,"o":"m 22 0 m 360 129 q 469 183 425 129 q 513 325 513 238 q 361 547 513 547 q 206 336 206 547 q 249 187 206 244 q 360 129 292 129 m 510 0 l 508 83 q 318 -18 446 -18 q 199 7 253 -18 q 106 79 144 32 q 44 194 67 126 q 22 349 22 263 q 41 491 22 426 q 96 603 60 556 q 184 676 132 650 q 303 701 236 701 q 506 594 429 701 l 506 933 l 683 933 l 683 0 l 510 0 m 351 -151 l 164 -315 l 100 -244 l 278 -58 l 425 -58 l 603 -244 l 539 -315 l 351 -151 z "},"Ḥ":{"ha":815,"x_min":32,"x_max":779,"o":"m 32 0 m 585 0 l 585 414 l 225 414 l 225 0 l 32 0 l 32 922 l 225 922 l 225 575 l 585 575 l 585 922 l 779 922 l 779 0 l 585 0 m 324 -286 l 324 -114 l 504 -114 l 504 -286 l 324 -286 z "},"ḥ":{"ha":699,"x_min":36,"x_max":656,"o":"m 36 0 m 474 0 l 474 424 q 447 530 474 501 q 357 558 419 558 q 297 545 324 558 q 253 509 271 532 q 226 456 235 486 q 217 392 217 426 l 217 0 l 36 0 l 36 933 l 217 933 l 217 594 q 247 637 226 617 q 293 671 267 657 q 351 693 319 685 q 418 701 383 701 q 590 644 524 701 q 656 483 656 586 l 656 0 l 474 0 m 265 -286 l 265 -114 l 446 -114 l 446 -286 l 265 -286 z "},"Ḽ":{"ha":696,"x_min":32,"x_max":682,"o":"m 32 0 m 32 0 l 32 922 l 225 922 l 225 168 l 682 168 l 682 0 l 32 0 m 364 -151 l 176 -315 l 113 -244 l 290 -58 l 438 -58 l 615 -244 l 551 -315 l 364 -151 z "},"ḽ":{"ha":329,"x_min":-85,"x_max":418,"o":"m 0 0 m 72 0 l 72 933 l 253 933 l 253 0 l 72 0 m 167 -151 l -21 -315 l -85 -244 l 93 -58 l 240 -58 l 418 -244 l 354 -315 l 167 -151 z "},"Ṅ":{"ha":821,"x_min":32,"x_max":783,"o":"m 32 0 m 606 0 l 211 619 l 211 0 l 32 0 l 32 922 l 236 922 l 603 329 l 603 922 l 783 922 l 783 0 l 606 0 m 326 1043 l 326 1215 l 507 1215 l 507 1043 l 326 1043 z "},"ṅ":{"ha":699,"x_min":36,"x_max":656,"o":"m 36 0 m 474 0 l 474 414 q 447 521 474 493 q 357 549 421 549 q 217 392 217 549 l 217 0 l 36 0 l 36 683 l 208 683 l 208 583 q 293 672 240 642 q 429 701 346 701 q 519 687 478 701 q 591 643 561 672 q 638 572 621 614 q 656 474 656 529 l 656 0 l 474 0 m 267 804 l 267 976 l 447 976 l 447 804 l 267 804 z "},"Ṋ":{"ha":821,"x_min":32,"x_max":783,"o":"m 32 0 m 606 0 l 211 619 l 211 0 l 32 0 l 32 922 l 236 922 l 603 329 l 603 922 l 783 922 l 783 0 l 606 0 m 413 -151 l 225 -315 l 161 -244 l 339 -58 l 486 -58 l 664 -244 l 600 -315 l 413 -151 z "},"ṋ":{"ha":699,"x_min":36,"x_max":656,"o":"m 36 0 m 474 0 l 474 414 q 447 521 474 493 q 357 549 421 549 q 217 392 217 549 l 217 0 l 36 0 l 36 683 l 208 683 l 208 583 q 293 672 240 642 q 429 701 346 701 q 519 687 478 701 q 591 643 561 672 q 638 572 621 614 q 656 474 656 529 l 656 0 l 474 0 m 351 -151 l 164 -315 l 100 -244 l 278 -58 l 425 -58 l 603 -244 l 539 -315 l 351 -151 z "},"Ṛ":{"ha":803,"x_min":32,"x_max":783,"o":"m 32 0 m 219 763 l 219 517 l 461 517 q 571 551 539 517 q 603 639 603 586 q 572 728 603 693 q 468 763 540 763 l 219 763 m 569 0 l 569 238 q 539 333 569 304 q 425 361 508 361 l 219 361 l 219 0 l 32 0 l 32 922 l 500 922 q 616 902 564 922 q 706 847 668 882 q 763 762 743 811 q 783 656 783 713 q 748 523 783 581 q 646 442 713 465 q 733 382 707 422 q 758 261 758 342 l 758 0 l 569 0 m 318 -286 l 318 -114 l 499 -114 l 499 -286 l 318 -286 z "},"ṛ":{"ha":446,"x_min":36,"x_max":432,"o":"m 36 0 m 36 0 l 36 683 l 206 683 l 206 601 q 252 656 228 636 q 302 685 276 675 q 354 699 328 696 q 408 701 381 701 l 432 701 l 432 517 q 382 521 407 521 q 217 356 217 521 l 217 0 l 36 0 m 46 -286 l 46 -114 l 226 -114 l 226 -286 l 46 -286 z "},"Ṣ":{"ha":782,"x_min":8,"x_max":767,"o":"m 8 0 m 554 650 q 503 756 547 721 q 371 790 458 790 q 247 763 289 790 q 206 682 206 735 q 238 611 206 638 q 349 565 271 585 q 499 527 428 546 q 622 485 571 508 q 679 453 653 471 q 725 408 706 435 q 756 346 744 382 q 767 261 767 310 q 740 130 767 185 q 663 39 713 75 q 547 -15 614 3 q 399 -32 479 -32 q 242 -13 313 -32 q 119 44 171 6 q 39 141 68 83 q 8 276 10 199 l 194 276 q 252 165 197 206 q 400 124 307 124 q 533 158 486 124 q 579 254 579 192 q 573 292 579 275 q 551 323 567 308 q 507 349 535 338 q 436 371 479 361 q 291 405 350 390 q 183 442 232 419 q 69 528 108 475 q 29 669 29 582 q 50 784 29 732 q 113 874 71 836 q 219 932 156 911 q 367 953 282 953 q 522 931 454 953 q 637 868 590 908 q 709 772 683 828 q 738 650 735 717 l 554 650 m 307 -286 l 307 -114 l 488 -114 l 488 -286 l 307 -286 z "},"ṣ":{"ha":656,"x_min":13,"x_max":640,"o":"m 13 0 m 447 476 q 411 547 440 526 q 319 567 382 567 q 240 553 268 567 q 213 510 213 540 q 240 463 213 479 q 324 432 268 447 q 435 402 382 415 q 528 374 488 389 q 611 313 582 351 q 640 208 640 275 q 565 42 640 101 q 342 -18 489 -18 q 99 49 183 -18 q 13 219 15 115 l 199 219 q 236 144 199 171 q 340 118 274 118 q 425 134 389 118 q 461 189 461 150 q 428 240 461 225 q 351 267 396 256 q 213 304 265 288 q 124 344 160 321 q 56 414 75 375 q 38 499 38 453 q 53 579 38 542 q 103 644 68 617 q 192 686 138 671 q 325 701 247 701 q 544 644 474 701 q 621 476 614 588 l 447 476 m 244 -286 l 244 -114 l 425 -114 l 425 -286 l 244 -286 z "},"Ṭ":{"ha":769,"x_min":6,"x_max":756,"o":"m 6 0 m 283 0 l 283 761 l 6 761 l 6 922 l 756 922 l 756 761 l 476 761 l 476 0 l 283 0 m 301 -286 l 301 -114 l 482 -114 l 482 -286 l 301 -286 z "},"ṭ":{"ha":629,"x_min":36,"x_max":592,"o":"m 36 0 m 424 450 l 592 450 l 592 256 q 576 152 592 201 q 526 65 560 103 q 440 4 492 26 q 315 -18 388 -18 q 188 4 240 -18 q 101 64 135 26 q 51 151 67 101 q 36 257 36 201 l 36 868 l 214 868 l 214 683 l 592 683 l 592 556 l 214 556 l 214 275 q 238 174 214 210 q 318 139 263 139 q 398 174 372 139 q 424 272 424 208 l 424 450 m 231 -286 l 231 -114 l 411 -114 l 411 -286 l 231 -286 z "},"Ẁ":{"ha":1189,"x_min":4,"x_max":1179,"o":"m 4 0 m 735 0 l 592 600 l 446 0 l 265 0 l 4 922 l 210 922 l 361 325 l 489 922 l 692 922 l 832 325 l 982 922 l 1179 922 l 921 0 l 735 0 m 378 1139 l 443 1253 l 731 1085 l 688 1008 l 378 1139 z "},"ẁ":{"ha":992,"x_min":4,"x_max":981,"o":"m 4 0 m 600 0 l 492 397 l 383 0 l 199 0 l 4 683 l 194 683 l 306 244 l 400 683 l 583 683 l 690 244 l 794 683 l 981 683 l 785 0 l 600 0 m 279 900 l 344 1014 l 632 846 l 589 769 l 279 900 z "},"Ẃ":{"ha":1189,"x_min":4,"x_max":1179,"o":"m 4 0 m 735 0 l 592 600 l 446 0 l 265 0 l 4 922 l 210 922 l 361 325 l 489 922 l 692 922 l 832 325 l 982 922 l 1179 922 l 921 0 l 735 0 m 504 1008 l 461 1085 l 749 1253 l 814 1139 l 504 1008 z "},"ẃ":{"ha":992,"x_min":4,"x_max":981,"o":"m 4 0 m 600 0 l 492 397 l 383 0 l 199 0 l 4 683 l 194 683 l 306 244 l 400 683 l 583 683 l 690 244 l 794 683 l 981 683 l 785 0 l 600 0 m 406 769 l 363 846 l 650 1014 l 715 900 l 406 769 z "},"Ẅ":{"ha":1189,"x_min":4,"x_max":1179,"o":"m 4 0 m 735 0 l 592 600 l 446 0 l 265 0 l 4 922 l 210 922 l 361 325 l 489 922 l 692 922 l 832 325 l 982 922 l 1179 922 l 921 0 l 735 0 m 371 1043 l 371 1215 l 551 1215 l 551 1043 l 371 1043 m 649 1043 l 649 1215 l 829 1215 l 829 1043 l 649 1043 z "},"ẅ":{"ha":992,"x_min":4,"x_max":981,"o":"m 4 0 m 600 0 l 492 397 l 383 0 l 199 0 l 4 683 l 194 683 l 306 244 l 400 683 l 583 683 l 690 244 l 794 683 l 981 683 l 785 0 l 600 0 m 272 804 l 272 976 l 453 976 l 453 804 l 272 804 m 550 804 l 550 976 l 731 976 l 731 804 l 550 804 z "},"Ẓ":{"ha":739,"x_min":6,"x_max":726,"o":"m 6 0 m 6 0 l 6 164 l 485 761 l 19 761 l 19 922 l 726 922 l 726 771 l 244 164 l 726 164 l 726 0 l 6 0 m 286 -286 l 286 -114 l 467 -114 l 467 -286 l 286 -286 z "}}}
